<?xml version="1.0" encoding="utf-8"?>
<!-- Generator: Adobe Illustrator 16.0.4, SVG Export Plug-In . SVG Version: 6.00 Build 0)  -->
<!DOCTYPE svg PUBLIC "-//W3C//DTD SVG 1.1//EN" "http://www.w3.org/Graphics/SVG/1.1/DTD/svg11.dtd">
<svg version="1.1" id="Ebene_1" xmlns="http://www.w3.org/2000/svg" xmlns:xlink="http://www.w3.org/1999/xlink" x="0px" y="0px"
	 width="600px" height="90px" viewBox="0 0 600 90" enable-background="new 0 0 600 90" xml:space="preserve">
<g>
	<path fill="#2C3E50" d="M108.783,52.039c0.903,0,1.678-0.776,1.678-1.812c0-1.032-0.776-1.873-1.678-1.873
		c-0.97,0-1.681,0.842-1.681,1.873C107.102,51.263,107.814,52.039,108.783,52.039L108.783,52.039z M121.574,52.039
		c0.903,0,1.68-0.776,1.68-1.812c0-1.032-0.776-1.873-1.68-1.873c-0.969,0-1.744,0.842-1.744,1.873
		C119.829,51.263,120.605,52.039,121.574,52.039L121.574,52.039z M134.171,52.039c0.969,0,1.745-0.776,1.745-1.812
		c0-1.032-0.776-1.873-1.745-1.873c-0.905,0-1.681,0.842-1.681,1.873C132.49,51.263,133.267,52.039,134.171,52.039L134.171,52.039z
		 M160.719,41.962v-0.258c-0.644-4.07-2.388-7.623-5.167-10.66c-2.777-3.036-6.07-4.909-9.689-5.62
		c-1.162-0.258-2.261-0.258-3.424-0.258h-0.582H141.6h-20.027l4.652-5.233l-4.652-5.037l-12.985,14.147l12.985,14.083l4.652-5.04
		l-5.813-6.328h20.8c0.323,0,0.646,0,1.036,0c0.127,0,0.323,0,0.517,0c0.84,0,1.745,0.062,2.583,0.257
		c0.196,0.064,0.391,0.13,0.519,0.194h0.065c4.198,1.226,7.493,4.91,8.655,9.56c0.064,0,0.064,0.064,0.064,0.128
		c0.258,1.099,0.387,2.262,0.387,3.426c0,6.005-3.553,11.108-8.463,12.854l0,0c-0.128,0.064-0.259,0.129-0.453,0.192h-0.517
		l-1.876-10.077h-6.781l2.002,10.077h-6.07l-2.002-10.077h-6.653l2.002,10.077h-6.071l-2.001-10.077h-6.655l2.003,10.077h-6.136
		l-1.874-10.077h-6.718l2.003,10.077h-5.234l2.647-10.077v-0.258c0.324-0.904,0.453-2.004,0.71-3.618
		c0.389-2.325-1.357-4.717-4.91-7.365c-2.261-1.42-4.134-2.584-5.621-3.294l-9.107-9.948l-4.653,5.037l6.329,6.784l-2.97,0.062
		l-2.067-0.062c0,0,0,0.062-0.065,0c-2.584-1.293-13.437-6.848-13.437-6.848c-0.065,0-0.195-0.064-0.259-0.13
		c-0.97-0.387-3.295-1.292-6.395-1.292c-3.1,0-5.297,0.905-6.33,1.292l-0.065,0.065c-0.129,0-0.194,0.064-0.323,0.128l-12.016,6.719
		v-21.51h-6.586v20.864H6.653V14.055H0v63.047h6.653V50.615l16.28,26.485h8.009L9.302,42.088h21.125v23.775h6.588V41.316
		l12.016,6.719c0.129,0.064,0.194,0.126,0.324,0.126l0.064,0.067c1.098,0.386,3.229,1.293,6.33,1.293
		c3.101,0,5.427-0.906,6.461-1.36c0.063,0,0.128-0.061,0.195-0.061c0,0,10.788-5.492,13.436-6.849c0.064,0,0.064,0,0.064,0
		l2.067-0.064l1.938,0.064L74.611,47l4.652,5.039L88.5,41.96c2.713,1.615,3.746,2.908,3.359,4.33c-0.258,0.71-0.388,1.42-0.516,2
		l-7.882,31.656h6.784l3.746-14.342h8.076l2.778,14.342h6.783l-2.778-14.342h5.943l2.776,14.342h6.783l-2.777-14.342h6.009
		l2.776,14.342h6.784l-2.841-14.342h4.65h1.357l2.779,14.342h6.782l-2.907-14.923c1.293-0.451,2.648-0.906,3.811-1.612
		c1.745-0.842,3.358-2.133,4.779-3.749c3.619-4.005,5.427-8.786,5.427-14.406C160.979,44.158,160.85,42.995,160.719,41.962
		L160.719,41.962z M3.489,24.261c-0.968,0-1.744-0.84-1.744-1.874c0-0.969,0.776-1.808,1.744-1.808c0.904,0,1.68,0.839,1.68,1.808
		C5.169,23.421,4.393,24.261,3.489,24.261L3.489,24.261z M66.212,40.022L66.212,40.022l-0.064,0.064
		c-0.064,0-0.129,0.064-0.193,0.064l-5.62,2.907c-0.838,0.322-2.39,0.904-4.587,0.904c-2.131,0-3.681-0.581-4.521-0.904
		l-5.297-2.972l0,0c-0.517-0.323-0.903-0.97-0.903-1.679c0-0.776,0.452-1.422,1.034-1.681l5.167-2.907
		c0.84-0.322,2.39-0.902,4.521-0.902s3.681,0.581,4.586,0.902l5.877,3.036l0,0c0.518,0.323,0.839,0.906,0.839,1.614
		C67.052,39.118,66.729,39.7,66.212,40.022L66.212,40.022z M87.595,40.022c-0.903,0-1.68-0.839-1.68-1.873
		c0-0.969,0.776-1.81,1.68-1.81c0.97,0,1.745,0.841,1.745,1.81C89.34,39.185,88.564,40.022,87.595,40.022L87.595,40.022z"/>
</g>
<g>
	<path fill="#2C3E50" d="M190.24,23.275h-2.732v9.067h-7.606v-9.067h-2.732v22.168h2.732V34.762h7.606v10.681h2.732V23.275z
		 M195.952,33.83v-0.156c0-0.59,0-3.259,2.856-3.259c1.738,0,2.668,0.9,2.668,2.451c0,1.398,0,1.926-1.893,2.517l-3.508,1.055
		c-2.143,0.653-3.137,2.266-3.137,4.596c0,2.98,1.429,4.841,4.533,4.841c1.553,0,3.167-0.899,4.004-2.39h0.064
		c0.124,2.14,1.365,2.14,2.358,2.14c0.652,0,1.333-0.122,1.522-0.154v-1.864c-0.125,0.094-0.281,0.156-0.622,0.156
		c-0.808,0-0.808-0.652-0.808-1.334v-9.282c0-1.738,0-4.781-5.062-4.781c-3.974,0-5.588,1.676-5.588,5.461L195.952,33.83
		L195.952,33.83z M201.386,40.662c0,1.708-1.645,3.166-3.353,3.166c-1.769,0-2.359-1.179-2.359-2.856
		c0-1.458,0.435-2.11,1.273-2.638c1.179-0.714,3.476-0.932,4.44-1.956L201.386,40.662L201.386,40.662z M218.491,28.801h-2.606
		v11.488c0,2.421-1.894,3.353-3.291,3.353c-2.359,0-2.453-2.08-2.453-3.353V28.801h-2.607v11.796c0,1.957,0,5.278,4.376,5.278
		c1.615,0,3.354-0.868,4.038-2.391h0.062v1.958h2.484L218.491,28.801L218.491,28.801z M231.655,33.676
		c-0.029-1.955-0.216-5.31-5.058-5.31c-2.886,0-5.31,1.491-5.31,4.595c0,3.446,2.082,4.038,4.099,4.719
		c2.018,0.683,4.067,1.149,4.067,3.384c0,2.361-1.926,2.763-2.765,2.763c-2.546,0-3.103-1.831-3.103-3.849h-2.607
		c0,1.707,0.06,5.897,5.711,5.897c3.104,0,5.373-1.707,5.373-5.215c0-3.291-2.051-4.005-4.07-4.688
		c-2.048-0.683-4.1-1.057-4.1-3.011c0-2.329,1.864-2.547,2.702-2.547c1.894,0,2.453,1.149,2.453,3.26L231.655,33.676L231.655,33.676
		z M236.808,35.384v-0.622c0-0.994,0.309-4.346,3.043-4.346c2.299,0,2.889,2.203,2.889,4.066v0.901H236.808L236.808,35.384z
		 M245.473,37.432v-1.055c0-3.57-0.466-8.011-5.558-8.011c-5.123,0-5.929,4.812-5.929,8.973c0,5.712,1.707,8.538,5.775,8.538
		c4.532,0,5.587-4.13,5.587-5.899h-2.605c0,1.242-0.341,3.85-2.827,3.85c-3.198,0-3.198-3.85-3.198-6.396H245.473L245.473,37.432z
		 M248.327,45.443h2.608V34.917c0-2.763,2.114-3.941,3.416-3.941c0.842,0,1.147,0.093,1.398,0.125v-2.547
		c-0.25-0.125-0.62-0.187-1.149-0.187c-1.862,0-2.854,1.335-3.602,2.918h-0.062v-2.484h-2.608V45.443L248.327,45.443z
		 M265.062,45.443h2.733v-10.37h8.227v-2.422h-8.227v-6.956h8.723v-2.42h-11.456V45.443z M280.275,35.384v-0.622
		c0-0.994,0.309-4.346,3.044-4.346c2.297,0,2.887,2.203,2.887,4.066v0.901H280.275L280.275,35.384z M288.938,37.432v-1.055
		c0-3.57-0.464-8.011-5.558-8.011c-5.122,0-5.928,4.812-5.928,8.973c0,5.712,1.706,8.538,5.772,8.538
		c4.533,0,5.589-4.13,5.589-5.899h-2.606c0,1.242-0.345,3.85-2.825,3.85c-3.201,0-3.201-3.85-3.201-6.396H288.938L288.938,37.432z
		 M302.755,28.801h-2.609v11.488c0,2.421-1.892,3.353-3.289,3.353c-2.361,0-2.454-2.08-2.454-3.353V28.801h-2.605v11.796
		c0,1.957,0,5.278,4.377,5.278c1.612,0,3.352-0.868,4.037-2.391h0.061v1.958h2.483V28.801L302.755,28.801z M308.434,35.384v-0.622
		c0-0.994,0.311-4.346,3.045-4.346c2.298,0,2.884,2.203,2.884,4.066v0.901H308.434L308.434,35.384z M317.098,37.432v-1.055
		c0-3.57-0.466-8.011-5.558-8.011c-5.124,0-5.93,4.812-5.93,8.973c0,5.712,1.706,8.538,5.773,8.538c4.534,0,5.59-4.13,5.59-5.899
		h-2.607c0,1.242-0.343,3.85-2.823,3.85c-3.198,0-3.198-3.85-3.198-6.396H317.098L317.098,37.432z M319.955,45.443h2.605V34.917
		c0-2.763,2.112-3.941,3.417-3.941c0.838,0,1.144,0.093,1.396,0.125v-2.547c-0.252-0.125-0.621-0.187-1.146-0.187
		c-1.865,0-2.857,1.335-3.605,2.918h-0.06v-2.484h-2.606V45.443L319.955,45.443z M338.893,33.676c-0.03-1.955-0.219-5.31-5.061-5.31
		c-2.885,0-5.31,1.491-5.31,4.595c0,3.446,2.082,4.038,4.1,4.719c2.016,0.683,4.066,1.149,4.066,3.384
		c0,2.361-1.925,2.763-2.764,2.763c-2.547,0-3.104-1.831-3.104-3.849h-2.606c0,1.707,0.059,5.897,5.711,5.897
		c3.104,0,5.371-1.707,5.371-5.215c0-3.291-2.049-4.005-4.066-4.688c-2.05-0.683-4.099-1.057-4.099-3.011
		c0-2.329,1.861-2.547,2.699-2.547c1.895,0,2.453,1.149,2.453,3.26L338.893,33.676L338.893,33.676z M352.305,33.861
		c0-1.924-0.776-5.494-5.308-5.494c-5.124,0-5.933,4.812-5.933,8.974c0,5.712,1.708,8.537,5.776,8.537
		c4.158,0,5.464-3.571,5.464-6.21h-2.607c0,1.801-0.496,4.16-2.731,4.16c-3.136,0-3.169-4.345-3.169-6.518
		c0-6.086,1.647-6.893,3.261-6.893c1.986,0,2.64,1.83,2.64,3.445L352.305,33.861L352.305,33.861z M355.004,45.443h2.607V33.956
		c0-2.421,1.896-3.354,3.293-3.354c2.357,0,2.451,2.08,2.451,3.354v11.487h2.607V33.644c0-1.955,0-5.277-4.284-5.277
		c-1.489,0-3.321,0.96-4.004,2.328h-0.063v-7.42h-2.605v22.168H355.004z M380.339,28.801h-2.607v11.488
		c0,2.421-1.896,3.353-3.29,3.353c-2.361,0-2.452-2.08-2.452-3.353V28.801h-2.608v11.796c0,1.957,0,5.278,4.377,5.278
		c1.612,0,3.352-0.868,4.038-2.391h0.062v1.958h2.482L380.339,28.801L380.339,28.801z M384.531,28.801h-2.421v2.05h2.421v11.486
		c0,2.174,0.651,3.29,3.353,3.29c1.087,0,1.771-0.122,2.112-0.184v-2.142c-0.28,0.03-0.591,0.093-1.149,0.093
		c-1.366,0-1.706-0.528-1.706-1.864V30.852h2.887v-2.05h-2.887v-4.843h-2.607L384.531,28.801L384.531,28.801z M391.299,31.037h7.173
		l-7.546,12.357v2.049h10.339v-2.234h-7.389l7.453-12.234v-2.173H391.3L391.299,31.037L391.299,31.037z M408.221,45.443h2.854
		l1.647-6.086h7.076l1.584,6.086h2.855l-5.961-22.168h-3.663L408.221,45.443z M416.354,26.411h0.063l2.823,10.71h-5.96
		L416.354,26.411z M439.172,29.422c-0.03-1.148-0.183-6.581-6.549-6.581c-6.117,0-7.144,5.929-7.144,11.517
		c0,5.96,1.025,11.519,6.803,11.519c2.419,0,4.191-1.553,4.779-3.447h0.062v3.013h2.048v-11.52h-6.858v2.234h4.376
		c0,2.952-0.279,7.484-4.067,7.484c-3.787,0-4.284-4.161-4.284-9.284s0.498-9.283,4.284-9.283c2.701,0,3.569,2.019,3.694,4.347
		H439.172z"/>
	<path fill="#2C3E50" d="M186.014,62.545c-0.043-2.855-1.395-4.34-4.362-4.34c-3.947,0-4.557,2.856-4.557,4.295
		c0,5.715,7.349,3.164,7.349,7.567c0,1.658-1.177,2.752-2.703,2.752c-2.812,0-2.921-1.879-2.921-3.622h-1.92
		c0,3.315,1.069,5.19,4.711,5.19c2.202,0,4.84-1.025,4.84-4.623c0-5.692-7.347-3.073-7.347-7.458c0-1.659,0.96-2.528,2.573-2.528
		c1.832,0,2.422,1.134,2.422,2.767H186.014L186.014,62.545L186.014,62.545z M189.874,65.927v-0.11c0-0.415,0-2.289,2.007-2.289
		c1.221,0,1.874,0.635,1.874,1.723c0,0.98,0,1.354-1.331,1.768l-2.463,0.744c-1.505,0.455-2.205,1.59-2.205,3.226
		c0,2.093,1.002,3.4,3.185,3.4c1.091,0,2.226-0.632,2.812-1.677h0.045c0.087,1.503,0.96,1.503,1.657,1.503
		c0.457,0,0.937-0.086,1.067-0.109v-1.308c-0.086,0.065-0.197,0.107-0.438,0.107c-0.565,0-0.565-0.458-0.565-0.937v-6.519
		c0-1.22,0-3.358-3.554-3.358c-2.792,0-3.927,1.177-3.927,3.838h1.835V65.927L189.874,65.927z M193.689,70.724
		c0,1.201-1.155,2.224-2.355,2.224c-1.243,0-1.657-0.829-1.657-2.009c0-1.024,0.307-1.481,0.895-1.85
		c0.829-0.503,2.443-0.658,3.119-1.375L193.689,70.724L193.689,70.724z M198.554,74.082h1.831V63.833h2.005v-1.439h-2.005v-1.372
		c0-0.809,0.392-1.114,1.176-1.114h0.851v-1.573h-1.329c-1.768,0-2.53,0.917-2.53,2.687v1.371h-1.702v1.44h1.702L198.554,74.082
		L198.554,74.082z M205.248,67.017V66.58c0-0.697,0.22-3.053,2.137-3.053c1.613,0,2.028,1.549,2.028,2.856v0.633H205.248z
		 M211.332,68.456v-0.742c0-2.509-0.328-5.627-3.904-5.627c-3.599,0-4.164,3.381-4.164,6.302c0,4.011,1.199,5.997,4.057,5.997
		c3.184,0,3.925-2.901,3.925-4.144h-1.831c0,0.873-0.239,2.705-1.984,2.705c-2.246,0-2.246-2.705-2.246-4.492L211.332,68.456
		L211.332,68.456z M213.882,62.392h-1.699v1.44h1.699v8.067c0,1.529,0.458,2.312,2.356,2.312c0.762,0,1.243-0.089,1.482-0.132
		v-1.505c-0.197,0.021-0.415,0.066-0.807,0.066c-0.961,0-1.201-0.373-1.201-1.311v-7.499h2.028v-1.438h-2.028V58.99h-1.831V62.392
		L213.882,62.392z M221.45,74.321l-0.349,1.023c-0.218,0.634-0.588,1.135-1.44,1.135c-0.457,0-0.807-0.021-1.068-0.065v1.439
		c0.305,0.021,0.61,0.064,1.328,0.064c2.202,0,2.684-1.438,3.12-3.053l3.381-12.474h-2.008l-2.05,9.378h-0.044l-2.31-9.374h-2.006
		L221.45,74.321z M241.666,62.545c-0.044-2.855-1.397-4.34-4.363-4.34c-3.946,0-4.558,2.856-4.558,4.295
		c0,5.715,7.349,3.164,7.349,7.567c0,1.658-1.177,2.752-2.703,2.752c-2.812,0-2.922-1.879-2.922-3.622h-1.919
		c0,3.315,1.067,5.19,4.711,5.19c2.202,0,4.838-1.025,4.838-4.623c0-5.692-7.349-3.073-7.349-7.458c0-1.659,0.96-2.528,2.574-2.528
		c1.831,0,2.421,1.134,2.421,2.767h1.918H241.666L241.666,62.545z M244.086,74.082h1.832v-11.69h-1.832V74.082z M244.086,60.607
		h1.832v-2.094h-1.832V60.607z M252.045,63.657c1.963,0,2.357,2.312,2.357,4.581c0,2.397-0.394,4.273-2.377,4.273
		c-1.831,0-2.116-2.379-2.116-4.273C249.908,65.446,250.343,63.657,252.045,63.657L252.045,63.657z M256.123,62.392h-1.745v1.483
		h-0.044c-0.239-0.916-1.265-1.789-2.528-1.789c-2.965,0-3.816,2.988-3.816,6.151c0,1.546,0.218,5.843,3.621,5.843
		c1.154,0,2.247-0.588,2.64-1.57h0.042v1.528c0,0.807,0.087,2.615-2.268,2.615c-0.96,0-1.79-0.417-1.876-1.484h-1.83
		c0.304,2.925,3.119,2.925,3.837,2.925c2.356,0,3.969-1.264,3.969-4.756V62.392L256.123,62.392z M258.522,74.082h1.831v-8.067
		c0-1.7,1.331-2.357,2.311-2.357c1.659,0,1.723,1.461,1.723,2.357v8.067h1.831v-8.287c0-1.373,0-3.706-3.074-3.706
		c-1.134,0-2.357,0.609-2.835,1.679h-0.042v-1.372h-1.746v11.687H258.522z M275.466,65.816c-0.022-1.374-0.153-3.728-3.556-3.728
		c-2.027,0-3.729,1.045-3.729,3.228c0,2.418,1.463,2.834,2.879,3.315c1.421,0.479,2.858,0.807,2.858,2.375
		c0,1.656-1.354,1.94-1.94,1.94c-1.789,0-2.183-1.286-2.183-2.703h-1.829c0,1.201,0.043,4.144,4.011,4.144
		c2.179,0,3.771-1.199,3.771-3.663c0-2.315-1.438-2.812-2.854-3.295c-1.44-0.48-2.878-0.74-2.878-2.115
		c0-1.635,1.306-1.788,1.896-1.788c1.331,0,1.724,0.807,1.724,2.29H275.466L275.466,65.816z M286.718,64.202l-0.37-0.523
		c-0.478-0.718-0.936-1.503-0.936-2.203c0-0.893,0.609-1.527,1.546-1.527c0.917,0,1.573,0.635,1.573,1.527
		c0,1.049-0.699,1.656-1.398,2.336L286.718,64.202z M289.641,71.312c-0.743,0.851-1.571,1.506-2.793,1.506
		c-1.524,0-2.854-1.005-2.854-2.903c0-1.635,0.982-2.81,2.225-3.554L289.641,71.312z M287.525,65.357l0.564-0.479
		c1.069-0.894,2.14-1.875,2.14-3.4c0-2.116-1.333-2.966-3.294-2.966c-1.767,0-3.227,1.221-3.227,3.051
		c0,1.094,0.565,1.964,1.134,2.836l0.483,0.786l-1.137,0.849c-1.266,0.983-2.115,2.423-2.115,4.034c0,1.418,0.827,4.32,4.622,4.32
		c1.679,0,2.638-0.634,3.836-1.769l1.049,1.463h2.072l-2.011-2.812c0.594-0.765,1.268-3.403,1.268-4.537h-1.702
		c-0.107,1.373-0.302,2.248-0.607,3.032L287.525,65.357z M308.678,62.545c-0.044-2.855-1.395-4.34-4.36-4.34
		c-3.948,0-4.559,2.856-4.559,4.295c0,5.715,7.35,3.164,7.35,7.567c0,1.658-1.177,2.752-2.702,2.752
		c-2.815,0-2.925-1.879-2.925-3.622h-1.917c0,3.315,1.066,5.19,4.709,5.19c2.206,0,4.843-1.025,4.843-4.623
		c0-5.692-7.351-3.073-7.351-7.458c0-1.659,0.961-2.528,2.575-2.528c1.831,0,2.418,1.134,2.418,2.767H308.678L308.678,62.545
		L308.678,62.545z M312.582,67.017V66.58c0-0.697,0.218-3.053,2.137-3.053c1.613,0,2.031,1.549,2.031,2.856v0.633H312.582z
		 M318.665,68.456v-0.742c0-2.509-0.326-5.627-3.903-5.627c-3.599,0-4.164,3.381-4.164,6.302c0,4.011,1.203,5.997,4.057,5.997
		c3.184,0,3.925-2.901,3.925-4.144h-1.829c0,0.873-0.243,2.705-1.988,2.705c-2.245,0-2.245-2.705-2.245-4.492L318.665,68.456
		L318.665,68.456z M328.064,65.945c0-1.35-0.544-3.858-3.729-3.858c-3.6,0-4.164,3.381-4.164,6.302c0,4.011,1.2,5.997,4.057,5.997
		c2.922,0,3.838-2.507,3.838-4.362h-1.833c0,1.266-0.35,2.924-1.917,2.924c-2.202,0-2.227-3.051-2.227-4.579
		c0-4.274,1.158-4.841,2.292-4.841c1.395,0,1.852,1.286,1.852,2.42L328.064,65.945L328.064,65.945z M337.659,62.392h-1.832v8.068
		c0,1.701-1.329,2.357-2.311,2.357c-1.658,0-1.725-1.462-1.725-2.357v-8.068h-1.83v8.289c0,1.373,0,3.705,3.073,3.705
		c1.137,0,2.355-0.609,2.837-1.678h0.043v1.373h1.746V62.392H337.659z M340.056,74.082h1.832v-7.393
		c0-1.942,1.485-2.771,2.401-2.771c0.587,0,0.808,0.064,0.98,0.087v-1.787c-0.174-0.088-0.438-0.13-0.809-0.13
		c-1.307,0-2.006,0.938-2.529,2.049h-0.044v-1.742h-1.832V74.082L340.056,74.082z M346.622,74.082h1.83v-11.69h-1.83V74.082z
		 M346.622,60.607h1.83v-2.094h-1.83V60.607z M351.507,62.392h-1.7v1.44h1.7v8.067c0,1.529,0.457,2.312,2.354,2.312
		c0.764,0,1.244-0.089,1.483-0.132v-1.505c-0.196,0.021-0.414,0.066-0.807,0.066c-0.96,0-1.202-0.373-1.202-1.311v-7.499h2.03
		v-1.438h-2.03V58.99h-1.829L351.507,62.392L351.507,62.392z M359.074,74.321l-0.352,1.023c-0.217,0.634-0.587,1.135-1.438,1.135
		c-0.457,0-0.809-0.021-1.069-0.065v1.439c0.307,0.021,0.612,0.064,1.331,0.064c2.204,0,2.683-1.438,3.118-3.053l3.381-12.474
		h-2.007l-2.05,9.378h-0.043l-2.312-9.378h-2.007L359.074,74.321z M370.763,74.082h1.917v-6.586h2.378
		c2.639,0,4.491-1.612,4.491-4.513c0-4.472-3.467-4.472-4.818-4.472h-3.969L370.763,74.082L370.763,74.082z M372.68,60.082h2.16
		c1.896,0,2.702,1.112,2.702,2.812c0,2.072-1.177,3.029-2.574,3.029h-2.289L372.68,60.082L372.68,60.082z M381.186,74.082h1.83
		v-7.393c0-1.942,1.484-2.771,2.4-2.771c0.588,0,0.807,0.064,0.981,0.087v-1.787c-0.176-0.088-0.437-0.13-0.81-0.13
		c-1.309,0-2.005,0.938-2.527,2.049h-0.046v-1.742h-1.83L381.186,74.082L381.186,74.082z M387.072,68.236
		c0,3.293,0.827,6.149,4.21,6.149c3.359,0,4.207-2.855,4.207-6.149c0-3.292-0.827-6.149-4.207-6.149
		C387.923,62.089,387.072,64.944,387.072,68.236L387.072,68.236z M391.236,72.947c-1.873,0-2.243-2.18-2.243-4.711
		c0-2.528,0.393-4.711,2.243-4.711c1.965,0,2.336,2.18,2.336,4.711S393.179,72.947,391.236,72.947L391.236,72.947z M398.806,68.236
		c0-2.79,0.434-4.579,2.137-4.579c1.961,0,2.356,2.312,2.356,4.579c0,2.66-0.329,4.583-2.356,4.583
		C399.239,72.819,398.806,71.03,398.806,68.236L398.806,68.236z M405.021,58.512h-1.832v5.212h-0.043
		c-0.415-1.005-1.527-1.637-2.573-1.637c-3.293,0-3.687,3.708-3.687,6.15c0,3.686,1.051,6.148,3.818,6.148
		c1.266,0,2.289-0.872,2.53-1.742h0.044v1.436h1.743L405.021,58.512L405.021,58.512z M415.116,62.392h-1.832v8.068
		c0,1.701-1.33,2.357-2.31,2.357c-1.657,0-1.723-1.462-1.723-2.357v-8.068h-1.833v8.289c0,1.373,0,3.705,3.075,3.705
		c1.135,0,2.355-0.609,2.835-1.678h0.045v1.373h1.744V62.392H415.116z M424.907,65.945c0-1.35-0.543-3.858-3.727-3.858
		c-3.6,0-4.165,3.381-4.165,6.302c0,4.011,1.201,5.997,4.056,5.997c2.923,0,3.837-2.507,3.837-4.362h-1.83
		c0,1.266-0.35,2.924-1.919,2.924c-2.205,0-2.226-3.051-2.226-4.579c0-4.274,1.154-4.841,2.288-4.841
		c1.396,0,1.856,1.286,1.856,2.42L424.907,65.945L424.907,65.945z M427.351,62.392h-1.699v1.44h1.699v8.067
		c0,1.529,0.457,2.312,2.356,2.312c0.765,0,1.242-0.089,1.481-0.132v-1.505c-0.195,0.021-0.413,0.066-0.808,0.066
		c-0.959,0-1.2-0.373-1.2-1.311v-7.499h2.028v-1.438h-2.028V58.99h-1.832L427.351,62.392L427.351,62.392z M439.3,65.816
		c-0.02-1.374-0.151-3.728-3.554-3.728c-2.028,0-3.73,1.045-3.73,3.228c0,2.418,1.462,2.834,2.882,3.315
		c1.415,0.479,2.854,0.807,2.854,2.375c0,1.656-1.352,1.94-1.941,1.94c-1.786,0-2.179-1.286-2.179-2.703h-1.834
		c0,1.201,0.046,4.144,4.013,4.144c2.181,0,3.772-1.199,3.772-3.663c0-2.315-1.438-2.812-2.856-3.295
		c-1.438-0.48-2.881-0.74-2.881-2.115c0-1.635,1.312-1.788,1.9-1.788c1.329,0,1.722,0.807,1.722,2.29H439.3L439.3,65.816z"/>
</g>
</svg>
