<?xml version="1.0" encoding="UTF-8"?>
<svg width="250px" height="103px" viewBox="0 0 250 103" version="1.1" xmlns="http://www.w3.org/2000/svg" xmlns:xlink="http://www.w3.org/1999/xlink">
    <!-- Generator: Sketch 43.2 (39069) - http://www.bohemiancoding.com/sketch -->
    <title>logo</title>
    <desc>Created with Sketch.</desc>
    <defs></defs>
    <g id="logo" stroke="none" stroke-width="1" fill="none" fill-rule="evenodd">
        <g id="Shape" fill-rule="nonzero" fill="#333333">
            <path d="M168.760568,58.9280509 C170.161437,58.9280509 171.363734,57.7242029 171.363734,56.1170037 C171.363734,54.5160099 170.159886,53.2113241 168.760568,53.2113241 C167.255758,53.2113241 166.152747,54.5175613 166.152747,56.1170037 C166.152747,57.7242029 167.257309,58.9280509 168.760568,58.9280509 L168.760568,58.9280509 Z M188.603893,58.9280509 C190.004762,58.9280509 191.210162,57.7242029 191.210162,56.1170037 C191.210162,54.5160099 190.006314,53.2113241 188.603893,53.2113241 C187.100634,53.2113241 185.898337,54.5175613 185.898337,56.1170037 C185.896786,57.7242029 187.100634,58.9280509 188.603893,58.9280509 L188.603893,58.9280509 Z M208.146256,58.9280509 C209.649514,58.9280509 210.853362,57.7242029 210.853362,56.1170037 C210.853362,54.5160099 209.649514,53.2113241 208.146256,53.2113241 C206.742283,53.2113241 205.538435,54.5175613 205.538435,56.1170037 C205.538435,57.7242029 206.743835,58.9280509 208.146256,58.9280509 L208.146256,58.9280509 Z M249.33151,43.2950913 L249.33151,42.8948429 C248.33244,36.5808461 245.626885,31.0688976 241.315682,26.357446 C237.007581,21.6475457 231.898984,18.7418661 226.284646,17.6388558 C224.481977,17.2386074 222.777043,17.2386074 220.972822,17.2386074 L220.069936,17.2386074 L219.671239,17.2386074 L188.602341,17.2386074 L195.819224,9.12038993 L188.602341,1.30623717 L168.458054,23.2531935 L188.602341,45.1008634 L195.819224,37.2820566 L186.801223,27.4651103 L219.069315,27.4651103 L220.676514,27.4651103 L221.478562,27.4651103 C222.781697,27.4651103 224.185669,27.561294 225.485701,27.8638074 C225.789765,27.9630938 226.092279,28.0654829 226.290852,28.1647694 L226.39169,28.1647694 C232.904259,30.0667251 238.015959,35.7819006 239.818629,42.9956807 C239.917915,42.9956807 239.917915,43.0949671 239.917915,43.1942536 C240.318163,44.8991878 240.518288,46.7034085 240.518288,48.5091806 C240.518288,57.8250407 235.006339,65.7415826 227.389208,68.4502406 L227.389208,68.4502406 C227.190635,68.5495271 226.987408,68.6503649 226.686446,68.7480999 L225.884398,68.7480999 L222.974064,53.1151404 L212.454356,53.1151404 L215.56016,68.7480999 L206.143462,68.7480999 L203.037658,53.1151404 L192.716523,53.1151404 L195.822327,68.7480999 L186.404078,68.7480999 L183.299825,53.1151404 L172.975587,53.1151404 L176.082942,68.7480999 L166.563855,68.7480999 L163.656624,53.1151404 L153.234651,53.1151404 L156.342006,68.7480999 L148.222238,68.7480999 L152.328663,53.1151404 L152.328663,52.7148919 C152.8313,51.312471 153.031424,49.6059854 153.430121,47.1021056 C154.033597,43.4952156 151.324939,39.784385 145.81299,35.6764088 C142.305387,33.473491 139.399707,31.6677189 137.092849,30.56626 L122.964699,15.1334247 L115.746265,22.9475774 L125.564763,33.4719396 L120.957252,33.5681234 L117.75061,33.4719396 C117.75061,33.4719396 117.75061,33.5681234 117.649772,33.4719396 C113.641082,31.4660433 96.8042748,22.848291 96.8042748,22.848291 C96.703437,22.848291 96.5017614,22.7490046 96.402475,22.6466154 C94.8976649,22.0462428 91.2907749,20.6422705 86.4815882,20.6422705 C81.6724014,20.6422705 78.2640843,22.0462428 76.6615391,22.6466154 L76.5607013,22.7474532 C76.3605771,22.7474532 76.2597393,22.8467397 76.0596151,22.9460261 L57.4185868,33.3695505 L57.4185868,0 L47.2013921,0 L47.2013921,32.367378 L10.3211353,32.367378 L10.3211353,0.00155135056 L0,0.00155135056 L0,97.8095499 L10.3211353,97.8095499 L10.3211353,56.7189277 L35.5771223,97.8064472 L48.0018889,97.8064472 L14.4306629,43.4905615 L47.2029434,43.4905615 L47.2029434,80.373921 L57.4232409,80.373921 L57.4232409,42.2929189 L76.0642692,52.7164433 C76.2643934,52.8157297 76.3652312,52.9119135 76.5669067,52.9119135 L76.6661932,53.0158539 C78.3695761,53.6146753 81.6755041,55.0217502 86.4862422,55.0217502 C91.2969803,55.0217502 94.9054217,53.6162266 96.5095182,52.9119135 C96.6072532,52.9119135 96.708091,52.8172811 96.8120315,52.8172811 C96.8120315,52.8172811 113.548001,44.2972638 117.655978,42.1920811 L117.755264,42.1920811 L120.961906,42.0927947 L123.968423,42.1920811 L115.747816,51.1107955 L122.964699,58.9280509 L137.294524,43.2919886 C141.503338,45.7974198 143.105883,47.8033161 142.505511,50.0093366 C142.105262,51.1107955 141.903587,52.2122544 141.705014,53.1120377 L129.477269,102.221591 L140.001631,102.221591 L145.81299,79.9721212 L158.341697,79.9721212 L162.651349,102.221591 L173.17416,102.221591 L168.864508,79.9721212 L178.084185,79.9721212 L182.390734,102.221591 L192.913544,102.221591 L188.605444,79.9721212 L197.927509,79.9721212 L202.234059,102.221591 L212.758421,102.221591 L208.351034,79.9721212 L215.564814,79.9721212 L217.669997,79.9721212 L221.9812,102.221591 L232.502459,102.221591 L227.992683,79.0707865 C229.99858,78.3711274 232.10066,77.6652629 233.90488,76.5700094 C236.611987,75.2637723 239.114315,73.2609787 241.318785,70.7539962 C246.933122,64.5408372 249.737964,57.1238302 249.737964,48.4052401 C249.734861,46.7018572 249.534737,44.8976365 249.33151,43.2950913 L249.33151,43.2950913 Z M5.41266209,15.8346351 C3.91095475,15.8346351 2.70710672,14.5315007 2.70710672,12.9274042 C2.70710672,11.4241455 3.91095475,10.1225624 5.41266209,10.1225624 C6.815083,10.1225624 8.01893103,11.4241455 8.01893103,12.9274042 C8.01893103,14.5315007 6.815083,15.8346351 5.41266209,15.8346351 L5.41266209,15.8346351 Z M102.718023,40.2854713 L102.718023,40.2854713 L102.618737,40.3847577 C102.51945,40.3847577 102.418612,40.4840441 102.319326,40.4840441 L93.6007359,44.9938202 C92.3007041,45.4933551 89.893008,46.3962411 86.4846909,46.3962411 C83.1787628,46.3962411 80.7741695,45.4949064 79.471035,44.9938202 L71.2535311,40.3832064 L71.2535311,40.3832064 C70.4514829,39.8821201 69.8526615,38.8783963 69.8526615,37.7784888 C69.8526615,36.5746407 70.553872,35.5724683 71.456758,35.1706685 L79.4725863,30.6608924 C80.7757208,30.1613575 83.1803142,29.2615742 86.4862422,29.2615742 C89.7921702,29.2615742 92.1967636,30.1629089 93.6007359,30.6608924 L102.718023,35.3707927 L102.718023,35.3707927 C103.521623,35.8718789 104.019606,36.7763163 104.019606,37.8746725 C104.021158,38.8830504 103.520071,39.7859364 102.718023,40.2854713 L102.718023,40.2854713 Z M135.890552,40.2854713 C134.489682,40.2854713 133.284283,38.9838881 133.284283,37.3797917 C133.284283,35.876533 134.488131,34.5718472 135.890552,34.5718472 C137.395362,34.5718472 138.597659,35.876533 138.597659,37.3797917 C138.597659,38.9869909 137.393811,40.2854713 135.890552,40.2854713 L135.890552,40.2854713 Z"></path>
        </g>
    </g>
</svg>