<?xml version="1.0" encoding="UTF-8"?>
<svg width="663px" height="103px" viewBox="0 0 663 103" version="1.1" xmlns="http://www.w3.org/2000/svg" xmlns:xlink="http://www.w3.org/1999/xlink">
    <!-- Generator: Sketch 43.2 (39069) - http://www.bohemiancoding.com/sketch -->
    <title>logo_name_slogan_horizontally</title>
    <desc>Created with Sketch.</desc>
    <defs></defs>
    <g id="logo_name_slogan_horizontally" stroke="none" stroke-width="1" fill="none" fill-rule="evenodd">
        <g id="logo_slogan" fill="#000000">
            <g>
                <g id="logo" fill-rule="nonzero">
                    <path d="M168.760568,58.9280509 C170.161437,58.9280509 171.363734,57.7242029 171.363734,56.1170037 C171.363734,54.5160099 170.159886,53.2113241 168.760568,53.2113241 C167.255758,53.2113241 166.152747,54.5175613 166.152747,56.1170037 C166.152747,57.7242029 167.257309,58.9280509 168.760568,58.9280509 L168.760568,58.9280509 Z M188.603893,58.9280509 C190.004762,58.9280509 191.210162,57.7242029 191.210162,56.1170037 C191.210162,54.5160099 190.006314,53.2113241 188.603893,53.2113241 C187.100634,53.2113241 185.898337,54.5175613 185.898337,56.1170037 C185.896786,57.7242029 187.100634,58.9280509 188.603893,58.9280509 L188.603893,58.9280509 Z M208.146256,58.9280509 C209.649514,58.9280509 210.853362,57.7242029 210.853362,56.1170037 C210.853362,54.5160099 209.649514,53.2113241 208.146256,53.2113241 C206.742283,53.2113241 205.538435,54.5175613 205.538435,56.1170037 C205.538435,57.7242029 206.743835,58.9280509 208.146256,58.9280509 L208.146256,58.9280509 Z M249.33151,43.2950913 L249.33151,42.8948429 C248.33244,36.5808461 245.626885,31.0688976 241.315682,26.357446 C237.007581,21.6475457 231.898984,18.7418661 226.284646,17.6388558 C224.481977,17.2386074 222.777043,17.2386074 220.972822,17.2386074 L220.069936,17.2386074 L219.671239,17.2386074 L188.602341,17.2386074 L195.819224,9.12038993 L188.602341,1.30623717 L168.458054,23.2531935 L188.602341,45.1008634 L195.819224,37.2820566 L186.801223,27.4651103 L219.069315,27.4651103 L220.676514,27.4651103 L221.478562,27.4651103 C222.781697,27.4651103 224.185669,27.561294 225.485701,27.8638074 C225.789765,27.9630938 226.092279,28.0654829 226.290852,28.1647694 L226.39169,28.1647694 C232.904259,30.0667251 238.015959,35.7819006 239.818629,42.9956807 C239.917915,42.9956807 239.917915,43.0949671 239.917915,43.1942536 C240.318163,44.8991878 240.518288,46.7034085 240.518288,48.5091806 C240.518288,57.8250407 235.006339,65.7415826 227.389208,68.4502406 L227.389208,68.4502406 C227.190635,68.5495271 226.987408,68.6503649 226.686446,68.7480999 L225.884398,68.7480999 L222.974064,53.1151404 L212.454356,53.1151404 L215.56016,68.7480999 L206.143462,68.7480999 L203.037658,53.1151404 L192.716523,53.1151404 L195.822327,68.7480999 L186.404078,68.7480999 L183.299825,53.1151404 L172.975587,53.1151404 L176.082942,68.7480999 L166.563855,68.7480999 L163.656624,53.1151404 L153.234651,53.1151404 L156.342006,68.7480999 L148.222238,68.7480999 L152.328663,53.1151404 L152.328663,52.7148919 C152.8313,51.312471 153.031424,49.6059854 153.430121,47.1021056 C154.033597,43.4952156 151.324939,39.784385 145.81299,35.6764088 C142.305387,33.473491 139.399707,31.6677189 137.092849,30.56626 L122.964699,15.1334247 L115.746265,22.9475774 L125.564763,33.4719396 L120.957252,33.5681234 L117.75061,33.4719396 C117.75061,33.4719396 117.75061,33.5681234 117.649772,33.4719396 C113.641082,31.4660433 96.8042748,22.848291 96.8042748,22.848291 C96.703437,22.848291 96.5017614,22.7490046 96.402475,22.6466154 C94.8976649,22.0462428 91.2907749,20.6422705 86.4815882,20.6422705 C81.6724014,20.6422705 78.2640843,22.0462428 76.6615391,22.6466154 L76.5607013,22.7474532 C76.3605771,22.7474532 76.2597393,22.8467397 76.0596151,22.9460261 L57.4185868,33.3695505 L57.4185868,0 L47.2013921,0 L47.2013921,32.367378 L10.3211353,32.367378 L10.3211353,0.00155135056 L0,0.00155135056 L0,97.8095499 L10.3211353,97.8095499 L10.3211353,56.7189277 L35.5771223,97.8064472 L48.0018889,97.8064472 L14.4306629,43.4905615 L47.2029434,43.4905615 L47.2029434,80.373921 L57.4232409,80.373921 L57.4232409,42.2929189 L76.0642692,52.7164433 C76.2643934,52.8157297 76.3652312,52.9119135 76.5669067,52.9119135 L76.6661932,53.0158539 C78.3695761,53.6146753 81.6755041,55.0217502 86.4862422,55.0217502 C91.2969803,55.0217502 94.9054217,53.6162266 96.5095182,52.9119135 C96.6072532,52.9119135 96.708091,52.8172811 96.8120315,52.8172811 C96.8120315,52.8172811 113.548001,44.2972638 117.655978,42.1920811 L117.755264,42.1920811 L120.961906,42.0927947 L123.968423,42.1920811 L115.747816,51.1107955 L122.964699,58.9280509 L137.294524,43.2919886 C141.503338,45.7974198 143.105883,47.8033161 142.505511,50.0093366 C142.105262,51.1107955 141.903587,52.2122544 141.705014,53.1120377 L129.477269,102.221591 L140.001631,102.221591 L145.81299,79.9721212 L158.341697,79.9721212 L162.651349,102.221591 L173.17416,102.221591 L168.864508,79.9721212 L178.084185,79.9721212 L182.390734,102.221591 L192.913544,102.221591 L188.605444,79.9721212 L197.927509,79.9721212 L202.234059,102.221591 L212.758421,102.221591 L208.351034,79.9721212 L215.564814,79.9721212 L217.669997,79.9721212 L221.9812,102.221591 L232.502459,102.221591 L227.992683,79.0707865 C229.99858,78.3711274 232.10066,77.6652629 233.90488,76.5700094 C236.611987,75.2637723 239.114315,73.2609787 241.318785,70.7539962 C246.933122,64.5408372 249.737964,57.1238302 249.737964,48.4052401 C249.734861,46.7018572 249.534737,44.8976365 249.33151,43.2950913 L249.33151,43.2950913 Z M5.41266209,15.8346351 C3.91095475,15.8346351 2.70710672,14.5315007 2.70710672,12.9274042 C2.70710672,11.4241455 3.91095475,10.1225624 5.41266209,10.1225624 C6.815083,10.1225624 8.01893103,11.4241455 8.01893103,12.9274042 C8.01893103,14.5315007 6.815083,15.8346351 5.41266209,15.8346351 L5.41266209,15.8346351 Z M102.718023,40.2854713 L102.718023,40.2854713 L102.618737,40.3847577 C102.51945,40.3847577 102.418612,40.4840441 102.319326,40.4840441 L93.6007359,44.9938202 C92.3007041,45.4933551 89.893008,46.3962411 86.4846909,46.3962411 C83.1787628,46.3962411 80.7741695,45.4949064 79.471035,44.9938202 L71.2535311,40.3832064 L71.2535311,40.3832064 C70.4514829,39.8821201 69.8526615,38.8783963 69.8526615,37.7784888 C69.8526615,36.5746407 70.553872,35.5724683 71.456758,35.1706685 L79.4725863,30.6608924 C80.7757208,30.1613575 83.1803142,29.2615742 86.4862422,29.2615742 C89.7921702,29.2615742 92.1967636,30.1629089 93.6007359,30.6608924 L102.718023,35.3707927 L102.718023,35.3707927 C103.521623,35.8718789 104.019606,36.7763163 104.019606,37.8746725 C104.021158,38.8830504 103.520071,39.7859364 102.718023,40.2854713 L102.718023,40.2854713 Z M135.890552,40.2854713 C134.489682,40.2854713 133.284283,38.9838881 133.284283,37.3797917 C133.284283,35.876533 134.488131,34.5718472 135.890552,34.5718472 C137.395362,34.5718472 138.597659,35.876533 138.597659,37.3797917 C138.597659,38.9869909 137.393811,40.2854713 135.890552,40.2854713 L135.890552,40.2854713 Z" id="Shape"></path>
                </g>
                <g id="name_slogan" transform="translate(280.000000, 19.000000)">
                    <g id="slogan" transform="translate(0.000000, 0.323967)">
                        <path d="M20.6587879,1.84400826 L16.6953182,1.84400826 L16.6953182,14.957438 L5.66085606,14.957438 L5.66085606,1.84400826 L1.69738636,1.84400826 L1.69738636,33.9051653 L5.66085606,33.9051653 L5.66085606,18.457438 L16.6953182,18.457438 L16.6953182,33.9051653 L20.6587879,33.9051653 L20.6587879,1.84400826 Z M28.9455152,17.1095041 L28.9455152,16.8838843 C28.9455152,16.0305785 28.9455152,12.1704545 33.0888788,12.1704545 C35.6102955,12.1704545 36.9595,13.4721074 36.9595,15.7152893 C36.9595,17.7371901 36.9595,18.5008264 34.2132159,19.3555785 L29.1239583,20.881405 C26.0149848,21.8258264 24.5729318,24.1586777 24.5729318,27.5285124 C24.5729318,31.8384298 26.6460644,34.5299587 31.1492159,34.5299587 C33.4022424,34.5299587 35.7437652,33.2297521 36.9580492,31.0733471 L37.0508977,31.0733471 C37.2307917,34.1683884 39.0311818,34.1683884 40.4717841,34.1683884 C41.417678,34.1683884 42.4056439,33.9919421 42.6798371,33.9456612 L42.6798371,31.2497934 C42.4984924,31.3857438 42.2721742,31.4754132 41.7774659,31.4754132 C40.6052538,31.4754132 40.6052538,30.532438 40.6052538,29.5460744 L40.6052538,16.1216942 C40.6052538,13.6080579 40.6052538,9.20702479 33.2615189,9.20702479 C27.4962083,9.20702479 25.1546856,11.6309917 25.1546856,17.1051653 L28.9455152,17.1095041 L28.9455152,17.1095041 Z M36.8289318,26.9904959 C36.8289318,29.4607438 34.4424356,31.5694215 31.9645417,31.5694215 C29.3981515,31.5694215 28.5422045,29.8642562 28.5422045,27.438843 C28.5422045,25.3301653 29.1732841,24.3871901 30.3890189,23.6235537 C32.0994621,22.5909091 35.4318523,22.2756198 36.8303826,20.7946281 L36.8289318,26.9904959 L36.8289318,26.9904959 Z M61.6441402,9.83615702 L57.8634659,9.83615702 L57.8634659,26.4510331 C57.8634659,29.9524793 55.1157311,31.3004132 53.0890227,31.3004132 C49.6666856,31.3004132 49.5303144,28.2921488 49.5303144,26.4510331 L49.5303144,9.83615702 L45.7481894,9.83615702 L45.7481894,26.8964876 C45.7481894,29.7268595 45.7481894,34.5299587 52.0967045,34.5299587 C54.439678,34.5299587 56.9625455,33.2745868 57.9548636,31.0719008 L58.0448106,31.0719008 L58.0448106,33.903719 L61.6484924,33.903719 L61.6441402,9.83615702 L61.6441402,9.83615702 Z M80.7419129,16.8867769 C80.6998409,14.0592975 80.4285492,9.20702479 73.4039811,9.20702479 C69.2170947,9.20702479 65.7004583,11.3634298 65.7004583,15.852686 C65.7004583,20.8365702 68.7209356,21.6927686 71.6471136,22.677686 C74.5747424,23.6654959 77.5473447,24.3394628 77.5473447,27.5719008 C77.5473447,30.9865702 74.7531856,31.5679752 73.536,31.5679752 C69.8423712,31.5679752 69.0342992,28.9198347 69.0342992,26.0012397 L65.2521742,26.0012397 C65.2521742,28.4700413 65.3392197,34.5299587 73.5374508,34.5299587 C78.0406023,34.5299587 81.3323712,32.061157 81.3323712,26.9876033 C81.3323712,22.2278926 78.3568674,21.1952479 75.4277879,20.207438 C72.4566364,19.2196281 69.4796818,18.678719 69.4796818,15.852686 C69.4796818,12.4842975 72.1838939,12.1690083 73.3996288,12.1690083 C76.1473636,12.1690083 76.9583371,13.8307851 76.9583371,16.8838843 L80.7419129,16.8867769 L80.7419129,16.8867769 Z M88.2176667,19.3570248 L88.2176667,18.457438 C88.2176667,17.0198347 88.6659508,12.1719008 92.632322,12.1719008 C95.9676136,12.1719008 96.8235606,15.3580579 96.8235606,18.0524793 L96.8235606,19.3555785 L88.2176667,19.3555785 L88.2176667,19.3570248 Z M100.788481,22.3190083 L100.788481,20.7931818 C100.788481,15.6299587 100.112428,9.20702479 92.7251705,9.20702479 C85.2929394,9.20702479 84.1236288,16.1665289 84.1236288,22.1845041 C84.1236288,30.4456612 86.600072,34.5328512 92.5017538,34.5328512 C99.0765871,34.5328512 100.607136,28.5597107 100.607136,26.0012397 L96.8279129,26.0012397 C96.8279129,27.7975207 96.3332045,31.5694215 92.7266212,31.5694215 C88.0870985,31.5694215 88.0870985,26.0012397 88.0870985,22.3190083 L100.788481,22.3190083 L100.788481,22.3190083 Z M104.928943,33.9051653 L108.712519,33.9051653 L108.712519,18.6816116 C108.712519,14.6855372 111.77942,12.9818182 113.668307,12.9818182 C114.889845,12.9818182 115.332326,13.1163223 115.696466,13.1626033 L115.696466,9.47892562 C115.333777,9.2981405 114.796996,9.20847107 114.029545,9.20847107 C111.328235,9.20847107 109.889083,11.1392562 108.803917,13.428719 L108.71397,13.428719 L108.71397,9.83615702 L104.930394,9.83615702 L104.930394,33.9051653 L104.928943,33.9051653 Z M129.207371,33.9051653 L133.172292,33.9051653 L133.172292,18.9072314 L145.107674,18.9072314 L145.107674,15.4043388 L133.172292,15.4043388 L133.172292,5.34400826 L145.82725,5.34400826 L145.82725,1.84400826 L129.207371,1.84400826 L129.207371,33.9051653 Z M151.277746,19.3570248 L151.277746,18.457438 C151.277746,17.0198347 151.72603,12.1719008 155.693852,12.1719008 C159.026242,12.1719008 159.882189,15.3580579 159.882189,18.0524793 L159.882189,19.3555785 L151.277746,19.3555785 L151.277746,19.3570248 Z M163.845659,22.3190083 L163.845659,20.7931818 C163.845659,15.6299587 163.172508,9.20702479 155.782348,9.20702479 C148.351568,9.20702479 147.182258,16.1665289 147.182258,22.1845041 C147.182258,30.4456612 149.65725,34.5328512 155.55603,34.5328512 C162.132314,34.5328512 163.664314,28.5597107 163.664314,26.0012397 L159.88364,26.0012397 C159.88364,27.7975207 159.383129,31.5694215 155.78525,31.5694215 C151.141375,31.5694215 151.141375,26.0012397 151.141375,22.3190083 L163.845659,22.3190083 L163.845659,22.3190083 Z M183.890777,9.83615702 L180.10575,9.83615702 L180.10575,26.4510331 C180.10575,29.9524793 177.360917,31.3004132 175.334208,31.3004132 C171.90897,31.3004132 171.774049,28.2921488 171.774049,26.4510331 L171.774049,9.83615702 L167.994826,9.83615702 L167.994826,26.8964876 C167.994826,29.7268595 167.994826,34.5299587 174.344792,34.5299587 C176.683413,34.5299587 179.207731,33.2745868 180.2015,31.0719008 L180.289996,31.0719008 L180.289996,33.903719 L183.892227,33.903719 L183.892227,9.83615702 L183.890777,9.83615702 Z M192.129629,19.3570248 L192.129629,18.457438 C192.129629,17.0198347 192.580814,12.1719008 196.547186,12.1719008 C199.881027,12.1719008 200.73117,15.3580579 200.73117,18.0524793 L200.73117,19.3555785 L192.129629,19.3555785 L192.129629,19.3570248 Z M204.698992,22.3190083 L204.698992,20.7931818 C204.698992,15.6299587 204.022939,9.20702479 196.635682,9.20702479 C189.202,9.20702479 188.032689,16.1665289 188.032689,22.1845041 C188.032689,30.4456612 190.507682,34.5328512 196.407913,34.5328512 C202.985648,34.5328512 204.517648,28.5597107 204.517648,26.0012397 L200.735523,26.0012397 C200.735523,27.7975207 200.237913,31.5694215 196.640034,31.5694215 C192.000511,31.5694215 192.000511,26.0012397 192.000511,22.3190083 L204.698992,22.3190083 L204.698992,22.3190083 Z M208.843807,33.9051653 L212.62303,33.9051653 L212.62303,18.6816116 C212.62303,14.6855372 215.68703,12.9818182 217.580269,12.9818182 C218.796004,12.9818182 219.239936,13.1163223 219.605527,13.1626033 L219.605527,9.47892562 C219.239936,9.2981405 218.704606,9.20847107 217.942958,9.20847107 C215.237295,9.20847107 213.798144,11.1392562 212.712977,13.428719 L212.625932,13.428719 L212.625932,9.83615702 L208.845258,9.83615702 L208.845258,33.9051653 L208.843807,33.9051653 Z M236.318254,16.8867769 C236.274731,14.0592975 236.000538,9.20702479 228.97597,9.20702479 C224.790534,9.20702479 221.272447,11.3634298 221.272447,15.852686 C221.272447,20.8365702 224.292924,21.6927686 227.220553,22.677686 C230.14528,23.6654959 233.119333,24.3394628 233.119333,27.5719008 C233.119333,30.9865702 230.326625,31.5679752 229.109439,31.5679752 C225.41436,31.5679752 224.606288,28.9198347 224.606288,26.0012397 L220.825614,26.0012397 C220.825614,28.4700413 220.911208,34.5299587 229.11089,34.5299587 C233.614042,34.5299587 236.902909,32.061157 236.902909,26.9876033 C236.902909,22.2278926 233.930307,21.1952479 231.004129,20.207438 C228.030076,19.2196281 225.057473,18.678719 225.057473,15.852686 C225.057473,12.4842975 227.757333,12.1690083 228.973068,12.1690083 C231.722254,12.1690083 232.531777,13.8307851 232.531777,16.8838843 L236.318254,16.8867769 L236.318254,16.8867769 Z M255.775814,17.1543388 C255.775814,14.3716942 254.650027,9.20847107 248.075193,9.20847107 C240.641511,9.20847107 239.467848,16.1679752 239.467848,22.1873967 C239.467848,30.4485537 241.945742,34.5342975 247.847424,34.5342975 C253.879674,34.5342975 255.774364,29.3696281 255.774364,25.5528926 L251.992239,25.5528926 C251.992239,28.1576446 251.272663,31.5694215 248.03022,31.5694215 C243.480644,31.5694215 243.432769,25.2853306 243.432769,22.142562 C243.432769,13.3404959 245.822167,12.1733471 248.163689,12.1733471 C251.044894,12.1733471 251.993689,14.8200413 251.993689,17.1557851 L255.775814,17.1543388 L255.775814,17.1543388 Z M259.691409,33.9051653 L263.473534,33.9051653 L263.473534,17.2917355 C263.473534,13.7902893 266.22417,12.4409091 268.250879,12.4409091 C271.670314,12.4409091 271.806686,15.4491736 271.806686,17.2917355 L271.806686,33.9051653 L275.588811,33.9051653 L275.588811,16.8404959 C275.588811,14.0130165 275.588811,9.20847107 269.373765,9.20847107 C267.213587,9.20847107 264.555799,10.5969008 263.564932,12.5754132 L263.473534,12.5754132 L263.473534,1.84400826 L259.694311,1.84400826 L259.694311,33.9051653 L259.691409,33.9051653 Z M296.446352,9.83615702 L292.664227,9.83615702 L292.664227,26.4510331 C292.664227,29.9524793 289.913591,31.3004132 287.891235,31.3004132 C284.465996,31.3004132 284.333977,28.2921488 284.333977,26.4510331 L284.333977,9.83615702 L280.550402,9.83615702 L280.550402,26.8964876 C280.550402,29.7268595 280.550402,34.5299587 286.900367,34.5299587 C289.238989,34.5299587 291.763307,33.2745868 292.758527,31.0719008 L292.848473,31.0719008 L292.848473,33.903719 L296.449254,33.903719 L296.446352,9.83615702 L296.446352,9.83615702 Z M302.527928,9.83615702 L299.015644,9.83615702 L299.015644,12.8010331 L302.527928,12.8010331 L302.527928,29.4130165 C302.527928,32.5572314 303.472371,34.171281 307.392318,34.171281 C308.969292,34.171281 309.96161,33.9948347 310.456318,33.9051653 L310.456318,30.8072314 C310.050106,30.8506198 309.59892,30.9417355 308.789398,30.9417355 C306.807663,30.9417355 306.314405,30.1780992 306.314405,28.2458678 L306.314405,12.8024793 L310.502742,12.8024793 L310.502742,9.83760331 L306.314405,9.83760331 L306.314405,2.83326446 L302.53228,2.83326446 L302.527928,9.83615702 L302.527928,9.83615702 Z M312.346655,13.0700413 L322.752939,13.0700413 L311.805523,30.9417355 L311.805523,33.9051653 L326.804905,33.9051653 L326.804905,30.6741736 L316.085258,30.6741736 L326.897754,12.9803719 L326.897754,9.83760331 L312.348106,9.83760331 L312.346655,13.0700413 L312.346655,13.0700413 Z M336.896375,33.9051653 L341.036837,33.9051653 L343.426235,25.1030992 L353.691795,25.1030992 L355.989795,33.9051653 L360.131708,33.9051653 L351.483742,1.84400826 L346.169617,1.84400826 L336.896375,33.9051653 Z M348.695386,6.37954545 L348.786784,6.37954545 L352.882273,21.8692149 L344.235758,21.8692149 L348.695386,6.37954545 Z M381.798773,10.7342975 C381.75525,9.07396694 381.533284,1.21632231 372.297761,1.21632231 C363.423477,1.21632231 361.933549,9.79132231 361.933549,17.8731405 C361.933549,26.4929752 363.420576,34.5328512 371.803053,34.5328512 C375.312436,34.5328512 377.883178,32.2867769 378.736223,29.5475207 L378.82617,29.5475207 L378.82617,33.9051653 L381.797322,33.9051653 L381.797322,17.2440083 L371.848027,17.2440083 L371.848027,20.475 L378.196542,20.475 C378.196542,24.7444215 377.79178,31.2989669 372.296311,31.2989669 C366.802292,31.2989669 366.081265,25.2809917 366.081265,17.8716942 C366.081265,10.4623967 366.803742,4.44586777 372.296311,4.44586777 C376.214807,4.44586777 377.474064,7.36590909 377.655409,10.7328512 L381.798773,10.7328512 L381.798773,10.7342975 Z" id="Shape" fill-rule="nonzero"></path>
                        <path d="M14.5278864,58.6394628 C14.4655038,54.5103306 12.5040795,52.3626033 8.19968182,52.3626033 C2.47354167,52.3626033 1.58857955,56.4931818 1.58857955,58.5743802 C1.58857955,66.839876 12.250197,63.1504132 12.250197,69.5183884 C12.250197,71.9163223 10.5426553,73.4985537 8.32879924,73.4985537 C4.24926894,73.4985537 4.09113636,70.7809917 4.09113636,68.260124 L1.30568182,68.260124 C1.30568182,73.0545455 2.85654167,75.7663223 8.14020076,75.7663223 C11.3347689,75.7663223 15.1618674,74.2838843 15.1618674,69.0801653 C15.1618674,60.8479339 4.50315152,64.6357438 4.50315152,58.2938017 C4.50315152,55.8944215 5.89587879,54.6376033 8.23595076,54.6376033 C10.8937386,54.6376033 11.7496856,56.277686 11.7496856,58.6394628 L14.5278864,58.6394628 L14.5278864,58.6394628 L14.5278864,58.6394628 Z M20.1278106,63.5307851 L20.1278106,63.3716942 C20.1278106,62.7714876 20.1278106,60.061157 23.0394811,60.061157 C24.8108561,60.061157 25.7582008,60.9795455 25.7582008,62.5530992 C25.7582008,63.9704545 25.7582008,64.5113636 23.8272424,65.110124 L20.2540265,66.186157 C18.0706364,66.8442149 17.0551061,68.4857438 17.0551061,70.8518595 C17.0551061,73.8789256 18.5087652,75.7692149 21.6757689,75.7692149 C23.2585455,75.7692149 24.9051553,74.8551653 25.7552992,73.3438017 L25.8205833,73.3438017 C25.9467992,75.517562 27.2133106,75.517562 28.2244886,75.517562 C28.8874848,75.517562 29.5838485,75.3931818 29.772447,75.3599174 L29.772447,73.4681818 C29.6476818,73.5621901 29.4866477,73.6229339 29.1370152,73.6229339 C28.3173371,73.6229339 28.3173371,72.9605372 28.3173371,72.2677686 L28.3173371,62.8394628 C28.3173371,61.075 28.3173371,57.9828512 23.1613447,57.9828512 C19.1108295,57.9828512 17.4642197,59.685124 17.4642197,63.5336777 L20.1263598,63.5336777 L20.1263598,63.5307851 L20.1278106,63.5307851 Z M25.6624508,70.468595 C25.6624508,72.2055785 23.9868258,73.685124 22.2459167,73.685124 C20.442625,73.685124 19.8420114,72.486157 19.8420114,70.7795455 C19.8420114,69.2985537 20.2873939,68.6376033 21.1404394,68.1039256 C22.3431174,67.3764463 24.6846402,67.1522727 25.6653523,66.1152893 L25.6624508,70.468595 L25.6624508,70.468595 Z M32.7203864,75.3252066 L35.3767235,75.3252066 L35.3767235,60.5022727 L38.2854924,60.5022727 L38.2854924,58.4210744 L35.3767235,58.4210744 L35.3767235,56.4367769 C35.3767235,55.2667355 35.9454205,54.8256198 37.0828144,54.8256198 L38.3174091,54.8256198 L38.3174091,52.5506198 L36.3893523,52.5506198 C33.8244129,52.5506198 32.7189356,53.8768595 32.7189356,56.4367769 L32.7189356,58.4196281 L30.2497462,58.4196281 L30.2497462,60.5022727 L32.7189356,60.5022727 L32.7203864,75.3252066 L32.7203864,75.3252066 Z M42.4317576,65.1072314 L42.4317576,64.4752066 C42.4317576,63.4671488 42.7509242,60.0597107 45.5320265,60.0597107 C47.8720985,60.0597107 48.4741629,62.3 48.4741629,64.1902893 L48.4741629,65.1057851 L42.4317576,65.1057851 L42.4317576,65.1072314 Z M51.2581667,67.1884298 L51.2581667,66.1152893 C51.2581667,62.4865702 50.7823182,57.9770661 45.5944091,57.9770661 C40.3731326,57.9770661 39.5534545,62.8669421 39.5534545,67.0915289 C39.5534545,72.892562 41.2929129,75.764876 45.439178,75.764876 C50.0583902,75.764876 51.1334015,71.5692149 51.1334015,69.7714876 L48.4770644,69.7714876 C48.4770644,71.0340909 48.1303333,73.6836777 45.5987614,73.6836777 C42.3403598,73.6836777 42.3403598,69.7714876 42.3403598,67.1869835 L51.2581667,67.1884298 L51.2581667,67.1884298 Z M54.9575985,58.4181818 L52.4927614,58.4181818 L52.4927614,60.5008264 L54.9575985,60.5008264 L54.9575985,72.1679752 C54.9575985,74.3793388 55.6220455,75.5117769 58.3755833,75.5117769 C59.4810606,75.5117769 60.178875,75.3830579 60.5256061,75.3208678 L60.5256061,73.1442149 C60.2398068,73.1745868 59.9235417,73.2396694 59.3548447,73.2396694 C57.9606667,73.2396694 57.6124848,72.7002066 57.6124848,71.343595 L57.6124848,60.4979339 L60.5546212,60.4979339 L60.5546212,58.4181818 L57.6124848,58.4181818 L57.6124848,53.4979339 L54.9561477,53.4979339 L54.9561477,58.4181818 L54.9575985,58.4181818 Z M65.9369318,75.6708678 L65.4306174,77.1504132 C65.1143523,78.0673554 64.577572,78.7919421 63.3415265,78.7919421 C62.6785303,78.7919421 62.1707652,78.7615702 61.7921174,78.6979339 L61.7921174,80.7791322 C62.2345985,80.8095041 62.6770795,80.8716942 63.7187235,80.8716942 C66.9132917,80.8716942 67.6125568,78.7919421 68.2450871,76.4561983 L73.1500985,58.4152893 L70.2369773,58.4152893 L67.2629242,71.9785124 L67.1990909,71.9785124 L63.8478409,58.4210744 L60.9376212,58.4210744 L65.9369318,75.6708678 Z M95.265447,58.6394628 C95.2016136,54.5103306 93.2387386,52.3626033 88.9357917,52.3626033 C83.2111023,52.3626033 82.3232386,56.4931818 82.3232386,58.5743802 C82.3232386,66.839876 92.9848561,63.1504132 92.9848561,69.5183884 C92.9848561,71.9163223 91.2773144,73.4985537 89.0634583,73.4985537 C84.983928,73.4985537 84.8243447,70.7809917 84.8243447,68.260124 L82.0403409,68.260124 C82.0403409,73.0545455 83.5882992,75.7663223 88.8748598,75.7663223 C92.069428,75.7663223 95.893625,74.2838843 95.893625,69.0801653 C95.893625,60.8479339 85.2320076,64.6357438 85.2320076,58.2938017 C85.2320076,55.8944215 86.6247348,54.6376033 88.9662576,54.6376033 C91.6225947,54.6376033 92.4785417,56.277686 92.4785417,58.6394628 L95.2610947,58.6394628 L95.265447,58.6394628 L95.265447,58.6394628 Z M98.7762803,75.3252066 L101.434068,75.3252066 L101.434068,58.4181818 L98.7762803,58.4181818 L98.7762803,75.3252066 Z M98.7762803,55.8365702 L101.434068,55.8365702 L101.434068,52.8080579 L98.7762803,52.8080579 L98.7762803,55.8365702 Z M110.32286,60.2477273 C113.170697,60.2477273 113.742295,63.5915289 113.742295,66.8731405 C113.742295,70.339876 113.170697,73.0530992 110.293845,73.0530992 C107.637508,73.0530992 107.224042,69.6123967 107.224042,66.8731405 C107.222591,62.835124 107.85367,60.2477273 110.32286,60.2477273 L110.32286,60.2477273 Z M116.239049,58.4181818 L113.707477,58.4181818 L113.707477,60.5630165 L113.643644,60.5630165 C113.296913,59.2382231 111.808436,57.9756198 109.976129,57.9756198 C105.674633,57.9756198 104.440038,62.2971074 104.440038,66.8716942 C104.440038,69.1076446 104.756303,75.322314 109.693231,75.322314 C111.367405,75.322314 112.953083,74.4719008 113.523231,73.0516529 L113.584163,73.0516529 L113.584163,75.2615702 C113.584163,76.428719 113.710379,79.043595 110.293845,79.043595 C108.901117,79.043595 107.696989,78.4404959 107.572223,76.897314 L104.917337,76.897314 C105.358367,81.127686 109.44225,81.127686 110.483894,81.127686 C113.901879,81.127686 116.241951,79.2995868 116.241951,74.2491736 L116.241951,58.4181818 L116.239049,58.4181818 Z M119.719417,75.3252066 L122.375754,75.3252066 L122.375754,63.6580579 C122.375754,61.1993802 124.306712,60.2491736 125.728455,60.2491736 C128.135261,60.2491736 128.22811,62.3621901 128.22811,63.6580579 L128.22811,75.3252066 L130.884447,75.3252066 L130.884447,63.339876 C130.884447,61.3541322 130.884447,57.9799587 126.424818,57.9799587 C124.779659,57.9799587 123.005383,58.8607438 122.31192,60.4082645 L122.250989,60.4082645 L122.250989,58.4239669 L119.717966,58.4239669 L119.717966,75.3266529 L119.719417,75.3266529 L119.719417,75.3252066 Z M144.301053,63.3702479 C144.269136,61.3830579 144.079087,57.9785124 139.142159,57.9785124 C136.201473,57.9785124 133.732284,59.489876 133.732284,62.6471074 C133.732284,66.1442149 135.854742,66.7458678 137.909015,67.4415289 C139.970542,68.1342975 142.05528,68.6086777 142.05528,70.8764463 C142.05528,73.2714876 140.090955,73.6822314 139.240811,73.6822314 C136.645405,73.6822314 136.073807,71.822314 136.073807,69.7729339 L133.420371,69.7729339 C133.420371,71.5099174 133.482754,75.7663223 139.23936,75.7663223 C142.400561,75.7663223 144.710167,74.0322314 144.710167,70.468595 C144.710167,67.1204545 142.623977,66.4016529 140.569705,65.7030992 C138.480614,65.0088843 136.394424,64.6328512 136.394424,62.6442149 C136.394424,60.2795455 138.289114,60.0582645 139.145061,60.0582645 C141.076019,60.0582645 141.646167,61.2254132 141.646167,63.3702479 L144.301053,63.3702479 L144.301053,63.3702479 Z M160.624977,61.0359504 L160.088197,60.2795455 C159.394735,59.2411157 158.730288,58.1057851 158.730288,57.0933884 C158.730288,55.8018595 159.613799,54.8849174 160.973159,54.8849174 C162.303504,54.8849174 163.255201,55.8033058 163.255201,57.0933884 C163.255201,58.6105372 162.241121,59.4884298 161.227042,60.4719008 L160.624977,61.0359504 Z M164.865542,71.3190083 C163.787629,72.5497934 162.586402,73.4971074 160.813576,73.4971074 C158.602621,73.4971074 156.673114,72.043595 156.673114,69.2985537 C156.673114,66.9338843 158.097758,65.2345041 159.901049,64.1584711 L164.865542,71.3190083 Z M161.795739,62.706405 L162.613966,62.0136364 C164.164826,60.7206612 165.718587,59.3018595 165.718587,57.096281 C165.718587,54.0359504 163.784727,52.8066116 160.939792,52.8066116 C158.376303,52.8066116 156.258197,54.5725207 156.258197,57.2192149 C156.258197,58.8014463 157.077875,60.0597107 157.903356,61.3208678 L158.604072,62.4576446 L156.954561,63.6855372 C155.117902,65.1072314 153.886208,67.189876 153.886208,69.5198347 C153.886208,71.5706612 155.085985,75.7677686 160.59161,75.7677686 C163.027432,75.7677686 164.418708,74.8508264 166.156716,73.2092975 L167.678561,75.3252066 L170.68453,75.3252066 L167.767057,71.2582645 C168.628807,70.1518595 169.606617,66.3365702 169.606617,64.6964876 L167.137428,64.6964876 C166.982197,66.6822314 166.699299,67.9477273 166.256818,69.0816116 L161.795739,62.706405 Z M192.483614,58.6394628 C192.41978,54.5103306 190.459807,52.3626033 186.158311,52.3626033 C180.43072,52.3626033 179.544307,56.4931818 179.544307,58.5743802 C179.544307,66.839876 190.207375,63.1504132 190.207375,69.5183884 C190.207375,71.9163223 188.499833,73.4985537 186.287428,73.4985537 C182.203545,73.4985537 182.043962,70.7809917 182.043962,68.260124 L179.26286,68.260124 C179.26286,73.0545455 180.809367,75.7663223 186.094477,75.7663223 C189.294848,75.7663223 193.120496,74.2838843 193.120496,69.0801653 C193.120496,60.8479339 182.455977,64.6357438 182.455977,58.2938017 C182.455977,55.8944215 183.850155,54.6376033 186.191678,54.6376033 C188.848015,54.6376033 189.69961,56.277686 189.69961,58.6394628 L192.483614,58.6394628 L192.483614,58.6394628 L192.483614,58.6394628 Z M198.147371,65.1072314 L198.147371,64.4752066 C198.147371,63.4671488 198.463636,60.0597107 201.24764,60.0597107 C203.587712,60.0597107 204.194129,62.3 204.194129,64.1902893 L204.194129,65.1057851 L198.147371,65.1057851 L198.147371,65.1072314 Z M206.97233,67.1884298 L206.97233,66.1152893 C206.97233,62.4865702 206.499383,57.9770661 201.310023,57.9770661 C196.088746,57.9770661 195.269068,62.8669421 195.269068,67.0915289 C195.269068,72.892562 197.01433,75.764876 201.154792,75.764876 C205.774004,75.764876 206.849015,71.5692149 206.849015,69.7714876 L204.19558,69.7714876 C204.19558,71.0340909 203.843045,73.6836777 201.311473,73.6836777 C198.054523,73.6836777 198.054523,69.7714876 198.054523,67.1869835 L206.97233,67.1884298 L206.97233,67.1884298 Z M220.608,63.5568182 C220.608,61.6043388 219.818788,57.9770661 215.198125,57.9770661 C209.975398,57.9770661 209.15717,62.8669421 209.15717,67.0915289 C209.15717,72.892562 210.89808,75.764876 215.042894,75.764876 C219.282008,75.764876 220.610902,72.1390496 220.610902,69.4561983 L217.951663,69.4561983 C217.951663,71.2871901 217.443898,73.685124 215.170561,73.685124 C211.975992,73.685124 211.939723,69.2725207 211.939723,67.0626033 C211.939723,60.8811983 213.619701,60.061157 215.26486,60.061157 C217.288667,60.061157 217.951663,61.9210744 217.951663,63.561157 L220.608,63.5568182 L220.608,63.5568182 Z M234.528019,58.4181818 L231.870231,58.4181818 L231.870231,70.0867769 C231.870231,72.5469008 229.942174,73.4956612 228.51753,73.4956612 C226.112174,73.4956612 226.014973,71.3811983 226.014973,70.0867769 L226.014973,58.4181818 L223.360087,58.4181818 L223.360087,70.406405 C223.360087,72.3921488 223.360087,75.764876 227.818265,75.764876 C229.467777,75.764876 231.234799,74.8840909 231.934064,73.3380165 L231.996447,73.3380165 L231.996447,75.3237603 L234.52947,75.3237603 L234.52947,58.4181818 L234.528019,58.4181818 Z M238.005485,75.3252066 L240.663273,75.3252066 L240.663273,64.6328512 C240.663273,61.8241736 242.817648,60.6252066 244.146542,60.6252066 C244.998136,60.6252066 245.318754,60.7177686 245.568284,60.7510331 L245.568284,58.1665289 C245.315852,58.0392562 244.932852,57.9785124 244.394621,57.9785124 C242.498481,57.9785124 241.484402,59.335124 240.725655,60.9419421 L240.661822,60.9419421 L240.661822,58.4225207 L238.004034,58.4225207 L238.004034,75.3252066 L238.005485,75.3252066 Z M247.531159,75.3252066 L250.186045,75.3252066 L250.186045,58.4181818 L247.531159,58.4181818 L247.531159,75.3252066 Z M247.531159,55.8365702 L250.186045,55.8365702 L250.186045,52.8080579 L247.531159,52.8080579 L247.531159,55.8365702 Z M254.61811,58.4181818 L252.151822,58.4181818 L252.151822,60.5008264 L254.61811,60.5008264 L254.61811,72.1679752 C254.61811,74.3793388 255.281106,75.5117769 258.033193,75.5117769 C259.141572,75.5117769 259.837936,75.3830579 260.184667,75.3208678 L260.184667,73.1442149 C259.900318,73.1745868 259.584053,73.2396694 259.013905,73.2396694 C257.621178,73.2396694 257.270095,72.7002066 257.270095,71.343595 L257.270095,60.4979339 L260.215133,60.4979339 L260.215133,58.4181818 L257.270095,58.4181818 L257.270095,53.4979339 L254.616659,53.4979339 L254.61811,58.4181818 L254.61811,58.4181818 Z M265.595992,75.6708678 L265.085326,77.1504132 C264.770511,78.0673554 264.233731,78.7919421 262.999136,78.7919421 C262.33614,78.7919421 261.825473,78.7615702 261.448277,78.6979339 L261.448277,80.7791322 C261.893659,80.8095041 262.33614,80.8716942 263.379235,80.8716942 C266.576705,80.8716942 267.271617,78.7919421 267.902697,76.4561983 L272.807708,58.4152893 L269.896038,58.4152893 L266.921985,71.9785124 L266.859602,71.9785124 L263.505451,58.4152893 L260.59378,58.4152893 L265.595992,75.6708678 Z M282.553898,75.3252066 L285.335,75.3252066 L285.335,65.8 L288.784902,65.8 C292.613451,65.8 295.300254,63.468595 295.300254,59.2729339 C295.300254,52.8051653 290.270477,52.8051653 288.310504,52.8051653 L282.552447,52.8051653 L282.553898,75.3252066 L282.553898,75.3252066 Z M285.335,55.0772727 L288.468636,55.0772727 C291.219273,55.0772727 292.388583,56.6855372 292.388583,59.1442149 C292.388583,62.1409091 290.681042,63.525 288.654333,63.525 L285.333549,63.525 L285.335,55.0772727 L285.335,55.0772727 Z M297.675144,75.3252066 L300.33003,75.3252066 L300.33003,64.6328512 C300.33003,61.8241736 302.482955,60.6252066 303.811848,60.6252066 C304.664894,60.6252066 304.98261,60.7177686 305.235042,60.7510331 L305.235042,58.1665289 C304.979708,58.0392562 304.601061,57.9785124 304.059928,57.9785124 C302.160886,57.9785124 301.151159,59.335124 300.393864,60.9419421 L300.327129,60.9419421 L300.327129,58.4225207 L297.672242,58.4225207 L297.675144,75.3252066 L297.675144,75.3252066 Z M306.214303,66.8702479 C306.214303,71.6328512 307.41408,75.7634298 312.321992,75.7634298 C317.195087,75.7634298 318.42533,71.6342975 318.42533,66.8702479 C318.42533,62.1090909 317.225553,57.9770661 312.321992,57.9770661 C307.448898,57.9799587 306.214303,62.1090909 306.214303,66.8702479 L306.214303,66.8702479 Z M312.255258,73.6836777 C309.537989,73.6836777 309.001208,70.5307851 309.001208,66.8702479 C309.001208,63.2140496 309.571356,60.0568182 312.255258,60.0568182 C315.105996,60.0568182 315.644227,63.2097107 315.644227,66.8702479 C315.644227,70.5307851 315.07408,73.6836777 312.255258,73.6836777 L312.255258,73.6836777 Z M323.237492,66.8702479 C323.237492,62.835124 323.867121,60.2477273 326.337761,60.2477273 C329.182697,60.2477273 329.755746,63.5915289 329.755746,66.8702479 C329.755746,70.7173554 329.278447,73.4985537 326.337761,73.4985537 C323.86567,73.4985537 323.237492,70.911157 323.237492,66.8702479 L323.237492,66.8702479 Z M332.253951,52.8066116 L329.596163,52.8066116 L329.596163,60.3446281 L329.53378,60.3446281 C328.931716,58.8911157 327.318473,57.9770661 325.800981,57.9770661 C321.023636,57.9770661 320.452038,63.339876 320.452038,66.8716942 C320.452038,72.202686 321.976784,75.7634298 325.99103,75.7634298 C327.827689,75.7634298 329.311814,74.5022727 329.661447,73.2440083 L329.72528,73.2440083 L329.72528,75.3208678 L332.253951,75.3208678 L332.253951,52.8066116 L332.253951,52.8066116 Z M346.899348,58.4181818 L344.241561,58.4181818 L344.241561,70.0867769 C344.241561,72.5469008 342.312053,73.4956612 340.890311,73.4956612 C338.486405,73.4956612 338.390655,71.3811983 338.390655,70.0867769 L338.390655,58.4181818 L335.731417,58.4181818 L335.731417,70.406405 C335.731417,72.3921488 335.731417,75.764876 340.192496,75.764876 C341.839106,75.764876 343.60903,74.8840909 344.305394,73.3380165 L344.370678,73.3380165 L344.370678,75.3237603 L346.900799,75.3237603 L346.900799,58.4181818 L346.899348,58.4181818 Z M361.103716,63.5568182 C361.103716,61.6043388 360.315955,57.9770661 355.696742,57.9770661 C350.474015,57.9770661 349.654337,62.8669421 349.654337,67.0915289 C349.654337,72.892562 351.396697,75.764876 355.53861,75.764876 C359.779174,75.764876 361.105167,72.1390496 361.105167,69.4561983 L358.45028,69.4561983 C358.45028,71.2871901 357.942515,73.685124 355.666277,73.685124 C352.467356,73.685124 352.43689,69.2725207 352.43689,67.0626033 C352.43689,60.8811983 354.111064,60.061157 355.756223,60.061157 C357.781481,60.061157 358.44883,61.9210744 358.44883,63.561157 L361.103716,63.5568182 L361.103716,63.5568182 Z M364.649367,58.4181818 L362.18453,58.4181818 L362.18453,60.5008264 L364.649367,60.5008264 L364.649367,72.1679752 C364.649367,74.3793388 365.312364,75.5117769 368.067352,75.5117769 C369.177182,75.5117769 369.869193,75.3830579 370.215924,75.3208678 L370.215924,73.1442149 C369.933027,73.1745868 369.616761,73.2396694 369.043712,73.2396694 C367.652436,73.2396694 367.302803,72.7002066 367.302803,71.343595 L367.302803,60.4979339 L370.244939,60.4979339 L370.244939,58.4181818 L367.302803,58.4181818 L367.302803,53.4979339 L364.645015,53.4979339 L364.649367,58.4181818 L364.649367,58.4181818 Z M381.98447,63.3702479 C381.955455,61.3830579 381.765405,57.9785124 376.828477,57.9785124 C373.886341,57.9785124 371.417152,59.489876 371.417152,62.6471074 C371.417152,66.1442149 373.538159,66.7458678 375.598235,67.4415289 C377.651057,68.1342975 379.738697,68.6086777 379.738697,70.8764463 C379.738697,73.2714876 377.777273,73.6822314 376.922777,73.6822314 C374.331723,73.6822314 373.761576,71.822314 373.761576,69.7729339 L371.100886,69.7729339 C371.100886,71.5099174 371.167621,75.7663223 376.922777,75.7663223 C380.086879,75.7663223 382.395034,74.0322314 382.395034,70.468595 C382.395034,67.1204545 380.308845,66.4016529 378.25167,65.7030992 C376.165481,65.0088843 374.072038,64.6328512 374.072038,62.6442149 C374.072038,60.2795455 375.975432,60.0582645 376.828477,60.0582645 C378.756534,60.0582645 379.326682,61.2254132 379.326682,63.3702479 L381.98447,63.3702479 L381.98447,63.3702479 Z" id="Shape" fill-rule="nonzero"></path>
                    </g>
                </g>
            </g>
        </g>
    </g>
</svg>