<svg version="1.1" xmlns="http://www.w3.org/2000/svg" xmlns:xlink="http://www.w3.org/1999/xlink" x="0px" y="0px"
	 width="250px" height="103px" viewBox="0 0 250 103" enable-background="new 0 0 250 103" xml:space="preserve">
	 <g>
	 	<path fill="#FFFFFF" d="M168.4,58.8c1.398,0,2.6-1.2,2.6-2.8s-1.2-2.9-2.6-2.9c-1.5,0-2.602,1.301-2.602,2.9
			S166.9,58.8,168.4,58.8L168.4,58.8z M188.2,58.8c1.399,0,2.6-1.2,2.6-2.8s-1.2-2.9-2.6-2.9c-1.5,0-2.7,1.301-2.7,2.9
			S186.7,58.8,188.2,58.8L188.2,58.8z M207.7,58.8c1.5,0,2.7-1.2,2.7-2.8s-1.2-2.9-2.7-2.9c-1.4,0-2.601,1.301-2.601,2.9
			S206.3,58.8,207.7,58.8L207.7,58.8z M248.8,43.2v-0.4c-1-6.3-3.7-11.8-8-16.5c-4.3-4.7-9.399-7.6-15-8.7
			c-1.8-0.4-3.5-0.4-5.3-0.4h-0.9H219.2h-31l7.2-8.1l-7.2-7.8L168.1,23.2L188.2,45l7.2-7.8l-9-9.8H218.6c0.5,0,1,0,1.602,0
			c0.199,0,0.5,0,0.8,0c1.3,0,2.7,0.1,4,0.4c0.3,0.1,0.601,0.2,0.8,0.3h0.102c6.5,1.9,11.6,7.6,13.398,14.8
			c0.102,0,0.102,0.1,0.102,0.2c0.398,1.7,0.6,3.5,0.6,5.3c0,9.3-5.5,17.2-13.1,19.9l0,0c-0.2,0.101-0.4,0.2-0.7,0.3h-0.8L222.5,53
			H212l3.1,15.6H205.7L202.6,53h-10.3l3.101,15.6H186L182.9,53H172.6l3.102,15.6h-9.5L163.3,53H152.9l3.1,15.6h-8.1L152,53v-0.4
			c0.5-1.398,0.7-3.1,1.1-5.6c0.602-3.6-2.1-7.3-7.6-11.4c-3.5-2.2-6.4-4-8.7-5.1l-14.1-15.4l-7.2,7.8l9.8,10.5l-4.6,0.1l-3.2-0.1
			c0,0,0,0.1-0.1,0c-4-2-20.8-10.6-20.8-10.6c-0.1,0-0.3-0.1-0.4-0.2c-1.5-0.6-5.1-2-9.9-2c-4.8,0-8.2,1.4-9.8,2l-0.1,0.1
			c-0.2,0-0.3,0.1-0.5,0.2L57.3,33.3V0H47.1v32.3H10.3V0H0v97.6h10.3v-41l25.2,41h12.4L14.4,43.4h32.7v36.8h10.2v-38L75.9,52.6
			c0.2,0.102,0.3,0.2,0.5,0.2l0.1,0.101c1.7,0.601,5,2,9.8,2c4.8,0,8.4-1.399,10-2.101c0.1,0,0.2-0.1,0.3-0.1
			c0,0,16.7-8.5,20.8-10.6c0.1,0,0.1,0,0.1,0l3.2-0.1l3,0.1l-8.2,8.9l7.2,7.8L137,43.2c4.2,2.5,5.8,4.5,5.2,6.7
			c-0.4,1.1-0.601,2.2-0.8,3.1l-12.2,49h10.5l5.8-22.2H158l4.3,22.2h10.5l-4.3-22.2h9.2L182,102h10.5l-4.3-22.2h9.3l4.3,22.2h10.5
			L207.9,79.8h7.199h2.101l4.3,22.2H232l-4.5-23.1c2-0.7,4.1-1.4,5.9-2.5C236.1,75.1,238.6,73.1,240.8,70.6
			c5.601-6.199,8.4-13.6,8.4-22.3C249.2,46.6,249,44.8,248.8,43.2L248.8,43.2z M5.4,15.8c-1.5,0-2.7-1.3-2.7-2.9
			c0-1.5,1.2-2.8,2.7-2.8c1.4,0,2.6,1.3,2.6,2.8C8,14.5,6.8,15.8,5.4,15.8L5.4,15.8z M102.5,40.2L102.5,40.2l-0.1,0.1
			c-0.1,0-0.2,0.1-0.3,0.1l-8.7,4.5c-1.3,0.5-3.7,1.4-7.1,1.4c-3.3,0-5.7-0.9-7-1.4l-8.2-4.6l0,0c-0.8-0.5-1.4-1.5-1.4-2.6
			c0-1.2,0.7-2.2,1.6-2.6l8-4.5c1.3-0.5,3.7-1.4,7-1.4c3.3,0,5.7,0.9,7.1,1.4l9.1,4.7l0,0c0.8,0.5,1.3,1.4,1.3,2.5
			C103.8,38.8,103.3,39.7,102.5,40.2L102.5,40.2z M135.6,40.2c-1.398,0-2.6-1.3-2.6-2.9c0-1.5,1.2-2.8,2.6-2.8
			c1.5,0,2.7,1.3,2.7,2.8C138.3,38.9,137.1,40.2,135.6,40.2L135.6,40.2z"/>
	</g>
</svg>
