<svg width="306px" height="65px" viewBox="0 0 306 65" version="1.1" xmlns="http://www.w3.org/2000/svg" xmlns:xlink="http://www.w3.org/1999/xlink">
    <g stroke="none" stroke-width="1" fill-rule="evenodd" fill="#FFFFFF">
		<path d="M16.244,1.296 L13.076,1.296 L13.076,11.808 L4.256,11.808 L4.256,1.296 L1.088,1.296 L1.088,27 L4.256,27 L4.256,14.616 L13.076,14.616 L13.076,27 L16.244,27 L16.244,1.296 Z M22.868,13.536 L22.868,13.356 C22.868,12.672 22.868,9.576 26.18,9.576 C28.196,9.576 29.276,10.62 29.276,12.42 C29.276,14.04 29.276,14.652 27.08,15.336 L23.012,16.56 C20.528,17.316 19.376,19.188 19.376,21.888 C19.376,25.344 21.032,27.504 24.632,27.504 C26.432,27.504 28.304,26.46 29.276,24.732 L29.348,24.732 C29.492,27.216 30.932,27.216 32.084,27.216 C32.84,27.216 33.632,27.072 33.848,27.036 L33.848,24.876 C33.704,24.984 33.524,25.056 33.128,25.056 C32.192,25.056 32.192,24.3 32.192,23.508 L32.192,12.744 C32.192,10.728 32.192,7.2 26.324,7.2 C21.716,7.2 19.844,9.144 19.844,13.536 L22.868,13.536 Z M29.168,21.456 C29.168,23.436 27.26,25.128 25.28,25.128 C23.228,25.128 22.544,23.76 22.544,21.816 C22.544,20.124 23.048,19.368 24.02,18.756 C25.388,17.928 28.052,17.676 29.168,16.488 L29.168,21.456 Z M49.004,7.704 L45.98,7.704 L45.98,21.024 C45.98,23.832 43.784,24.912 42.164,24.912 C39.428,24.912 39.32,22.5 39.32,21.024 L39.32,7.704 L36.296,7.704 L36.296,21.384 C36.296,23.652 36.296,27.504 41.372,27.504 C43.244,27.504 45.26,26.496 46.052,24.732 L46.124,24.732 L46.124,27 L49.004,27 L49.004,7.704 Z M64.268,13.356 C64.232,11.088 64.016,7.2 58.4,7.2 C55.052,7.2 52.244,8.928 52.244,12.528 C52.244,16.524 54.656,17.208 56.996,18 C59.336,18.792 61.712,19.332 61.712,21.924 C61.712,24.66 59.48,25.128 58.508,25.128 C55.556,25.128 54.908,23.004 54.908,20.664 L51.884,20.664 C51.884,22.644 51.956,27.504 58.508,27.504 C62.108,27.504 64.736,25.524 64.736,21.456 C64.736,17.64 62.36,16.812 60.02,16.02 C57.644,15.228 55.268,14.796 55.268,12.528 C55.268,9.828 57.428,9.576 58.4,9.576 C60.596,9.576 61.244,10.908 61.244,13.356 L64.268,13.356 Z M70.244,15.336 L70.244,14.616 C70.244,13.464 70.604,9.576 73.772,9.576 C76.436,9.576 77.12,12.132 77.12,14.292 L77.12,15.336 L70.244,15.336 Z M80.288,17.712 L80.288,16.488 C80.288,12.348 79.748,7.2 73.844,7.2 C67.904,7.2 66.968,12.78 66.968,17.604 C66.968,24.228 68.948,27.504 73.664,27.504 C78.92,27.504 80.144,22.716 80.144,20.664 L77.12,20.664 C77.12,22.104 76.724,25.128 73.844,25.128 C70.136,25.128 70.136,20.664 70.136,17.712 L80.288,17.712 Z M83.6,27 L86.624,27 L86.624,14.796 C86.624,11.592 89.072,10.224 90.584,10.224 C91.556,10.224 91.916,10.332 92.204,10.368 L92.204,7.416 C91.916,7.272 91.484,7.2 90.872,7.2 C88.712,7.2 87.56,8.748 86.696,10.584 L86.624,10.584 L86.624,7.704 L83.6,7.704 L83.6,27 Z M103.004,27 L106.172,27 L106.172,14.976 L115.712,14.976 L115.712,12.168 L106.172,12.168 L106.172,4.104 L116.288,4.104 L116.288,1.296 L103.004,1.296 L103.004,27 Z M120.644,15.336 L120.644,14.616 C120.644,13.464 121.004,9.576 124.172,9.576 C126.836,9.576 127.52,12.132 127.52,14.292 L127.52,15.336 L120.644,15.336 Z M130.688,17.712 L130.688,16.488 C130.688,12.348 130.148,7.2 124.244,7.2 C118.304,7.2 117.368,12.78 117.368,17.604 C117.368,24.228 119.348,27.504 124.064,27.504 C129.32,27.504 130.544,22.716 130.544,20.664 L127.52,20.664 C127.52,22.104 127.124,25.128 124.244,25.128 C120.536,25.128 120.536,20.664 120.536,17.712 L130.688,17.712 Z M146.708,7.704 L143.684,7.704 L143.684,21.024 C143.684,23.832 141.488,24.912 139.868,24.912 C137.132,24.912 137.024,22.5 137.024,21.024 L137.024,7.704 L134,7.704 L134,21.384 C134,23.652 134,27.504 139.076,27.504 C140.948,27.504 142.964,26.496 143.756,24.732 L143.828,24.732 L143.828,27 L146.708,27 L146.708,7.704 Z M153.296,15.336 L153.296,14.616 C153.296,13.464 153.656,9.576 156.824,9.576 C159.488,9.576 160.172,12.132 160.172,14.292 L160.172,15.336 L153.296,15.336 Z M163.34,17.712 L163.34,16.488 C163.34,12.348 162.8,7.2 156.896,7.2 C150.956,7.2 150.02,12.78 150.02,17.604 C150.02,24.228 152,27.504 156.716,27.504 C161.972,27.504 163.196,22.716 163.196,20.664 L160.172,20.664 C160.172,22.104 159.776,25.128 156.896,25.128 C153.188,25.128 153.188,20.664 153.188,17.712 L163.34,17.712 Z M166.652,27 L169.676,27 L169.676,14.796 C169.676,11.592 172.124,10.224 173.636,10.224 C174.608,10.224 174.968,10.332 175.256,10.368 L175.256,7.416 C174.968,7.272 174.536,7.2 173.924,7.2 C171.764,7.2 170.612,8.748 169.748,10.584 L169.676,10.584 L169.676,7.704 L166.652,7.704 L166.652,27 Z M188.612,13.356 C188.576,11.088 188.36,7.2 182.744,7.2 C179.396,7.2 176.588,8.928 176.588,12.528 C176.588,16.524 179,17.208 181.34,18 C183.68,18.792 186.056,19.332 186.056,21.924 C186.056,24.66 183.824,25.128 182.852,25.128 C179.9,25.128 179.252,23.004 179.252,20.664 L176.228,20.664 C176.228,22.644 176.3,27.504 182.852,27.504 C186.452,27.504 189.08,25.524 189.08,21.456 C189.08,17.64 186.704,16.812 184.364,16.02 C181.988,15.228 179.612,14.796 179.612,12.528 C179.612,9.828 181.772,9.576 182.744,9.576 C184.94,9.576 185.588,10.908 185.588,13.356 L188.612,13.356 Z M204.164,13.572 C204.164,11.34 203.264,7.2 198.008,7.2 C192.068,7.2 191.132,12.78 191.132,17.604 C191.132,24.228 193.112,27.504 197.828,27.504 C202.652,27.504 204.164,23.364 204.164,20.304 L201.14,20.304 C201.14,22.392 200.564,25.128 197.972,25.128 C194.336,25.128 194.3,20.088 194.3,17.568 C194.3,10.512 196.208,9.576 198.08,9.576 C200.384,9.576 201.14,11.7 201.14,13.572 L204.164,13.572 Z M207.296,27 L210.32,27 L210.32,13.68 C210.32,10.872 212.516,9.792 214.136,9.792 C216.872,9.792 216.98,12.204 216.98,13.68 L216.98,27 L220.004,27 L220.004,13.32 C220.004,11.052 220.004,7.2 215.036,7.2 C213.308,7.2 211.184,8.316 210.392,9.9 L210.32,9.9 L210.32,1.296 L207.296,1.296 L207.296,27 Z M236.672,7.704 L233.648,7.704 L233.648,21.024 C233.648,23.832 231.452,24.912 229.832,24.912 C227.096,24.912 226.988,22.5 226.988,21.024 L226.988,7.704 L223.964,7.704 L223.964,21.384 C223.964,23.652 223.964,27.504 229.04,27.504 C230.912,27.504 232.928,26.496 233.72,24.732 L233.792,24.732 L233.792,27 L236.672,27 L236.672,7.704 Z M241.532,7.704 L238.724,7.704 L238.724,10.08 L241.532,10.08 L241.532,23.4 C241.532,25.92 242.288,27.216 245.42,27.216 C246.68,27.216 247.472,27.072 247.868,27 L247.868,24.516 C247.544,24.552 247.184,24.624 246.536,24.624 C244.952,24.624 244.556,24.012 244.556,22.464 L244.556,10.08 L247.904,10.08 L247.904,7.704 L244.556,7.704 L244.556,2.088 L241.532,2.088 L241.532,7.704 Z M249.38,10.296 L257.696,10.296 L248.948,24.624 L248.948,27 L260.936,27 L260.936,24.408 L252.368,24.408 L261.008,10.224 L261.008,7.704 L249.38,7.704 L249.38,10.296 Z M269,27 L272.312,27 L274.22,19.944 L282.428,19.944 L284.264,27 L287.576,27 L280.664,1.296 L276.416,1.296 L269,27 Z M278.432,4.932 L278.504,4.932 L281.78,17.352 L274.868,17.352 L278.432,4.932 Z M304.892,8.424 C304.856,7.092 304.676,0.792 297.296,0.792 C290.204,0.792 289.016,7.668 289.016,14.148 C289.016,21.06 290.204,27.504 296.9,27.504 C299.708,27.504 301.76,25.704 302.444,23.508 L302.516,23.508 L302.516,27 L304.892,27 L304.892,13.644 L296.936,13.644 L296.936,16.236 L302.012,16.236 C302.012,19.656 301.688,24.912 297.296,24.912 C292.904,24.912 292.328,20.088 292.328,14.148 C292.328,8.208 292.904,3.384 297.296,3.384 C300.428,3.384 301.436,5.724 301.58,8.424 L304.892,8.424 Z"></path>
                <path d="M11.3444681,46.831876 C11.2938965,43.519435 9.72617637,41.8 6.28730635,41.8 C1.71057493,41.8 1.00257228,45.112441 1.00257228,46.7813044 C1.00257228,53.4061863 9.5238899,50.4477467 9.5238899,55.5554801 C9.5238899,57.4772016 8.15845622,58.741492 6.38844959,58.741492 C3.12658023,58.741492 3.00015119,56.5669124 3.00015119,54.5440477 L0.775,54.5440477 C0.775,58.3874907 2.01400464,60.5620703 6.23673474,60.5620703 C8.79060144,60.5620703 11.8501843,59.3736372 11.8501843,55.2014788 C11.8501843,48.6018826 3.32886671,51.6361797 3.32886671,46.5537321 C3.32886671,44.6320106 4.4414423,43.6205782 6.31259216,43.6205782 C8.43660012,43.6205782 9.11931696,44.9354403 9.11931696,46.831876 L11.3444681,46.831876 Z M15.8200563,50.7511764 L15.8200563,50.6247473 C15.8200563,50.144317 15.8200563,47.9697374 18.1463508,47.9697374 C19.5623561,47.9697374 20.3209303,48.7030258 20.3209303,49.9673163 C20.3209303,51.1051777 20.3209303,51.5350365 18.778496,52.0154668 L15.9211996,52.8751843 C14.1764788,53.4061863 13.3673329,54.7210484 13.3673329,56.6174841 C13.3673329,59.0449217 14.5304801,60.5620703 17.059061,60.5620703 C18.3233514,60.5620703 19.6382135,59.8287818 20.3209303,58.615063 L20.3715019,58.615063 C20.4726452,60.3597838 21.4840775,60.3597838 22.2932234,60.3597838 C22.8242254,60.3597838 23.3805132,60.2586405 23.5322281,60.2333547 L23.5322281,58.7162062 C23.4310848,58.7920636 23.3046558,58.8426352 23.0265119,58.8426352 C22.3690809,58.8426352 22.3690809,58.3116333 22.3690809,57.7553455 L22.3690809,50.1948886 C22.3690809,48.7788833 22.3690809,46.300874 18.247494,46.300874 C15.0109104,46.300874 13.6960484,47.6663077 13.6960484,50.7511764 L15.8200563,50.7511764 Z M20.2450729,56.3140543 C20.2450729,57.7047738 18.904925,58.8932069 17.5142055,58.8932069 C16.0729144,58.8932069 15.5924841,57.9323461 15.5924841,56.5669124 C15.5924841,55.3784794 15.9464854,54.8474774 16.6292022,54.4176187 C17.590063,53.8360451 19.4612128,53.6590444 20.2450729,52.8246127 L20.2450729,56.3140543 Z M25.8838083,60.2080689 L28.0078163,60.2080689 L28.0078163,48.3237387 L30.3341107,48.3237387 L30.3341107,46.6548753 L28.0078163,46.6548753 L28.0078163,45.0618694 C28.0078163,44.1262944 28.4629608,43.7722931 29.3732499,43.7722931 L30.3593965,43.7722931 L30.3593965,41.9517149 L28.8169621,41.9517149 C26.7688116,41.9517149 25.8838083,43.0137188 25.8838083,45.0618694 L25.8838083,46.6548753 L23.9115152,46.6548753 L23.9115152,48.3237387 L25.8838083,48.3237387 L25.8838083,60.2080689 Z M33.6465517,52.0154668 L33.6465517,51.5097506 C33.6465517,50.7006048 33.8994097,47.9697374 36.1245609,47.9697374 C37.9957108,47.9697374 38.4761412,49.7650298 38.4761412,51.2821784 L38.4761412,52.0154668 L33.6465517,52.0154668 Z M40.7012924,53.6843302 L40.7012924,52.8246127 C40.7012924,49.9167447 40.3220052,46.300874 36.1751325,46.300874 C32.0029741,46.300874 31.345543,50.2201744 31.345543,53.6084728 C31.345543,58.2610616 32.7362625,60.5620703 36.0487035,60.5620703 C39.7404316,60.5620703 40.6001491,57.1990577 40.6001491,55.7577665 L38.4761412,55.7577665 C38.4761412,56.7691989 38.1979973,58.8932069 36.1751325,58.8932069 C33.5706942,58.8932069 33.5706942,55.7577665 33.5706942,53.6843302 L40.7012924,53.6843302 Z M43.659732,46.6548753 L41.6874389,46.6548753 L41.6874389,48.3237387 L43.659732,48.3237387 L43.659732,57.679488 C43.659732,59.4494947 44.190734,60.3597838 46.3905994,60.3597838 C47.2756027,60.3597838 47.8318905,60.2586405 48.1100344,60.2080689 L48.1100344,58.4633481 C47.8824621,58.4886339 47.629604,58.5392055 47.1744594,58.5392055 C46.0618839,58.5392055 45.78374,58.1093468 45.78374,57.022057 L45.78374,48.3237387 L48.1353202,48.3237387 L48.1353202,46.6548753 L45.78374,46.6548753 L45.78374,42.7102891 L43.659732,42.7102891 L43.659732,46.6548753 Z M52.4339077,60.4862128 L52.0293348,61.6746458 C51.7764767,62.4079343 51.3466179,62.9895079 50.3604714,62.9895079 C49.8294694,62.9895079 49.4248964,62.9642221 49.1214667,62.9136505 L49.1214667,64.5825139 C49.4754681,64.6077997 49.8294694,64.6583713 50.6639011,64.6583713 C53.2177678,64.6583713 53.7740556,62.9895079 54.2797718,61.118358 L58.1990722,46.6548753 L55.8727777,46.6548753 L53.4959117,57.5277732 L53.4453401,57.5277732 L50.7650443,46.6548753 L48.4387499,46.6548753 L52.4339077,60.4862128 Z M75.8738526,46.831876 C75.823281,43.519435 74.2555608,41.8 70.8166908,41.8 C66.2399594,41.8 65.5319568,45.112441 65.5319568,46.7813044 C65.5319568,53.4061863 74.0532744,50.4477467 74.0532744,55.5554801 C74.0532744,57.4772016 72.6878407,58.741492 70.9178341,58.741492 C67.6559647,58.741492 67.5295357,56.5669124 67.5295357,54.5440477 L65.3043845,54.5440477 C65.3043845,58.3874907 66.5433891,60.5620703 70.7661192,60.5620703 C73.3199859,60.5620703 76.3795688,59.3736372 76.3795688,55.2014788 C76.3795688,48.6018826 67.8582512,51.6361797 67.8582512,46.5537321 C67.8582512,44.6320106 68.9708268,43.6205782 70.8419766,43.6205782 C72.9659846,43.6205782 73.6487014,44.9354403 73.6487014,46.831876 L75.8738526,46.831876 Z M78.6805774,60.2080689 L80.8045854,60.2080689 L80.8045854,46.6548753 L78.6805774,46.6548753 L78.6805774,60.2080689 Z M78.6805774,44.581439 L80.8045854,44.581439 L80.8045854,42.1540013 L78.6805774,42.1540013 L78.6805774,44.581439 Z M87.9098977,48.1214522 C90.1856205,48.1214522 90.6407651,50.801748 90.6407651,53.4314721 C90.6407651,56.2129111 90.1856205,58.3874907 87.8846119,58.3874907 C85.7606039,58.3874907 85.4318884,55.6313375 85.4318884,53.4314721 C85.4318884,50.1948886 85.9376046,48.1214522 87.9098977,48.1214522 L87.9098977,48.1214522 Z M92.638344,46.6548753 L90.6154792,46.6548753 L90.6154792,48.3743103 L90.5649076,48.3743103 C90.2867637,47.3123064 89.0983307,46.300874 87.6317538,46.300874 C84.1928838,46.300874 83.2067372,49.7650298 83.2067372,53.4314721 C83.2067372,55.2267646 83.4595953,60.2080689 87.4041815,60.2080689 C88.7443294,60.2080689 90.0086198,59.5253521 90.4637644,58.3874907 L90.514336,58.3874907 L90.514336,60.1574973 C90.514336,61.0930722 90.6154792,63.1917944 87.8846119,63.1917944 C86.7720363,63.1917944 85.8111755,62.711364 85.7100323,61.4723594 L83.5860244,61.4723594 C83.9400257,64.8606578 87.201895,64.8606578 88.0363267,64.8606578 C90.7671941,64.8606578 92.638344,63.3940809 92.638344,59.3483514 L92.638344,46.6548753 Z M95.419783,60.2080689 L97.5437909,60.2080689 L97.5437909,50.8523196 C97.5437909,48.8800265 99.0862253,48.1214522 100.224087,48.1214522 C102.145808,48.1214522 102.221666,49.8156014 102.221666,50.8523196 L102.221666,60.2080689 L104.345674,60.2080689 L104.345674,50.5994615 C104.345674,49.0064556 104.345674,46.300874 100.780374,46.300874 C99.4655124,46.300874 98.0495071,47.0088766 97.4932193,48.2478813 L97.4426477,48.2478813 L97.4426477,46.6548753 L95.419783,46.6548753 L95.419783,60.2080689 Z M115.066857,50.6247473 C115.041571,49.0317414 114.889856,46.300874 110.94527,46.300874 C108.593689,46.300874 106.621396,47.5145928 106.621396,50.0431737 C106.621396,52.8498985 108.315546,53.3303289 109.959123,53.8866167 C111.602701,54.4429045 113.271564,54.8221916 113.271564,56.6427699 C113.271564,58.5644913 111.703844,58.8932069 111.021127,58.8932069 C108.947691,58.8932069 108.492546,57.4013441 108.492546,55.7577665 L106.368538,55.7577665 C106.368538,57.148486 106.41911,60.5620703 111.021127,60.5620703 C113.549708,60.5620703 115.395572,59.1713508 115.395572,56.3140543 C115.395572,53.6337586 113.726709,53.052185 112.083131,52.4958972 C110.414268,51.9396094 108.745404,51.6361797 108.745404,50.0431737 C108.745404,48.146738 110.262553,47.9697374 110.94527,47.9697374 C112.487704,47.9697374 112.942849,48.9053123 112.942849,50.6247473 L115.066857,50.6247473 Z M128.114334,48.7535975 L127.684475,48.146738 C127.128187,47.3123064 126.597185,46.4020172 126.597185,45.5928713 C126.597185,44.5561532 127.305188,43.8228647 128.392478,43.8228647 C129.454482,43.8228647 130.213056,44.5561532 130.213056,45.5928713 C130.213056,46.8065902 129.40391,47.5145928 128.594764,48.2984529 L128.114334,48.7535975 Z M131.502632,56.9967712 C130.642915,57.9829177 129.682054,58.741492 128.266049,58.741492 C126.496042,58.741492 124.953608,57.5783448 124.953608,55.3784794 C124.953608,53.4820437 126.091469,52.1166101 127.53276,51.2568926 L131.502632,56.9967712 Z M129.049909,50.0937453 L129.70734,49.5374575 C130.946345,48.5007394 132.185349,47.362878 132.185349,45.5928713 C132.185349,43.1401479 130.642915,42.1540013 128.367192,42.1540013 C126.319042,42.1540013 124.624892,43.5700066 124.624892,45.6940146 C124.624892,46.958305 125.282323,47.9697374 125.939754,48.9811697 L126.496042,49.8914589 L125.18118,50.8776054 C123.714603,52.0154668 122.728457,53.6843302 122.728457,55.5554801 C122.728457,57.1990577 123.689317,60.5620703 128.089048,60.5620703 C130.036055,60.5620703 131.148631,59.8287818 132.539351,58.5139197 L133.753069,60.2080689 L136.155221,60.2080689 L133.828927,56.9461996 C134.511644,56.0611963 135.295504,53.0016134 135.295504,51.6867513 L133.323211,51.6867513 C133.196782,53.2797573 132.969209,54.2911896 132.615208,55.2014788 L129.049909,50.0937453 Z M153.577144,46.831876 C153.526572,43.519435 151.958852,41.8 148.519982,41.8 C143.94325,41.8 143.235248,45.112441 143.235248,46.7813044 C143.235248,53.4061863 151.756565,50.4477467 151.756565,55.5554801 C151.756565,57.4772016 150.391132,58.741492 148.621125,58.741492 C145.359256,58.741492 145.232827,56.5669124 145.232827,54.5440477 L143.007675,54.5440477 C143.007675,58.3874907 144.24668,60.5620703 148.46941,60.5620703 C151.023277,60.5620703 154.08286,59.3736372 154.08286,55.2014788 C154.08286,48.6018826 145.561542,51.6361797 145.561542,46.5537321 C145.561542,44.6320106 146.674118,43.6205782 148.545268,43.6205782 C150.669276,43.6205782 151.351992,44.9354403 151.351992,46.831876 L153.577144,46.831876 Z M158.103303,52.0154668 L158.103303,51.5097506 C158.103303,50.7006048 158.356161,47.9697374 160.581313,47.9697374 C162.452463,47.9697374 162.932893,49.7650298 162.932893,51.2821784 L162.932893,52.0154668 L158.103303,52.0154668 Z M165.158044,53.6843302 L165.158044,52.8246127 C165.158044,49.9167447 164.778757,46.300874 160.631884,46.300874 C156.459726,46.300874 155.802295,50.2201744 155.802295,53.6084728 C155.802295,58.2610616 157.193014,60.5620703 160.505455,60.5620703 C164.197183,60.5620703 165.056901,57.1990577 165.056901,55.7577665 L162.932893,55.7577665 C162.932893,56.7691989 162.654749,58.8932069 160.631884,58.8932069 C158.027446,58.8932069 158.027446,55.7577665 158.027446,53.6843302 L165.158044,53.6843302 Z M176.056228,50.7764622 C176.056228,49.208742 175.424083,46.300874 171.732354,46.300874 C167.560196,46.300874 166.902765,50.2201744 166.902765,53.6084728 C166.902765,58.2610616 168.293484,60.5620703 171.605925,60.5620703 C174.994224,60.5620703 176.056228,57.6542022 176.056228,55.5049085 L173.93222,55.5049085 C173.93222,56.9714854 173.527647,58.8932069 171.707069,58.8932069 C169.153202,58.8932069 169.127916,55.3531936 169.127916,53.583187 C169.127916,48.6271684 170.468064,47.9697374 171.782926,47.9697374 C173.401218,47.9697374 173.93222,49.4616001 173.93222,50.7764622 L176.056228,50.7764622 Z M187.181984,46.6548753 L185.057976,46.6548753 L185.057976,56.0106246 C185.057976,57.9829177 183.515541,58.741492 182.37768,58.741492 C180.455958,58.741492 180.380101,57.0473428 180.380101,56.0106246 L180.380101,46.6548753 L178.256093,46.6548753 L178.256093,56.2634827 C178.256093,57.8564887 178.256093,60.5620703 181.821392,60.5620703 C183.136254,60.5620703 184.55226,59.8540676 185.108547,58.615063 L185.159119,58.615063 L185.159119,60.2080689 L187.181984,60.2080689 L187.181984,46.6548753 Z M189.963423,60.2080689 L192.087431,60.2080689 L192.087431,51.6361797 C192.087431,49.3857427 193.806866,48.4248819 194.86887,48.4248819 C195.551586,48.4248819 195.804445,48.5007394 196.006731,48.5260252 L196.006731,46.4525888 C195.804445,46.3514456 195.501015,46.300874 195.071156,46.300874 C193.554008,46.300874 192.744862,47.3881638 192.138002,48.67774 L192.087431,48.67774 L192.087431,46.6548753 L189.963423,46.6548753 L189.963423,60.2080689 Z M197.574451,60.2080689 L199.698459,60.2080689 L199.698459,46.6548753 L197.574451,46.6548753 L197.574451,60.2080689 Z M197.574451,44.581439 L199.698459,44.581439 L199.698459,42.1540013 L197.574451,42.1540013 L197.574451,44.581439 Z M203.238472,46.6548753 L201.266179,46.6548753 L201.266179,48.3237387 L203.238472,48.3237387 L203.238472,57.679488 C203.238472,59.4494947 203.769474,60.3597838 205.96934,60.3597838 C206.854343,60.3597838 207.410631,60.2586405 207.688775,60.2080689 L207.688775,58.4633481 C207.461202,58.4886339 207.208344,58.5392055 206.7532,58.5392055 C205.640624,58.5392055 205.36248,58.1093468 205.36248,57.022057 L205.36248,48.3237387 L207.714061,48.3237387 L207.714061,46.6548753 L205.36248,46.6548753 L205.36248,42.7102891 L203.238472,42.7102891 L203.238472,46.6548753 Z M212.012648,60.4862128 L211.608075,61.6746458 C211.355217,62.4079343 210.925358,62.9895079 209.939212,62.9895079 C209.40821,62.9895079 209.003637,62.9642221 208.700207,62.9136505 L208.700207,64.5825139 C209.054208,64.6077997 209.40821,64.6583713 210.242641,64.6583713 C212.796508,64.6583713 213.352796,62.9895079 213.858512,61.118358 L217.777813,46.6548753 L215.451518,46.6548753 L213.074652,57.5277732 L213.02408,57.5277732 L210.343785,46.6548753 L208.01749,46.6548753 L212.012648,60.4862128 Z M225.565842,60.2080689 L227.790993,60.2080689 L227.790993,52.5717546 L230.547146,52.5717546 C233.606729,52.5717546 235.756023,50.7006048 235.756023,47.3375922 C235.756023,42.1540013 231.735579,42.1540013 230.167859,42.1540013 L225.565842,42.1540013 L225.565842,60.2080689 Z M227.790993,43.9745796 L230.294288,43.9745796 C232.494153,43.9745796 233.429728,45.2641558 233.429728,47.2364489 C233.429728,49.6386008 232.064295,50.7511764 230.446003,50.7511764 L227.790993,50.7511764 L227.790993,43.9745796 Z M237.652458,60.2080689 L239.776466,60.2080689 L239.776466,51.6361797 C239.776466,49.3857427 241.495901,48.4248819 242.557905,48.4248819 C243.240622,48.4248819 243.49348,48.5007394 243.695767,48.5260252 L243.695767,46.4525888 C243.49348,46.3514456 243.190051,46.300874 242.760192,46.300874 C241.243043,46.300874 240.433897,47.3881638 239.827038,48.67774 L239.776466,48.67774 L239.776466,46.6548753 L237.652458,46.6548753 L237.652458,60.2080689 Z M244.479627,53.4314721 C244.479627,57.2496293 245.440488,60.5620703 249.359788,60.5620703 C253.253803,60.5620703 254.239949,57.2496293 254.239949,53.4314721 C254.239949,49.613315 253.279088,46.300874 249.359788,46.300874 C245.465773,46.300874 244.479627,49.613315 244.479627,53.4314721 L244.479627,53.4314721 Z M249.309216,58.8932069 C247.134637,58.8932069 246.704778,56.364626 246.704778,53.4314721 C246.704778,50.4983183 247.159923,47.9697374 249.309216,47.9697374 C251.584939,47.9697374 252.014798,50.4983183 252.014798,53.4314721 C252.014798,56.364626 251.559653,58.8932069 249.309216,58.8932069 L249.309216,58.8932069 Z M258.083392,53.4314721 C258.083392,50.1948886 258.589108,48.1214522 260.561401,48.1214522 C262.837124,48.1214522 263.292269,50.801748 263.292269,53.4314721 C263.292269,56.5163408 262.912982,58.741492 260.561401,58.741492 C258.589108,58.741492 258.083392,56.6680557 258.083392,53.4314721 L258.083392,53.4314721 Z M265.289848,42.1540013 L263.16584,42.1540013 L263.16584,48.1973097 L263.115268,48.1973097 C262.634838,47.0341625 261.345261,46.300874 260.131543,46.300874 C256.313385,46.300874 255.858241,50.5994615 255.858241,53.4314721 C255.858241,57.7047738 257.07196,60.5620703 260.283257,60.5620703 C261.749834,60.5620703 262.938267,59.5506379 263.216411,58.5392055 L263.266983,58.5392055 L263.266983,60.2080689 L265.289848,60.2080689 L265.289848,42.1540013 Z M276.997177,46.6548753 L274.873169,46.6548753 L274.873169,56.0106246 C274.873169,57.9829177 273.330735,58.741492 272.192873,58.741492 C270.271152,58.741492 270.195295,57.0473428 270.195295,56.0106246 L270.195295,46.6548753 L268.071287,46.6548753 L268.071287,56.2634827 C268.071287,57.8564887 268.071287,60.5620703 271.636586,60.5620703 C272.951448,60.5620703 274.367453,59.8540676 274.923741,58.615063 L274.974312,58.615063 L274.974312,60.2080689 L276.997177,60.2080689 L276.997177,46.6548753 Z M288.350505,50.7764622 C288.350505,49.208742 287.71836,46.300874 284.026632,46.300874 C279.854474,46.300874 279.197042,50.2201744 279.197042,53.6084728 C279.197042,58.2610616 280.587762,60.5620703 283.900203,60.5620703 C287.288501,60.5620703 288.350505,57.6542022 288.350505,55.5049085 L286.226497,55.5049085 C286.226497,56.9714854 285.821924,58.8932069 284.001346,58.8932069 C281.447479,58.8932069 281.422194,55.3531936 281.422194,53.583187 C281.422194,48.6271684 282.762342,47.9697374 284.077204,47.9697374 C285.695495,47.9697374 286.226497,49.4616001 286.226497,50.7764622 L288.350505,50.7764622 Z M291.182516,46.6548753 L289.210223,46.6548753 L289.210223,48.3237387 L291.182516,48.3237387 L291.182516,57.679488 C291.182516,59.4494947 291.713518,60.3597838 293.913383,60.3597838 C294.798387,60.3597838 295.354674,60.2586405 295.632818,60.2080689 L295.632818,58.4633481 C295.405246,58.4886339 295.152388,58.5392055 294.697243,58.5392055 C293.584668,58.5392055 293.306524,58.1093468 293.306524,57.022057 L293.306524,48.3237387 L295.658104,48.3237387 L295.658104,46.6548753 L293.306524,46.6548753 L293.306524,42.7102891 L291.182516,42.7102891 L291.182516,46.6548753 Z M305.039139,50.6247473 C305.013853,49.0317414 304.862139,46.300874 300.917552,46.300874 C298.565972,46.300874 296.593679,47.5145928 296.593679,50.0431737 C296.593679,52.8498985 298.287828,53.3303289 299.931406,53.8866167 C301.574983,54.4429045 303.243847,54.8221916 303.243847,56.6427699 C303.243847,58.5644913 301.676127,58.8932069 300.99341,58.8932069 C298.919973,58.8932069 298.464829,57.4013441 298.464829,55.7577665 L296.340821,55.7577665 C296.340821,57.148486 296.391393,60.5620703 300.99341,60.5620703 C303.521991,60.5620703 305.367855,59.1713508 305.367855,56.3140543 C305.367855,53.6337586 303.698991,53.052185 302.055414,52.4958972 C300.38655,51.9396094 298.717687,51.6361797 298.717687,50.0431737 C298.717687,48.146738 300.234836,47.9697374 300.917552,47.9697374 C302.459987,47.9697374 302.915131,48.9053123 302.915131,50.6247473 L305.039139,50.6247473 Z"></path>
    </g>
</svg>