<svg version="1.1" id="Ebene_1" xmlns="http://www.w3.org/2000/svg" xmlns:xlink="http://www.w3.org/1999/xlink" x="0px" y="0px"
	 width="306px" height="65px" viewBox="0 0 306 65" enable-background="new 0 0 306 65" xml:space="preserve">
<g>
	<path fill="#2C3E50" d="M16.244,1.296h-3.168v10.512h-8.82V1.296H1.088V27h3.168V14.616h8.82V27h3.168V1.296z M22.868,13.536v-0.18
		c0-0.684,0-3.78,3.312-3.78c2.016,0,3.096,1.044,3.096,2.844c0,1.62,0,2.232-2.195,2.916l-4.068,1.224
		c-2.484,0.756-3.636,2.628-3.636,5.328c0,3.456,1.656,5.616,5.256,5.616c1.8,0,3.672-1.044,4.644-2.772h0.072
		c0.145,2.484,1.584,2.484,2.736,2.484c0.756,0,1.548-0.144,1.764-0.18v-2.16c-0.144,0.108-0.324,0.18-0.72,0.18
		c-0.937,0-0.937-0.756-0.937-1.548V12.744c0-2.016,0-5.544-5.867-5.544c-4.608,0-6.48,1.944-6.48,6.336H22.868z M29.168,21.456
		c0,1.98-1.908,3.672-3.889,3.672c-2.052,0-2.735-1.368-2.735-3.312c0-1.692,0.504-2.448,1.476-3.06
		c1.368-0.828,4.032-1.08,5.148-2.268V21.456z M49.004,7.704H45.98v13.32c0,2.808-2.195,3.888-3.815,3.888
		c-2.736,0-2.845-2.412-2.845-3.888V7.704h-3.023v13.68c0,2.268,0,6.12,5.076,6.12c1.872,0,3.888-1.008,4.68-2.772h0.072V27h2.88
		V7.704z M64.268,13.356C64.232,11.088,64.016,7.2,58.4,7.2c-3.348,0-6.155,1.728-6.155,5.328c0,3.996,2.411,4.68,4.752,5.472
		c2.34,0.792,4.716,1.332,4.716,3.924c0,2.736-2.232,3.204-3.204,3.204c-2.952,0-3.6-2.124-3.6-4.464h-3.024
		c0,1.98,0.072,6.84,6.624,6.84c3.6,0,6.228-1.98,6.228-6.048c0-3.816-2.376-4.644-4.716-5.436
		c-2.376-0.792-4.752-1.224-4.752-3.492c0-2.7,2.16-2.952,3.132-2.952c2.196,0,2.845,1.332,2.845,3.78H64.268z M70.244,15.336v-0.72
		c0-1.152,0.359-5.04,3.527-5.04c2.664,0,3.349,2.556,3.349,4.716v1.044H70.244z M80.288,17.712v-1.224
		c0-4.14-0.54-9.288-6.444-9.288c-5.94,0-6.876,5.58-6.876,10.404c0,6.624,1.979,9.9,6.696,9.9c5.256,0,6.479-4.788,6.479-6.84
		H77.12c0,1.44-0.396,4.464-3.276,4.464c-3.708,0-3.708-4.464-3.708-7.416H80.288z M83.6,27h3.024V14.796
		c0-3.204,2.447-4.572,3.96-4.572c0.972,0,1.332,0.108,1.62,0.144V7.416C91.916,7.272,91.484,7.2,90.872,7.2
		c-2.16,0-3.312,1.548-4.177,3.384h-0.071v-2.88H83.6V27z M103.004,27h3.168V14.976h9.54v-2.808h-9.54V4.104h10.116V1.296h-13.284
		V27z M120.644,15.336v-0.72c0-1.152,0.36-5.04,3.528-5.04c2.664,0,3.348,2.556,3.348,4.716v1.044H120.644z M130.688,17.712v-1.224
		c0-4.14-0.54-9.288-6.443-9.288c-5.94,0-6.876,5.58-6.876,10.404c0,6.624,1.979,9.9,6.695,9.9c5.256,0,6.48-4.788,6.48-6.84h-3.024
		c0,1.44-0.396,4.464-3.275,4.464c-3.708,0-3.708-4.464-3.708-7.416H130.688z M146.708,7.704h-3.024v13.32
		c0,2.808-2.196,3.888-3.815,3.888c-2.736,0-2.845-2.412-2.845-3.888V7.704H134v13.68c0,2.268,0,6.12,5.076,6.12
		c1.871,0,3.888-1.008,4.68-2.772h0.072V27h2.88V7.704z M153.296,15.336v-0.72c0-1.152,0.359-5.04,3.528-5.04
		c2.663,0,3.348,2.556,3.348,4.716v1.044H153.296z M163.34,17.712v-1.224c0-4.14-0.54-9.288-6.444-9.288
		c-5.939,0-6.876,5.58-6.876,10.404c0,6.624,1.98,9.9,6.696,9.9c5.256,0,6.479-4.788,6.479-6.84h-3.023
		c0,1.44-0.396,4.464-3.276,4.464c-3.708,0-3.708-4.464-3.708-7.416H163.34z M166.652,27h3.024V14.796
		c0-3.204,2.448-4.572,3.96-4.572c0.972,0,1.332,0.108,1.62,0.144V7.416c-0.288-0.144-0.72-0.216-1.332-0.216
		c-2.16,0-3.312,1.548-4.176,3.384h-0.072v-2.88h-3.024V27z M188.612,13.356c-0.035-2.268-0.252-6.156-5.867-6.156
		c-3.349,0-6.156,1.728-6.156,5.328c0,3.996,2.412,4.68,4.752,5.472s4.716,1.332,4.716,3.924c0,2.736-2.231,3.204-3.204,3.204
		c-2.952,0-3.6-2.124-3.6-4.464h-3.024c0,1.98,0.072,6.84,6.624,6.84c3.601,0,6.229-1.98,6.229-6.048
		c0-3.816-2.376-4.644-4.717-5.436c-2.376-0.792-4.752-1.224-4.752-3.492c0-2.7,2.16-2.952,3.133-2.952
		c2.195,0,2.844,1.332,2.844,3.78H188.612z M204.164,13.572c0-2.232-0.9-6.372-6.156-6.372c-5.94,0-6.876,5.58-6.876,10.404
		c0,6.624,1.979,9.9,6.696,9.9c4.823,0,6.336-4.14,6.336-7.2h-3.024c0,2.088-0.576,4.824-3.168,4.824
		c-3.636,0-3.672-5.04-3.672-7.56c0-7.056,1.908-7.992,3.78-7.992c2.304,0,3.06,2.124,3.06,3.996H204.164z M207.296,27h3.023V13.68
		c0-2.808,2.196-3.888,3.816-3.888c2.736,0,2.844,2.412,2.844,3.888V27h3.024V13.32c0-2.268,0-6.12-4.968-6.12
		c-1.729,0-3.853,1.116-4.645,2.7h-0.072V1.296h-3.023V27z M236.672,7.704h-3.024v13.32c0,2.808-2.195,3.888-3.815,3.888
		c-2.736,0-2.845-2.412-2.845-3.888V7.704h-3.023v13.68c0,2.268,0,6.12,5.076,6.12c1.872,0,3.888-1.008,4.68-2.772h0.072V27h2.88
		V7.704z M241.532,7.704h-2.809v2.376h2.809V23.4c0,2.52,0.756,3.816,3.888,3.816c1.26,0,2.052-0.144,2.448-0.216v-2.484
		c-0.324,0.036-0.685,0.108-1.332,0.108c-1.584,0-1.98-0.612-1.98-2.16V10.08h3.348V7.704h-3.348V2.088h-3.023V7.704z
		 M249.38,10.296h8.315l-8.748,14.328V27h11.988v-2.592h-8.567l8.64-14.184v-2.52H249.38V10.296z M269,27h3.312l1.908-7.056h8.208
		L284.264,27h3.312l-6.912-25.704h-4.248L269,27z M278.432,4.932h0.072l3.275,12.42h-6.911L278.432,4.932z M304.892,8.424
		c-0.036-1.332-0.216-7.632-7.596-7.632c-7.092,0-8.28,6.876-8.28,13.356c0,6.912,1.188,13.356,7.884,13.356
		c2.808,0,4.86-1.8,5.544-3.996h0.072V27h2.376V13.644h-7.956v2.592h5.076c0,3.42-0.324,8.676-4.716,8.676
		c-4.393,0-4.968-4.824-4.968-10.764s0.575-10.764,4.968-10.764c3.132,0,4.14,2.34,4.283,5.04H304.892z"/>
	<path fill="#2C3E50" d="M11.344,46.832C11.294,43.52,9.726,41.8,6.287,41.8c-4.577,0-5.285,3.312-5.285,4.981
		c0,6.625,8.521,3.666,8.521,8.774c0,1.921-1.365,3.187-3.135,3.187C3.126,58.742,3,56.566,3,54.544H0.775
		c0,3.844,1.239,6.019,5.462,6.019c2.554,0,5.613-1.189,5.613-5.361c0-6.6-8.521-3.564-8.521-8.647c0-1.922,1.112-2.933,2.983-2.933
		c2.124,0,2.807,1.314,2.807,3.211H11.344z M15.82,50.751v-0.126c0-0.48,0-2.655,2.327-2.655c1.416,0,2.174,0.733,2.174,1.997
		c0,1.139,0,1.568-1.542,2.049l-2.857,0.859c-1.745,0.531-2.554,1.846-2.554,3.742c0,2.428,1.163,3.945,3.691,3.945
		c1.265,0,2.579-0.734,3.262-1.947h0.051c0.102,1.744,1.112,1.744,1.922,1.744c0.531,0,1.087-0.101,1.239-0.126v-1.517
		c-0.102,0.075-0.228,0.126-0.506,0.126c-0.657,0-0.657-0.531-0.657-1.087v-7.561c0-1.416,0-3.895-4.122-3.895
		c-3.236,0-4.551,1.365-4.551,4.45H15.82z M20.245,56.314c0,1.391-1.341,2.578-2.731,2.578c-1.441,0-1.922-0.96-1.922-2.326
		c0-1.188,0.354-1.719,1.037-2.148c0.961-0.582,2.832-0.759,3.616-1.594V56.314z M25.884,60.208h2.124V48.324h2.326v-1.67h-2.326
		v-1.592c0-0.936,0.455-1.29,1.365-1.29h0.986v-1.821h-1.543c-2.048,0-2.933,1.062-2.933,3.111v1.592h-1.973v1.67h1.973V60.208z
		 M33.647,52.016V51.51c0-0.809,0.253-3.54,2.478-3.54c1.871,0,2.352,1.796,2.352,3.312v0.733H33.647z M40.701,53.685v-0.86
		c0-2.907-0.38-6.523-4.526-6.523c-4.172,0-4.829,3.92-4.829,7.308c0,4.653,1.391,6.954,4.703,6.954
		c3.691,0,4.551-3.363,4.551-4.805h-2.124c0,1.012-0.278,3.135-2.301,3.135c-2.604,0-2.604-3.135-2.604-5.208H40.701z
		 M43.659,46.654h-1.972v1.67h1.972v9.355c0,1.77,0.531,2.68,2.731,2.68c0.885,0,1.441-0.101,1.719-0.151v-1.745
		c-0.228,0.025-0.48,0.076-0.936,0.076c-1.112,0-1.391-0.43-1.391-1.518v-8.697h2.352v-1.67h-2.352v-3.943h-2.124V46.654z
		 M52.434,60.486l-0.404,1.188c-0.253,0.733-0.683,1.314-1.669,1.314c-0.531,0-0.936-0.024-1.239-0.075v1.668
		c0.354,0.025,0.708,0.076,1.543,0.076c2.554,0,3.109-1.669,3.615-3.54l3.92-14.464h-2.327l-2.376,10.873h-0.051l-2.681-10.873
		h-2.326L52.434,60.486z M75.874,46.832c-0.051-3.312-1.619-5.032-5.058-5.032c-4.577,0-5.285,3.312-5.285,4.981
		c0,6.625,8.521,3.666,8.521,8.774c0,1.921-1.365,3.187-3.135,3.187c-3.263,0-3.389-2.176-3.389-4.198h-2.226
		c0,3.844,1.239,6.019,5.462,6.019c2.554,0,5.613-1.189,5.613-5.361c0-6.6-8.521-3.564-8.521-8.647c0-1.922,1.112-2.933,2.983-2.933
		c2.124,0,2.807,1.314,2.807,3.211H75.874z M78.681,60.208h2.124V46.654h-2.124V60.208z M78.681,44.582h2.124v-2.428h-2.124V44.582z
		 M87.909,48.121c2.276,0,2.731,2.681,2.731,5.311c0,2.781-0.455,4.956-2.756,4.956c-2.124,0-2.453-2.757-2.453-4.956
		C85.432,50.195,85.938,48.121,87.909,48.121L87.909,48.121z M92.638,46.654h-2.022v1.721h-0.051
		c-0.278-1.062-1.467-2.074-2.933-2.074c-3.439,0-4.426,3.465-4.426,7.131c0,1.795,0.253,6.776,4.198,6.776
		c1.34,0,2.604-0.683,3.06-1.82h0.05v1.77c0,0.937,0.102,3.034-2.629,3.034c-1.113,0-2.074-0.48-2.175-1.719h-2.124
		c0.354,3.389,3.615,3.389,4.45,3.389c2.73,0,4.602-1.467,4.602-5.514V46.654z M95.42,60.208h2.124v-9.355
		c0-1.973,1.542-2.731,2.68-2.731c1.922,0,1.998,1.694,1.998,2.731v9.355h2.124V50.6c0-1.594,0-4.299-3.565-4.299
		c-1.315,0-2.731,0.708-3.287,1.947h-0.051v-1.594H95.42V60.208z M115.067,50.625c-0.025-1.594-0.177-4.324-4.121-4.324
		c-2.352,0-4.324,1.214-4.324,3.742c0,2.807,1.694,3.287,3.338,3.844s3.312,0.936,3.312,2.756c0,1.922-1.568,2.25-2.251,2.25
		c-2.073,0-2.528-1.491-2.528-3.135h-2.124c0,1.391,0.051,4.805,4.652,4.805c2.529,0,4.375-1.391,4.375-4.248
		c0-2.681-1.669-3.262-3.312-3.818c-1.669-0.557-3.338-0.859-3.338-2.453c0-1.896,1.518-2.073,2.2-2.073
		c1.542,0,1.997,0.936,1.997,2.655H115.067z M128.115,48.754l-0.43-0.607c-0.557-0.834-1.088-1.744-1.088-2.554
		c0-1.036,0.708-1.771,1.796-1.771c1.062,0,1.82,0.734,1.82,1.771c0,1.214-0.81,1.922-1.618,2.706L128.115,48.754z M131.502,56.996
		c-0.859,0.986-1.82,1.746-3.236,1.746c-1.77,0-3.312-1.164-3.312-3.363c0-1.896,1.138-3.262,2.579-4.122L131.502,56.996z
		 M129.05,50.094l0.657-0.557c1.239-1.036,2.479-2.174,2.479-3.944c0-2.452-1.543-3.438-3.818-3.438
		c-2.049,0-3.742,1.416-3.742,3.539c0,1.266,0.657,2.276,1.314,3.288l0.557,0.91l-1.315,0.985c-1.467,1.139-2.452,2.808-2.452,4.679
		c0,1.644,0.961,5.007,5.36,5.007c1.947,0,3.06-0.734,4.45-2.049l1.214,1.694h2.402l-2.326-3.262
		c0.683-0.886,1.466-3.944,1.466-5.26h-1.972c-0.127,1.593-0.354,2.604-0.708,3.515L129.05,50.094z M153.577,46.832
		c-0.051-3.312-1.618-5.032-5.058-5.032c-4.576,0-5.284,3.312-5.284,4.981c0,6.625,8.521,3.666,8.521,8.774
		c0,1.921-1.365,3.187-3.135,3.187c-3.262,0-3.389-2.176-3.389-4.198h-2.225c0,3.844,1.238,6.019,5.461,6.019
		c2.555,0,5.614-1.189,5.614-5.361c0-6.6-8.521-3.564-8.521-8.647c0-1.922,1.112-2.933,2.983-2.933c2.124,0,2.807,1.314,2.807,3.211
		H153.577z M158.104,52.016V51.51c0-0.809,0.252-3.54,2.478-3.54c1.871,0,2.352,1.796,2.352,3.312v0.733H158.104z M165.158,53.685
		v-0.86c0-2.907-0.38-6.523-4.526-6.523c-4.172,0-4.83,3.92-4.83,7.308c0,4.653,1.391,6.954,4.703,6.954
		c3.692,0,4.552-3.363,4.552-4.805h-2.124c0,1.012-0.278,3.135-2.301,3.135c-2.604,0-2.604-3.135-2.604-5.208H165.158z
		 M176.056,50.776c0-1.567-0.632-4.476-4.323-4.476c-4.173,0-4.83,3.92-4.83,7.308c0,4.653,1.391,6.954,4.703,6.954
		c3.389,0,4.45-2.908,4.45-5.058h-2.124c0,1.467-0.404,3.388-2.225,3.388c-2.554,0-2.579-3.539-2.579-5.31
		c0-4.956,1.34-5.613,2.654-5.613c1.619,0,2.149,1.491,2.149,2.807H176.056z M187.182,46.654h-2.124v9.356
		c0,1.972-1.542,2.731-2.681,2.731c-1.921,0-1.997-1.695-1.997-2.731v-9.356h-2.124v9.609c0,1.593,0,4.299,3.565,4.299
		c1.314,0,2.73-0.709,3.287-1.947h0.051v1.593h2.022V46.654z M189.963,60.208h2.124v-8.571c0-2.251,1.72-3.212,2.781-3.212
		c0.684,0,0.936,0.076,1.139,0.101v-2.072c-0.203-0.102-0.506-0.152-0.936-0.152c-1.518,0-2.327,1.088-2.934,2.377h-0.051v-2.023
		h-2.124V60.208z M197.574,60.208h2.124V46.654h-2.124V60.208z M197.574,44.582h2.124v-2.428h-2.124V44.582z M203.239,46.654h-1.973
		v1.67h1.973v9.355c0,1.77,0.531,2.68,2.73,2.68c0.886,0,1.441-0.101,1.72-0.151v-1.745c-0.228,0.025-0.48,0.076-0.936,0.076
		c-1.112,0-1.391-0.43-1.391-1.518v-8.697h2.352v-1.67h-2.352v-3.943h-2.124V46.654z M212.013,60.486l-0.405,1.188
		c-0.253,0.733-0.683,1.314-1.669,1.314c-0.53,0-0.936-0.024-1.238-0.075v1.668c0.354,0.025,0.708,0.076,1.542,0.076
		c2.554,0,3.11-1.669,3.616-3.54l3.919-14.464h-2.326l-2.377,10.873h-0.051l-2.68-10.873h-2.326L212.013,60.486z M225.566,60.208
		h2.226v-7.636h2.756c3.06,0,5.209-1.871,5.209-5.234c0-5.184-4.021-5.184-5.588-5.184h-4.603V60.208z M227.791,43.975h2.503
		c2.2,0,3.136,1.289,3.136,3.262c0,2.402-1.365,3.515-2.984,3.515h-2.654V43.975z M237.653,60.208h2.124v-8.571
		c0-2.251,1.72-3.212,2.781-3.212c0.683,0,0.936,0.076,1.138,0.101v-2.072c-0.202-0.102-0.506-0.152-0.936-0.152
		c-1.517,0-2.326,1.088-2.933,2.377h-0.051v-2.023h-2.124V60.208z M244.48,53.432c0,3.818,0.961,7.131,4.88,7.131
		c3.895,0,4.88-3.312,4.88-7.131s-0.96-7.131-4.88-7.131C245.466,46.301,244.48,49.613,244.48,53.432L244.48,53.432z
		 M249.309,58.893c-2.174,0-2.604-2.527-2.604-5.461s0.456-5.462,2.604-5.462c2.276,0,2.706,2.528,2.706,5.462
		S251.56,58.893,249.309,58.893L249.309,58.893z M258.083,53.432c0-3.236,0.506-5.311,2.479-5.311c2.275,0,2.73,2.681,2.73,5.311
		c0,3.085-0.379,5.311-2.73,5.311C258.589,58.742,258.083,56.668,258.083,53.432L258.083,53.432z M265.29,42.154h-2.124v6.043
		h-0.051c-0.48-1.163-1.771-1.896-2.984-1.896c-3.817,0-4.272,4.299-4.272,7.131c0,4.273,1.213,7.131,4.425,7.131
		c1.467,0,2.655-1.012,2.933-2.023h0.051v1.669h2.023V42.154z M276.997,46.654h-2.124v9.356c0,1.972-1.543,2.731-2.681,2.731
		c-1.922,0-1.997-1.695-1.997-2.731v-9.356h-2.124v9.609c0,1.593,0,4.299,3.565,4.299c1.314,0,2.73-0.709,3.287-1.947h0.05v1.593
		h2.023V46.654z M288.351,50.776c0-1.567-0.633-4.476-4.324-4.476c-4.172,0-4.829,3.92-4.829,7.308c0,4.653,1.391,6.954,4.703,6.954
		c3.388,0,4.45-2.908,4.45-5.058h-2.124c0,1.467-0.405,3.388-2.226,3.388c-2.554,0-2.579-3.539-2.579-5.31
		c0-4.956,1.34-5.613,2.655-5.613c1.618,0,2.149,1.491,2.149,2.807H288.351z M291.183,46.654h-1.973v1.67h1.973v9.355
		c0,1.77,0.53,2.68,2.73,2.68c0.885,0,1.441-0.101,1.72-0.151v-1.745c-0.228,0.025-0.48,0.076-0.936,0.076
		c-1.113,0-1.391-0.43-1.391-1.518v-8.697h2.352v-1.67h-2.352v-3.943h-2.124V46.654z M305.039,50.625
		c-0.025-1.594-0.178-4.324-4.122-4.324c-2.352,0-4.323,1.214-4.323,3.742c0,2.807,1.693,3.287,3.337,3.844s3.312,0.936,3.312,2.756
		c0,1.922-1.567,2.25-2.25,2.25c-2.073,0-2.528-1.491-2.528-3.135h-2.124c0,1.391,0.051,4.805,4.652,4.805
		c2.528,0,4.374-1.391,4.374-4.248c0-2.681-1.669-3.262-3.312-3.818c-1.669-0.557-3.338-0.859-3.338-2.453
		c0-1.896,1.518-2.073,2.2-2.073c1.543,0,1.998,0.936,1.998,2.655H305.039z"/>
</g>
</svg>
