<?xml version="1.0" encoding="UTF-8"?>
<svg width="264px" height="185px" viewBox="0 0 264 185" version="1.1" xmlns="http://www.w3.org/2000/svg" xmlns:xlink="http://www.w3.org/1999/xlink">
    <!-- Generator: Sketch 43.2 (39069) - http://www.bohemiancoding.com/sketch -->
    <title>logo_slogan</title>
    <desc>Created with Sketch.</desc>
    <defs></defs>
    <g id="Page-1" stroke="none" stroke-width="1" fill="none" fill-rule="evenodd">
        <g id="logo_slogan" fill-rule="nonzero" fill="#000000">
            <path d="M178.211159,62.2280218 C179.690478,62.2280218 180.960103,60.9567582 180.960103,59.2595559 C180.960103,57.5689065 179.688839,56.1911583 178.211159,56.1911583 C176.62208,56.1911583 175.457301,57.5705447 175.457301,59.2595559 C175.457301,60.9567582 176.623718,62.2280218 178.211159,62.2280218 L178.211159,62.2280218 Z M199.165711,62.2280218 C200.645029,62.2280218 201.917931,60.9567582 201.917931,59.2595559 C201.917931,57.5689065 200.646667,56.1911583 199.165711,56.1911583 C197.578269,56.1911583 196.308644,57.5705447 196.308644,59.2595559 C196.307006,60.9567582 197.578269,62.2280218 199.165711,62.2280218 L199.165711,62.2280218 Z M219.802446,62.2280218 C221.389887,62.2280218 222.661151,60.9567582 222.661151,59.2595559 C222.661151,57.5689065 221.389887,56.1911583 219.802446,56.1911583 C218.319851,56.1911583 217.048588,57.5705447 217.048588,59.2595559 C217.048588,60.9567582 218.321489,62.2280218 219.802446,62.2280218 L219.802446,62.2280218 Z M263.294075,45.7196165 L263.294075,45.2969541 C262.239057,38.6293735 259.381991,32.8087559 254.82936,27.8334629 C250.280006,22.8598082 244.885327,19.7914106 238.956587,18.6266318 C237.052968,18.2039694 235.252557,18.2039694 233.3473,18.2039694 L232.393852,18.2039694 L231.972828,18.2039694 L199.164072,18.2039694 L206.785101,9.63113176 L199.164072,1.37938645 L177.891705,24.5553723 L199.164072,47.6265117 L206.785101,39.3698518 L197.262092,29.0031564 L231.337197,29.0031564 L233.034399,29.0031564 L233.881362,29.0031564 C235.257472,29.0031564 236.740066,29.1047265 238.1129,29.4241806 C238.433992,29.529027 238.753446,29.63715 238.963139,29.7419964 L239.069624,29.7419964 C245.946898,31.7504618 251.344853,37.785687 253.248472,45.4034388 C253.353318,45.4034388 253.353318,45.5082853 253.353318,45.6131318 C253.775981,47.4135423 253.987312,49.3187994 253.987312,51.2256947 C253.987312,61.0632429 248.166694,69.4231112 240.123004,72.2834541 L240.123004,72.2834541 C239.913311,72.3883006 239.698703,72.4947853 239.380887,72.5979935 L238.533924,72.5979935 L235.460612,56.0895882 L224.3518,56.0895882 L227.631529,72.5979935 L217.687496,72.5979935 L214.407767,56.0895882 L203.508648,56.0895882 L206.788377,72.5979935 L196.842706,72.5979935 L193.564615,56.0895882 L182.66222,56.0895882 L185.943587,72.5979935 L175.891431,72.5979935 L172.821395,56.0895882 L161.815792,56.0895882 L165.097159,72.5979935 L156.522683,72.5979935 L160.859068,56.0895882 L160.859068,55.6669259 C161.389853,54.1859694 161.601184,52.3839206 162.022208,49.7398235 C162.659478,45.9309476 159.799135,42.0123106 153.978518,37.6742877 C150.274488,35.3480065 147.206091,33.4411112 144.770048,32.2779706 L129.850722,15.9808965 L122.228056,24.2326418 L132.596389,35.3463682 L127.730858,35.4479383 L124.344644,35.3463682 C124.344644,35.3463682 124.344644,35.4479383 124.238159,35.3463682 C120.004983,33.2281418 102.225314,24.1277953 102.225314,24.1277953 C102.118829,24.1277953 101.90586,24.0229488 101.801014,23.9148259 C100.211934,23.2808324 96.4030583,21.7982377 91.3245571,21.7982377 C86.2460559,21.7982377 82.646873,23.2808324 80.9545853,23.9148259 L80.8481006,24.0213106 C80.6367694,24.0213106 80.5302847,24.1261571 80.3189536,24.2310036 L60.6340277,35.2382453 L60.6340277,0 L49.84467,0 L49.84467,34.1799512 L10.8991188,34.1799512 L10.8991188,0.00163822619 L0,0.00163822619 L0,103.286885 L10.8991188,103.286885 L10.8991188,59.8951877 L37.5694412,103.283608 L50.6899947,103.283608 L15.23878,45.926033 L49.8463082,45.926033 L49.8463082,84.8748606 L60.6389424,84.8748606 L60.6389424,44.6613223 L80.3238682,55.6685641 C80.5351994,55.7734106 80.6416841,55.8749806 80.8546535,55.8749806 L80.9595,55.9847418 C82.7582724,56.6170971 86.2493324,58.1029682 91.3294718,58.1029682 C96.4096112,58.1029682 100.220125,56.6187353 101.914051,55.8749806 C102.017259,55.8749806 102.123744,55.7750488 102.233505,55.7750488 C102.233505,55.7750488 119.906689,46.7779106 124.244712,44.5548376 L124.349559,44.5548376 L127.735772,44.4499912 L130.910655,44.5548376 L122.229694,53.973 L129.850722,62.2280218 L144.983018,45.71634 C149.427525,48.3620753 151.119813,50.4803018 150.485819,52.8098594 C150.063157,53.973 149.850188,55.1361406 149.640495,56.0863118 L136.727996,107.946 L147.841722,107.946 L153.978518,84.45056 L167.208832,84.45056 L171.759825,107.946 L182.871913,107.946 L178.320921,84.45056 L188.056899,84.45056 L192.604615,107.946 L203.716703,107.946 L199.167349,84.45056 L209.01145,84.45056 L213.559166,107.946 L224.672892,107.946 L220.018692,84.45056 L227.636444,84.45056 L229.859516,84.45056 L234.412147,107.946 L245.522597,107.946 L240.760274,83.4987506 C242.8785,82.7599106 245.098296,82.0145177 247.003554,80.85793 C249.862258,79.4785435 252.504717,77.3635935 254.832636,74.71622 C260.761377,68.1551241 263.72329,60.3227647 263.72329,51.1159335 C263.720014,49.3171612 263.508682,47.4119041 263.294075,45.7196165 L263.294075,45.7196165 Z M5.71577117,16.7213747 C4.12996822,16.7213747 2.8587047,15.3452647 2.8587047,13.6513388 C2.8587047,12.0638977 4.12996822,10.6894259 5.71577117,10.6894259 C7.19672765,10.6894259 8.46799117,12.0638977 8.46799117,13.6513388 C8.46799117,15.3452647 7.19672765,16.7213747 5.71577117,16.7213747 L5.71577117,16.7213747 Z M108.470232,42.5414577 L108.470232,42.5414577 L108.365386,42.6463041 C108.260539,42.6463041 108.154055,42.7511506 108.049208,42.7511506 L98.8423771,47.5134741 C97.4695435,48.040983 94.9270165,48.9944306 91.3278335,48.9944306 C87.8367735,48.9944306 85.2975229,48.0426212 83.9214129,47.5134741 L75.2437288,42.6446659 L75.2437288,42.6446659 C74.3967659,42.1155188 73.7644106,41.0555865 73.7644106,39.8940841 C73.7644106,38.6228206 74.5048888,37.5645265 75.4583365,37.1402259 L83.9230512,32.3779024 C85.2991612,31.8503936 87.8384118,30.9002224 91.3294718,30.9002224 C94.8205318,30.9002224 97.3597824,31.8520318 98.8423771,32.3779024 L108.470232,37.3515571 L108.470232,37.3515571 C109.318834,37.8807042 109.844704,38.83579 109.844704,39.9956542 C109.846342,41.0605012 109.317195,42.0139488 108.470232,42.5414577 L108.470232,42.5414577 Z M143.500423,42.5414577 C142.021105,42.5414577 140.748203,41.1669859 140.748203,39.47306 C140.748203,37.8856188 142.019466,36.5078706 143.500423,36.5078706 C145.089502,36.5078706 146.359128,37.8856188 146.359128,39.47306 C146.359128,41.1702623 145.087864,42.5414577 143.500423,42.5414577 L143.500423,42.5414577 Z" id="Shape"></path>
            <g id="Group" transform="translate(0.000000, 128.000000)">
                <path d="M14.24,1.275 L11.508,1.275 L11.508,10.342 L3.902,10.342 L3.902,1.275 L1.17,1.275 L1.17,23.443 L3.902,23.443 L3.902,12.762 L11.508,12.762 L11.508,23.443 L14.24,23.443 L14.24,1.275 Z M19.952,11.83 L19.952,11.674 C19.952,11.084 19.952,8.415 22.808,8.415 C24.546,8.415 25.476,9.315 25.476,10.866 C25.476,12.264 25.476,12.792 23.583,13.383 L20.075,14.438 C17.932,15.091 16.938,16.704 16.938,19.034 C16.938,22.014 18.367,23.875 21.471,23.875 C23.024,23.875 24.638,22.976 25.475,21.485 L25.539,21.485 C25.663,23.625 26.904,23.625 27.897,23.625 C28.549,23.625 29.23,23.503 29.419,23.471 L29.419,21.607 C29.294,21.701 29.138,21.763 28.797,21.763 C27.989,21.763 27.989,21.111 27.989,20.429 L27.989,11.147 C27.989,9.409 27.989,6.366 22.927,6.366 C18.953,6.366 17.339,8.042 17.339,11.827 L19.952,11.83 L19.952,11.83 Z M25.386,18.662 C25.386,20.37 23.741,21.828 22.033,21.828 C20.264,21.828 19.674,20.649 19.674,18.972 C19.674,17.514 20.109,16.862 20.947,16.334 C22.126,15.62 24.423,15.402 25.387,14.378 L25.386,18.662 L25.386,18.662 Z M42.491,6.801 L39.885,6.801 L39.885,18.289 C39.885,20.71 37.991,21.642 36.594,21.642 C34.235,21.642 34.141,19.562 34.141,18.289 L34.141,6.801 L31.534,6.801 L31.534,18.597 C31.534,20.554 31.534,23.875 35.91,23.875 C37.525,23.875 39.264,23.007 39.948,21.484 L40.01,21.484 L40.01,23.442 L42.494,23.442 L42.491,6.801 L42.491,6.801 Z M55.655,11.676 C55.626,9.721 55.439,6.366 50.597,6.366 C47.711,6.366 45.287,7.857 45.287,10.961 C45.287,14.407 47.369,14.999 49.386,15.68 C51.404,16.363 53.453,16.829 53.453,19.064 C53.453,21.425 51.527,21.827 50.688,21.827 C48.142,21.827 47.585,19.996 47.585,17.978 L44.978,17.978 C44.978,19.685 45.038,23.875 50.689,23.875 C53.793,23.875 56.062,22.168 56.062,18.66 C56.062,15.369 54.011,14.655 51.992,13.972 C49.944,13.289 47.892,12.915 47.892,10.961 C47.892,8.632 49.756,8.414 50.594,8.414 C52.488,8.414 53.047,9.563 53.047,11.674 L55.655,11.676 L55.655,11.676 Z M60.808,13.384 L60.808,12.762 C60.808,11.768 61.117,8.416 63.851,8.416 C66.15,8.416 66.74,10.619 66.74,12.482 L66.74,13.383 L60.808,13.383 L60.808,13.384 Z M69.473,15.432 L69.473,14.377 C69.473,10.807 69.007,6.366 63.915,6.366 C58.792,6.366 57.986,11.178 57.986,15.339 C57.986,21.051 59.693,23.877 63.761,23.877 C68.293,23.877 69.348,19.747 69.348,17.978 L66.743,17.978 C66.743,19.22 66.402,21.828 63.916,21.828 C60.718,21.828 60.718,17.978 60.718,15.432 L69.473,15.432 L69.473,15.432 Z M72.327,23.443 L74.935,23.443 L74.935,12.917 C74.935,10.154 77.049,8.976 78.351,8.976 C79.193,8.976 79.498,9.069 79.749,9.101 L79.749,6.554 C79.499,6.429 79.129,6.367 78.6,6.367 C76.738,6.367 75.746,7.702 74.998,9.285 L74.936,9.285 L74.936,6.801 L72.328,6.801 L72.328,23.443 L72.327,23.443 Z M89.062,23.443 L91.795,23.443 L91.795,13.073 L100.022,13.073 L100.022,10.651 L91.795,10.651 L91.795,3.695 L100.518,3.695 L100.518,1.275 L89.062,1.275 L89.062,23.443 Z M104.275,13.384 L104.275,12.762 C104.275,11.768 104.584,8.416 107.319,8.416 C109.616,8.416 110.206,10.619 110.206,12.482 L110.206,13.383 L104.275,13.383 L104.275,13.384 Z M112.938,15.432 L112.938,14.377 C112.938,10.807 112.474,6.366 107.38,6.366 C102.258,6.366 101.452,11.178 101.452,15.339 C101.452,21.051 103.158,23.877 107.224,23.877 C111.757,23.877 112.813,19.747 112.813,17.978 L110.207,17.978 C110.207,19.22 109.862,21.828 107.382,21.828 C104.181,21.828 104.181,17.978 104.181,15.432 L112.938,15.432 L112.938,15.432 Z M126.755,6.801 L124.146,6.801 L124.146,18.289 C124.146,20.71 122.254,21.642 120.857,21.642 C118.496,21.642 118.403,19.562 118.403,18.289 L118.403,6.801 L115.798,6.801 L115.798,18.597 C115.798,20.554 115.798,23.875 120.175,23.875 C121.787,23.875 123.527,23.007 124.212,21.484 L124.273,21.484 L124.273,23.442 L126.756,23.442 L126.756,6.801 L126.755,6.801 Z M132.434,13.384 L132.434,12.762 C132.434,11.768 132.745,8.416 135.479,8.416 C137.777,8.416 138.363,10.619 138.363,12.482 L138.363,13.383 L132.434,13.383 L132.434,13.384 Z M141.098,15.432 L141.098,14.377 C141.098,10.807 140.632,6.366 135.54,6.366 C130.416,6.366 129.61,11.178 129.61,15.339 C129.61,21.051 131.316,23.877 135.383,23.877 C139.917,23.877 140.973,19.747 140.973,17.978 L138.366,17.978 C138.366,19.22 138.023,21.828 135.543,21.828 C132.345,21.828 132.345,17.978 132.345,15.432 L141.098,15.432 L141.098,15.432 Z M143.955,23.443 L146.56,23.443 L146.56,12.917 C146.56,10.154 148.672,8.976 149.977,8.976 C150.815,8.976 151.121,9.069 151.373,9.101 L151.373,6.554 C151.121,6.429 150.752,6.367 150.227,6.367 C148.362,6.367 147.37,7.702 146.622,9.285 L146.562,9.285 L146.562,6.801 L143.956,6.801 L143.956,23.443 L143.955,23.443 Z M162.893,11.676 C162.863,9.721 162.674,6.366 157.832,6.366 C154.947,6.366 152.522,7.857 152.522,10.961 C152.522,14.407 154.604,14.999 156.622,15.68 C158.638,16.363 160.688,16.829 160.688,19.064 C160.688,21.425 158.763,21.827 157.924,21.827 C155.377,21.827 154.82,19.996 154.82,17.978 L152.214,17.978 C152.214,19.685 152.273,23.875 157.925,23.875 C161.029,23.875 163.296,22.168 163.296,18.66 C163.296,15.369 161.247,14.655 159.23,13.972 C157.18,13.289 155.131,12.915 155.131,10.961 C155.131,8.632 156.992,8.414 157.83,8.414 C159.725,8.414 160.283,9.563 160.283,11.674 L162.893,11.676 L162.893,11.676 Z M176.305,11.861 C176.305,9.937 175.529,6.367 170.997,6.367 C165.873,6.367 165.064,11.179 165.064,15.341 C165.064,21.053 166.772,23.878 170.84,23.878 C174.998,23.878 176.304,20.307 176.304,17.668 L173.697,17.668 C173.697,19.469 173.201,21.828 170.966,21.828 C167.83,21.828 167.797,17.483 167.797,15.31 C167.797,9.224 169.444,8.417 171.058,8.417 C173.044,8.417 173.698,10.247 173.698,11.862 L176.305,11.861 L176.305,11.861 Z M179.004,23.443 L181.611,23.443 L181.611,11.956 C181.611,9.535 183.507,8.602 184.904,8.602 C187.261,8.602 187.355,10.682 187.355,11.956 L187.355,23.443 L189.962,23.443 L189.962,11.644 C189.962,9.689 189.962,6.367 185.678,6.367 C184.189,6.367 182.357,7.327 181.674,8.695 L181.611,8.695 L181.611,1.275 L179.006,1.275 L179.006,23.443 L179.004,23.443 Z M204.339,6.801 L201.732,6.801 L201.732,18.289 C201.732,20.71 199.836,21.642 198.442,21.642 C196.081,21.642 195.99,19.562 195.99,18.289 L195.99,6.801 L193.382,6.801 L193.382,18.597 C193.382,20.554 193.382,23.875 197.759,23.875 C199.371,23.875 201.111,23.007 201.797,21.484 L201.859,21.484 L201.859,23.442 L204.341,23.442 L204.339,6.801 L204.339,6.801 Z M208.531,6.801 L206.11,6.801 L206.11,8.851 L208.531,8.851 L208.531,20.337 C208.531,22.511 209.182,23.627 211.884,23.627 C212.971,23.627 213.655,23.505 213.996,23.443 L213.996,21.301 C213.716,21.331 213.405,21.394 212.847,21.394 C211.481,21.394 211.141,20.866 211.141,19.53 L211.141,8.852 L214.028,8.852 L214.028,6.802 L211.141,6.802 L211.141,1.959 L208.534,1.959 L208.531,6.801 L208.531,6.801 Z M215.299,9.037 L222.472,9.037 L214.926,21.394 L214.926,23.443 L225.265,23.443 L225.265,21.209 L217.876,21.209 L225.329,8.975 L225.329,6.802 L215.3,6.802 L215.299,9.037 L215.299,9.037 Z M232.221,23.443 L235.075,23.443 L236.722,17.357 L243.798,17.357 L245.382,23.443 L248.237,23.443 L242.276,1.275 L238.613,1.275 L232.221,23.443 Z M240.354,4.411 L240.417,4.411 L243.24,15.121 L237.28,15.121 L240.354,4.411 Z M263.172,7.422 C263.142,6.274 262.989,0.841 256.623,0.841 C250.506,0.841 249.479,6.77 249.479,12.358 C249.479,18.318 250.504,23.877 256.282,23.877 C258.701,23.877 260.473,22.324 261.061,20.43 L261.123,20.43 L261.123,23.443 L263.171,23.443 L263.171,11.923 L256.313,11.923 L256.313,14.157 L260.689,14.157 C260.689,17.109 260.41,21.641 256.622,21.641 C252.835,21.641 252.338,17.48 252.338,12.357 C252.338,7.234 252.836,3.074 256.622,3.074 C259.323,3.074 260.191,5.093 260.316,7.421 L263.172,7.421 L263.172,7.422 Z" id="Shape"></path>
                <path d="M10.014,40.545 C9.971,37.69 8.619,36.205 5.652,36.205 C1.705,36.205 1.095,39.061 1.095,40.5 C1.095,46.215 8.444,43.664 8.444,48.067 C8.444,49.725 7.267,50.819 5.741,50.819 C2.929,50.819 2.82,48.94 2.82,47.197 L0.9,47.197 C0.9,50.512 1.969,52.387 5.611,52.387 C7.813,52.387 10.451,51.362 10.451,47.764 C10.451,42.072 3.104,44.691 3.104,40.306 C3.104,38.647 4.064,37.778 5.677,37.778 C7.509,37.778 8.099,38.912 8.099,40.545 L10.014,40.545 L10.014,40.545 L10.014,40.545 Z M13.874,43.927 L13.874,43.817 C13.874,43.402 13.874,41.528 15.881,41.528 C17.102,41.528 17.755,42.163 17.755,43.251 C17.755,44.231 17.755,44.605 16.424,45.019 L13.961,45.763 C12.456,46.218 11.756,47.353 11.756,48.989 C11.756,51.082 12.758,52.389 14.941,52.389 C16.032,52.389 17.167,51.757 17.753,50.712 L17.798,50.712 C17.885,52.215 18.758,52.215 19.455,52.215 C19.912,52.215 20.392,52.129 20.522,52.106 L20.522,50.798 C20.436,50.863 20.325,50.905 20.084,50.905 C19.519,50.905 19.519,50.447 19.519,49.968 L19.519,43.449 C19.519,42.229 19.519,40.091 15.965,40.091 C13.173,40.091 12.038,41.268 12.038,43.929 L13.873,43.929 L13.873,43.927 L13.874,43.927 Z M17.689,48.724 C17.689,49.925 16.534,50.948 15.334,50.948 C14.091,50.948 13.677,50.119 13.677,48.939 C13.677,47.915 13.984,47.458 14.572,47.089 C15.401,46.586 17.015,46.431 17.691,45.714 L17.689,48.724 L17.689,48.724 Z M22.554,52.082 L24.385,52.082 L24.385,41.833 L26.39,41.833 L26.39,40.394 L24.385,40.394 L24.385,39.022 C24.385,38.213 24.777,37.908 25.561,37.908 L26.412,37.908 L26.412,36.335 L25.083,36.335 C23.315,36.335 22.553,37.252 22.553,39.022 L22.553,40.393 L20.851,40.393 L20.851,41.833 L22.553,41.833 L22.554,52.082 L22.554,52.082 Z M29.248,45.017 L29.248,44.58 C29.248,43.883 29.468,41.527 31.385,41.527 C32.998,41.527 33.413,43.076 33.413,44.383 L33.413,45.016 L29.248,45.016 L29.248,45.017 Z M35.332,46.456 L35.332,45.714 C35.332,43.205 35.004,40.087 31.428,40.087 C27.829,40.087 27.264,43.468 27.264,46.389 C27.264,50.4 28.463,52.386 31.321,52.386 C34.505,52.386 35.246,49.485 35.246,48.242 L33.415,48.242 C33.415,49.115 33.176,50.947 31.431,50.947 C29.185,50.947 29.185,48.242 29.185,46.455 L35.332,46.456 L35.332,46.456 Z M37.882,40.392 L36.183,40.392 L36.183,41.832 L37.882,41.832 L37.882,49.899 C37.882,51.428 38.34,52.211 40.238,52.211 C41,52.211 41.481,52.122 41.72,52.079 L41.72,50.574 C41.523,50.595 41.305,50.64 40.913,50.64 C39.952,50.64 39.712,50.267 39.712,49.329 L39.712,41.83 L41.74,41.83 L41.74,40.392 L39.712,40.392 L39.712,36.99 L37.881,36.99 L37.881,40.392 L37.882,40.392 Z M45.45,52.321 L45.101,53.344 C44.883,53.978 44.513,54.479 43.661,54.479 C43.204,54.479 42.854,54.458 42.593,54.414 L42.593,55.853 C42.898,55.874 43.203,55.917 43.921,55.917 C46.123,55.917 46.605,54.479 47.041,52.864 L50.422,40.39 L48.414,40.39 L46.364,49.768 L46.32,49.768 L44.01,40.394 L42.004,40.394 L45.45,52.321 Z M65.666,40.545 C65.622,37.69 64.269,36.205 61.303,36.205 C57.357,36.205 56.745,39.061 56.745,40.5 C56.745,46.215 64.094,43.664 64.094,48.067 C64.094,49.725 62.917,50.819 61.391,50.819 C58.579,50.819 58.469,48.94 58.469,47.197 L56.55,47.197 C56.55,50.512 57.617,52.387 61.261,52.387 C63.463,52.387 66.099,51.362 66.099,47.764 C66.099,42.072 58.75,44.691 58.75,40.306 C58.75,38.647 59.71,37.778 61.324,37.778 C63.155,37.778 63.745,38.912 63.745,40.545 L65.663,40.545 L65.666,40.545 L65.666,40.545 Z M68.086,52.082 L69.918,52.082 L69.918,40.392 L68.086,40.392 L68.086,52.082 Z M68.086,38.607 L69.918,38.607 L69.918,36.513 L68.086,36.513 L68.086,38.607 Z M76.045,41.657 C78.008,41.657 78.402,43.969 78.402,46.238 C78.402,48.635 78.008,50.511 76.025,50.511 C74.194,50.511 73.909,48.132 73.909,46.238 C73.908,43.446 74.343,41.657 76.045,41.657 L76.045,41.657 Z M80.123,40.392 L78.378,40.392 L78.378,41.875 L78.334,41.875 C78.095,40.959 77.069,40.086 75.806,40.086 C72.841,40.086 71.99,43.074 71.99,46.237 C71.99,47.783 72.208,52.08 75.611,52.08 C76.765,52.08 77.858,51.492 78.251,50.51 L78.293,50.51 L78.293,52.038 C78.293,52.845 78.38,54.653 76.025,54.653 C75.065,54.653 74.235,54.236 74.149,53.169 L72.319,53.169 C72.623,56.094 75.438,56.094 76.156,56.094 C78.512,56.094 80.125,54.83 80.125,51.338 L80.125,40.392 L80.123,40.392 Z M82.522,52.082 L84.353,52.082 L84.353,44.015 C84.353,42.315 85.684,41.658 86.664,41.658 C88.323,41.658 88.387,43.119 88.387,44.015 L88.387,52.082 L90.218,52.082 L90.218,43.795 C90.218,42.422 90.218,40.089 87.144,40.089 C86.01,40.089 84.787,40.698 84.309,41.768 L84.267,41.768 L84.267,40.396 L82.521,40.396 L82.521,52.083 L82.522,52.083 L82.522,52.082 Z M99.466,43.816 C99.444,42.442 99.313,40.088 95.91,40.088 C93.883,40.088 92.181,41.133 92.181,43.316 C92.181,45.734 93.644,46.15 95.06,46.631 C96.481,47.11 97.918,47.438 97.918,49.006 C97.918,50.662 96.564,50.946 95.978,50.946 C94.189,50.946 93.795,49.66 93.795,48.243 L91.966,48.243 C91.966,49.444 92.009,52.387 95.977,52.387 C98.156,52.387 99.748,51.188 99.748,48.724 C99.748,46.409 98.31,45.912 96.894,45.429 C95.454,44.949 94.016,44.689 94.016,43.314 C94.016,41.679 95.322,41.526 95.912,41.526 C97.243,41.526 97.636,42.333 97.636,43.816 L99.466,43.816 L99.466,43.816 Z M110.718,42.202 L110.348,41.679 C109.87,40.961 109.412,40.176 109.412,39.476 C109.412,38.583 110.021,37.949 110.958,37.949 C111.875,37.949 112.531,38.584 112.531,39.476 C112.531,40.525 111.832,41.132 111.133,41.812 L110.718,42.202 Z M113.641,49.312 C112.898,50.163 112.07,50.818 110.848,50.818 C109.324,50.818 107.994,49.813 107.994,47.915 C107.994,46.28 108.976,45.105 110.219,44.361 L113.641,49.312 Z M111.525,43.357 L112.089,42.878 C113.158,41.984 114.229,41.003 114.229,39.478 C114.229,37.362 112.896,36.512 110.935,36.512 C109.168,36.512 107.708,37.733 107.708,39.563 C107.708,40.657 108.273,41.527 108.842,42.399 L109.325,43.185 L108.188,44.034 C106.922,45.017 106.073,46.457 106.073,48.068 C106.073,49.486 106.9,52.388 110.695,52.388 C112.374,52.388 113.333,51.754 114.531,50.619 L115.58,52.082 L117.652,52.082 L115.641,49.27 C116.235,48.505 116.909,45.867 116.909,44.733 L115.207,44.733 C115.1,46.106 114.905,46.981 114.6,47.765 L111.525,43.357 Z M132.678,40.545 C132.634,37.69 131.283,36.205 128.318,36.205 C124.37,36.205 123.759,39.061 123.759,40.5 C123.759,46.215 131.109,43.664 131.109,48.067 C131.109,49.725 129.932,50.819 128.407,50.819 C125.592,50.819 125.482,48.94 125.482,47.197 L123.565,47.197 C123.565,50.512 124.631,52.387 128.274,52.387 C130.48,52.387 133.117,51.362 133.117,47.764 C133.117,42.072 125.766,44.691 125.766,40.306 C125.766,38.647 126.727,37.778 128.341,37.778 C130.172,37.778 130.759,38.912 130.759,40.545 L132.678,40.545 L132.678,40.545 L132.678,40.545 Z M136.582,45.017 L136.582,44.58 C136.582,43.883 136.8,41.527 138.719,41.527 C140.332,41.527 140.75,43.076 140.75,44.383 L140.75,45.016 L136.582,45.016 L136.582,45.017 Z M142.665,46.456 L142.665,45.714 C142.665,43.205 142.339,40.087 138.762,40.087 C135.163,40.087 134.598,43.468 134.598,46.389 C134.598,50.4 135.801,52.386 138.655,52.386 C141.839,52.386 142.58,49.485 142.58,48.242 L140.751,48.242 C140.751,49.115 140.508,50.947 138.763,50.947 C136.518,50.947 136.518,48.242 136.518,46.455 L142.665,46.456 L142.665,46.456 Z M152.064,43.945 C152.064,42.595 151.52,40.087 148.335,40.087 C144.735,40.087 144.171,43.468 144.171,46.389 C144.171,50.4 145.371,52.386 148.228,52.386 C151.15,52.386 152.066,49.879 152.066,48.024 L150.233,48.024 C150.233,49.29 149.883,50.948 148.316,50.948 C146.114,50.948 146.089,47.897 146.089,46.369 C146.089,42.095 147.247,41.528 148.381,41.528 C149.776,41.528 150.233,42.814 150.233,43.948 L152.064,43.945 L152.064,43.945 Z M161.659,40.392 L159.827,40.392 L159.827,48.46 C159.827,50.161 158.498,50.817 157.516,50.817 C155.858,50.817 155.791,49.355 155.791,48.46 L155.791,40.392 L153.961,40.392 L153.961,48.681 C153.961,50.054 153.961,52.386 157.034,52.386 C158.171,52.386 159.389,51.777 159.871,50.708 L159.914,50.708 L159.914,52.081 L161.66,52.081 L161.66,40.392 L161.659,40.392 Z M164.056,52.082 L165.888,52.082 L165.888,44.689 C165.888,42.747 167.373,41.918 168.289,41.918 C168.876,41.918 169.097,41.982 169.269,42.005 L169.269,40.218 C169.095,40.13 168.831,40.088 168.46,40.088 C167.153,40.088 166.454,41.026 165.931,42.137 L165.887,42.137 L165.887,40.395 L164.055,40.395 L164.055,52.082 L164.056,52.082 Z M170.622,52.082 L172.452,52.082 L172.452,40.392 L170.622,40.392 L170.622,52.082 Z M170.622,38.607 L172.452,38.607 L172.452,36.513 L170.622,36.513 L170.622,38.607 Z M175.507,40.392 L173.807,40.392 L173.807,41.832 L175.507,41.832 L175.507,49.899 C175.507,51.428 175.964,52.211 177.861,52.211 C178.625,52.211 179.105,52.122 179.344,52.079 L179.344,50.574 C179.148,50.595 178.93,50.64 178.537,50.64 C177.577,50.64 177.335,50.267 177.335,49.329 L177.335,41.83 L179.365,41.83 L179.365,40.392 L177.335,40.392 L177.335,36.99 L175.506,36.99 L175.507,40.392 L175.507,40.392 Z M183.074,52.321 L182.722,53.344 C182.505,53.978 182.135,54.479 181.284,54.479 C180.827,54.479 180.475,54.458 180.215,54.414 L180.215,55.853 C180.522,55.874 180.827,55.917 181.546,55.917 C183.75,55.917 184.229,54.479 184.664,52.864 L188.045,40.39 L186.038,40.39 L183.988,49.768 L183.945,49.768 L181.633,40.39 L179.626,40.39 L183.074,52.321 Z M194.763,52.082 L196.68,52.082 L196.68,45.496 L199.058,45.496 C201.697,45.496 203.549,43.884 203.549,40.983 C203.549,36.511 200.082,36.511 198.731,36.511 L194.762,36.511 L194.763,52.082 L194.763,52.082 Z M196.68,38.082 L198.84,38.082 C200.736,38.082 201.542,39.194 201.542,40.894 C201.542,42.966 200.365,43.923 198.968,43.923 L196.679,43.923 L196.68,38.082 L196.68,38.082 Z M205.186,52.082 L207.016,52.082 L207.016,44.689 C207.016,42.747 208.5,41.918 209.416,41.918 C210.004,41.918 210.223,41.982 210.397,42.005 L210.397,40.218 C210.221,40.13 209.96,40.088 209.587,40.088 C208.278,40.088 207.582,41.026 207.06,42.137 L207.014,42.137 L207.014,40.395 L205.184,40.395 L205.186,52.082 L205.186,52.082 Z M211.072,46.236 C211.072,49.529 211.899,52.385 215.282,52.385 C218.641,52.385 219.489,49.53 219.489,46.236 C219.489,42.944 218.662,40.087 215.282,40.087 C211.923,40.089 211.072,42.944 211.072,46.236 L211.072,46.236 Z M215.236,50.947 C213.363,50.947 212.993,48.767 212.993,46.236 C212.993,43.708 213.386,41.525 215.236,41.525 C217.201,41.525 217.572,43.705 217.572,46.236 C217.572,48.767 217.179,50.947 215.236,50.947 L215.236,50.947 Z M222.806,46.236 C222.806,43.446 223.24,41.657 224.943,41.657 C226.904,41.657 227.299,43.969 227.299,46.236 C227.299,48.896 226.97,50.819 224.943,50.819 C223.239,50.819 222.806,49.03 222.806,46.236 L222.806,46.236 Z M229.021,36.512 L227.189,36.512 L227.189,41.724 L227.146,41.724 C226.731,40.719 225.619,40.087 224.573,40.087 C221.28,40.087 220.886,43.795 220.886,46.237 C220.886,49.923 221.937,52.385 224.704,52.385 C225.97,52.385 226.993,51.513 227.234,50.643 L227.278,50.643 L227.278,52.079 L229.021,52.079 L229.021,36.512 L229.021,36.512 Z M239.116,40.392 L237.284,40.392 L237.284,48.46 C237.284,50.161 235.954,50.817 234.974,50.817 C233.317,50.817 233.251,49.355 233.251,48.46 L233.251,40.392 L231.418,40.392 L231.418,48.681 C231.418,50.054 231.418,52.386 234.493,52.386 C235.628,52.386 236.848,51.777 237.328,50.708 L237.373,50.708 L237.373,52.081 L239.117,52.081 L239.117,40.392 L239.116,40.392 Z M248.907,43.945 C248.907,42.595 248.364,40.087 245.18,40.087 C241.58,40.087 241.015,43.468 241.015,46.389 C241.015,50.4 242.216,52.386 245.071,52.386 C247.994,52.386 248.908,49.879 248.908,48.024 L247.078,48.024 C247.078,49.29 246.728,50.948 245.159,50.948 C242.954,50.948 242.933,47.897 242.933,46.369 C242.933,42.095 244.087,41.528 245.221,41.528 C246.617,41.528 247.077,42.814 247.077,43.948 L248.907,43.945 L248.907,43.945 Z M251.351,40.392 L249.652,40.392 L249.652,41.832 L251.351,41.832 L251.351,49.899 C251.351,51.428 251.808,52.211 253.707,52.211 C254.472,52.211 254.949,52.122 255.188,52.079 L255.188,50.574 C254.993,50.595 254.775,50.64 254.38,50.64 C253.421,50.64 253.18,50.267 253.18,49.329 L253.18,41.83 L255.208,41.83 L255.208,40.392 L253.18,40.392 L253.18,36.99 L251.348,36.99 L251.351,40.392 L251.351,40.392 Z M263.3,43.816 C263.28,42.442 263.149,40.088 259.746,40.088 C257.718,40.088 256.016,41.133 256.016,43.316 C256.016,45.734 257.478,46.15 258.898,46.631 C260.313,47.11 261.752,47.438 261.752,49.006 C261.752,50.662 260.4,50.946 259.811,50.946 C258.025,50.946 257.632,49.66 257.632,48.243 L255.798,48.243 C255.798,49.444 255.844,52.387 259.811,52.387 C261.992,52.387 263.583,51.188 263.583,48.724 C263.583,46.409 262.145,45.912 260.727,45.429 C259.289,44.949 257.846,44.689 257.846,43.314 C257.846,41.679 259.158,41.526 259.746,41.526 C261.075,41.526 261.468,42.333 261.468,43.816 L263.3,43.816 L263.3,43.816 Z" id="Shape"></path>
            </g>
        </g>
    </g>
</svg>