<?xml version="1.0" encoding="UTF-8"?>
<svg width="250px" height="53px" viewBox="0 0 250 53" version="1.1" xmlns="http://www.w3.org/2000/svg" xmlns:xlink="http://www.w3.org/1999/xlink">
    <!-- Generator: Sketch 43.2 (39069) - http://www.bohemiancoding.com/sketch -->
    <title>name_slogan</title>
    <desc>Created with Sketch.</desc>
    <defs></defs>
    <g id="name_slogan" stroke="none" stroke-width="1" fill="none" fill-rule="evenodd">
        <g transform="translate(0.000000, -1.000000)" id="slogan" fill="#000000">
            <g transform="translate(0.000000, 0.212121)">
                <path d="M13.4848485,1.20738636 L10.8977273,1.20738636 L10.8977273,9.79356061 L3.69507576,9.79356061 L3.69507576,1.20738636 L1.10795455,1.20738636 L1.10795455,22.1998106 L3.69507576,22.1998106 L3.69507576,12.0852273 L10.8977273,12.0852273 L10.8977273,22.1998106 L13.4848485,22.1998106 L13.4848485,1.20738636 Z M18.8939394,11.2026515 L18.8939394,11.0549242 C18.8939394,10.4962121 18.8939394,7.96875 21.5984848,7.96875 C23.2443182,7.96875 24.125,8.82102273 24.125,10.2897727 C24.125,11.6136364 24.125,12.1136364 22.3323864,12.6732955 L19.0104167,13.6723485 C16.9810606,14.2907197 16.0397727,15.8181818 16.0397727,18.0246212 C16.0397727,20.8465909 17.3929924,22.6089015 20.3323864,22.6089015 C21.8030303,22.6089015 23.3314394,21.7575758 24.124053,20.3456439 L24.1846591,20.3456439 C24.3020833,22.3721591 25.4772727,22.3721591 26.4176136,22.3721591 C27.0350379,22.3721591 27.6799242,22.2566288 27.8589015,22.2263258 L27.8589015,20.4611742 C27.7405303,20.5501894 27.592803,20.6089015 27.2698864,20.6089015 C26.5047348,20.6089015 26.5047348,19.9914773 26.5047348,19.3456439 L26.5047348,10.5558712 C26.5047348,8.91003788 26.5047348,6.02840909 21.7111742,6.02840909 C17.9479167,6.02840909 16.4195076,7.6155303 16.4195076,11.1998106 L18.8939394,11.2026515 L18.8939394,11.2026515 Z M24.0397727,17.6723485 C24.0397727,19.2897727 22.4820076,20.6704545 20.8645833,20.6704545 C19.1893939,20.6704545 18.6306818,19.5539773 18.6306818,17.9659091 C18.6306818,16.5852273 19.0426136,15.967803 19.8361742,15.467803 C20.9526515,14.7916667 23.1278409,14.5852273 24.0407197,13.6155303 L24.0397727,17.6723485 L24.0397727,17.6723485 Z M40.2376894,6.44034091 L37.7698864,6.44034091 L37.7698864,17.3191288 C37.7698864,19.6117424 35.9763258,20.4943182 34.6534091,20.4943182 C32.4195076,20.4943182 32.3304924,18.5246212 32.3304924,17.3191288 L32.3304924,6.44034091 L29.8617424,6.44034091 L29.8617424,17.6107955 C29.8617424,19.4640152 29.8617424,22.6089015 34.0056818,22.6089015 C35.5350379,22.6089015 37.1818182,21.7869318 37.8295455,20.344697 L37.8882576,20.344697 L37.8882576,22.1988636 L40.2405303,22.1988636 L40.2376894,6.44034091 L40.2376894,6.44034091 Z M52.7035985,11.0568182 C52.6761364,9.20549242 52.499053,6.02840909 47.9138258,6.02840909 C45.1808712,6.02840909 42.8854167,7.44034091 42.8854167,10.3797348 C42.8854167,13.6429924 44.8570076,14.2035985 46.7670455,14.8484848 C48.6780303,15.4952652 50.6183712,15.936553 50.6183712,18.0530303 C50.6183712,20.2888258 48.7945076,20.6695076 48,20.6695076 C45.5890152,20.6695076 45.061553,18.9356061 45.061553,17.0246212 L42.592803,17.0246212 C42.592803,18.6410985 42.6496212,22.6089015 48.000947,22.6089015 C50.9403409,22.6089015 53.0890152,20.9924242 53.0890152,17.6704545 C53.0890152,14.5539773 51.1467803,13.8778409 49.2348485,13.2310606 C47.2954545,12.5842803 45.3522727,12.2301136 45.3522727,10.3797348 C45.3522727,8.17424242 47.1174242,7.96780303 47.9109848,7.96780303 C49.7045455,7.96780303 50.2339015,9.05587121 50.2339015,11.0549242 L52.7035985,11.0568182 L52.7035985,11.0568182 Z M57.5833333,12.6742424 L57.5833333,12.0852273 C57.5833333,11.1439394 57.875947,7.96969697 60.4649621,7.96969697 C62.6420455,7.96969697 63.2007576,10.0558712 63.2007576,11.8200758 L63.2007576,12.6732955 L57.5833333,12.6732955 L57.5833333,12.6742424 Z M65.7888258,14.6136364 L65.7888258,13.6145833 C65.7888258,10.2339015 65.3475379,6.02840909 60.5255682,6.02840909 C55.6742424,6.02840909 54.9109848,10.5852273 54.9109848,14.5255682 C54.9109848,19.9346591 56.5274621,22.6107955 60.3797348,22.6107955 C64.6714015,22.6107955 65.6704545,18.6998106 65.6704545,17.0246212 L63.2035985,17.0246212 C63.2035985,18.2007576 62.8806818,20.6704545 60.5265152,20.6704545 C57.4981061,20.6704545 57.4981061,17.0246212 57.4981061,14.6136364 L65.7888258,14.6136364 L65.7888258,14.6136364 Z M68.4914773,22.1998106 L70.9611742,22.1998106 L70.9611742,12.2320076 C70.9611742,9.6155303 72.9630682,8.5 74.1960227,8.5 C74.9933712,8.5 75.282197,8.58806818 75.5198864,8.61837121 L75.5198864,6.20643939 C75.2831439,6.08806818 74.9327652,6.02935606 74.4318182,6.02935606 C72.6685606,6.02935606 71.7291667,7.29356061 71.0208333,8.79261364 L70.9621212,8.79261364 L70.9621212,6.44034091 L68.4924242,6.44034091 L68.4924242,22.1998106 L68.4914773,22.1998106 Z M84.3390152,22.1998106 L86.9270833,22.1998106 L86.9270833,12.3797348 L94.717803,12.3797348 L94.717803,10.0861742 L86.9270833,10.0861742 L86.9270833,3.49905303 L95.1875,3.49905303 L95.1875,1.20738636 L84.3390152,1.20738636 L84.3390152,22.1998106 Z M98.7452652,12.6742424 L98.7452652,12.0852273 C98.7452652,11.1439394 99.0378788,7.96969697 101.627841,7.96969697 C103.80303,7.96969697 104.361742,10.0558712 104.361742,11.8200758 L104.361742,12.6732955 L98.7452652,12.6732955 L98.7452652,12.6742424 Z M106.948864,14.6136364 L106.948864,13.6145833 C106.948864,10.2339015 106.50947,6.02840909 101.685606,6.02840909 C96.8352273,6.02840909 96.0719697,10.5852273 96.0719697,14.5255682 C96.0719697,19.9346591 97.6875,22.6107955 101.537879,22.6107955 C105.830492,22.6107955 106.830492,18.6998106 106.830492,17.0246212 L104.362689,17.0246212 C104.362689,18.2007576 104.035985,20.6704545 101.6875,20.6704545 C98.65625,20.6704545 98.65625,17.0246212 98.65625,14.6136364 L106.948864,14.6136364 L106.948864,14.6136364 Z M120.033144,6.44034091 L117.5625,6.44034091 L117.5625,17.3191288 C117.5625,19.6117424 115.770833,20.4943182 114.447917,20.4943182 C112.212121,20.4943182 112.124053,18.5246212 112.124053,17.3191288 L112.124053,6.44034091 L109.657197,6.44034091 L109.657197,17.6107955 C109.657197,19.4640152 109.657197,22.6089015 113.802083,22.6089015 C115.328598,22.6089015 116.976326,21.7869318 117.625,20.344697 L117.682765,20.344697 L117.682765,22.1988636 L120.034091,22.1988636 L120.034091,6.44034091 L120.033144,6.44034091 Z M125.410985,12.6742424 L125.410985,12.0852273 C125.410985,11.1439394 125.705492,7.96969697 128.294508,7.96969697 C130.470644,7.96969697 131.025568,10.0558712 131.025568,11.8200758 L131.025568,12.6732955 L125.410985,12.6732955 L125.410985,12.6742424 Z M133.61553,14.6136364 L133.61553,13.6145833 C133.61553,10.2339015 133.174242,6.02840909 128.352273,6.02840909 C123.5,6.02840909 122.736742,10.5852273 122.736742,14.5255682 C122.736742,19.9346591 124.352273,22.6107955 128.203598,22.6107955 C132.497159,22.6107955 133.497159,18.6998106 133.497159,17.0246212 L131.028409,17.0246212 C131.028409,18.2007576 130.703598,20.6704545 128.355114,20.6704545 C125.326705,20.6704545 125.326705,17.0246212 125.326705,14.6136364 L133.61553,14.6136364 L133.61553,14.6136364 Z M136.321023,22.1998106 L138.787879,22.1998106 L138.787879,12.2320076 C138.787879,9.6155303 140.787879,8.5 142.023674,8.5 C142.817235,8.5 143.107008,8.58806818 143.345644,8.61837121 L143.345644,6.20643939 C143.107008,6.08806818 142.757576,6.02935606 142.260417,6.02935606 C140.494318,6.02935606 139.554924,7.29356061 138.846591,8.79261364 L138.789773,8.79261364 L138.789773,6.44034091 L136.32197,6.44034091 L136.32197,22.1998106 L136.321023,22.1998106 Z M154.254735,11.0568182 C154.226326,9.20549242 154.047348,6.02840909 149.462121,6.02840909 C146.730114,6.02840909 144.433712,7.44034091 144.433712,10.3797348 C144.433712,13.6429924 146.405303,14.2035985 148.316288,14.8484848 C150.225379,15.4952652 152.166667,15.936553 152.166667,18.0530303 C152.166667,20.2888258 150.34375,20.6695076 149.549242,20.6695076 C147.137311,20.6695076 146.609848,18.9356061 146.609848,17.0246212 L144.142045,17.0246212 C144.142045,18.6410985 144.197917,22.6089015 149.550189,22.6089015 C152.489583,22.6089015 154.636364,20.9924242 154.636364,17.6704545 C154.636364,14.5539773 152.696023,13.8778409 150.785985,13.2310606 C148.844697,12.5842803 146.904356,12.2301136 146.904356,10.3797348 C146.904356,8.17424242 148.666667,7.96780303 149.460227,7.96780303 C151.254735,7.96780303 151.783144,9.05587121 151.783144,11.0549242 L154.254735,11.0568182 L154.254735,11.0568182 Z M166.955492,11.2320076 C166.955492,9.41003788 166.220644,6.02935606 161.928977,6.02935606 C157.076705,6.02935606 156.310606,10.5861742 156.310606,14.5274621 C156.310606,19.936553 157.92803,22.6117424 161.780303,22.6117424 C165.717803,22.6117424 166.954545,19.2301136 166.954545,16.7310606 L164.485795,16.7310606 C164.485795,18.436553 164.016098,20.6704545 161.899621,20.6704545 C158.929924,20.6704545 158.898674,16.5558712 158.898674,14.4981061 C158.898674,8.73484848 160.458333,7.97064394 161.986742,7.97064394 C163.867424,7.97064394 164.486742,9.70359848 164.486742,11.2329545 L166.955492,11.2320076 L166.955492,11.2320076 Z M169.511364,22.1998106 L171.980114,22.1998106 L171.980114,11.3219697 C171.980114,9.02935606 173.775568,8.14583333 175.098485,8.14583333 C177.330492,8.14583333 177.419508,10.1155303 177.419508,11.3219697 L177.419508,22.1998106 L179.888258,22.1998106 L179.888258,11.0265152 C179.888258,9.17518939 179.888258,6.02935606 175.831439,6.02935606 C174.421402,6.02935606 172.686553,6.93844697 172.039773,8.23390152 L171.980114,8.23390152 L171.980114,1.20738636 L169.513258,1.20738636 L169.513258,22.1998106 L169.511364,22.1998106 Z M193.502841,6.44034091 L191.034091,6.44034091 L191.034091,17.3191288 C191.034091,19.6117424 189.238636,20.4943182 187.918561,20.4943182 C185.682765,20.4943182 185.596591,18.5246212 185.596591,17.3191288 L185.596591,6.44034091 L183.126894,6.44034091 L183.126894,17.6107955 C183.126894,19.4640152 183.126894,22.6089015 187.27178,22.6089015 C188.798295,22.6089015 190.446023,21.7869318 191.095644,20.344697 L191.154356,20.344697 L191.154356,22.1988636 L193.504735,22.1988636 L193.502841,6.44034091 L193.502841,6.44034091 Z M197.472538,6.44034091 L195.179924,6.44034091 L195.179924,8.38162879 L197.472538,8.38162879 L197.472538,19.2585227 C197.472538,21.3172348 198.089015,22.374053 200.647727,22.374053 C201.677083,22.374053 202.324811,22.2585227 202.647727,22.1998106 L202.647727,20.1714015 C202.382576,20.1998106 202.088068,20.2594697 201.559659,20.2594697 C200.266098,20.2594697 199.944129,19.7594697 199.944129,18.4943182 L199.944129,8.38257576 L202.67803,8.38257576 L202.67803,6.44128788 L199.944129,6.44128788 L199.944129,1.85511364 L197.475379,1.85511364 L197.472538,6.44034091 L197.472538,6.44034091 Z M203.881629,8.55776515 L210.674242,8.55776515 L203.528409,20.2594697 L203.528409,22.1998106 L213.319129,22.1998106 L213.319129,20.0842803 L206.32197,20.0842803 L213.379735,8.49905303 L213.379735,6.44128788 L203.882576,6.44128788 L203.881629,8.55776515 L203.881629,8.55776515 Z M219.90625,22.1998106 L222.608902,22.1998106 L224.168561,16.436553 L230.869318,16.436553 L232.369318,22.1998106 L235.072917,22.1998106 L229.42803,1.20738636 L225.95928,1.20738636 L219.90625,22.1998106 Z M227.607955,4.17708333 L227.667614,4.17708333 L230.340909,14.3191288 L224.69697,14.3191288 L227.607955,4.17708333 Z M249.215909,7.02840909 C249.1875,5.94128788 249.042614,0.796401515 243.014205,0.796401515 C237.221591,0.796401515 236.249053,6.41098485 236.249053,11.7026515 C236.249053,17.3465909 237.219697,22.6107955 242.691288,22.6107955 C244.982008,22.6107955 246.660038,21.1401515 247.216856,19.3465909 L247.275568,19.3465909 L247.275568,22.1998106 L249.214962,22.1998106 L249.214962,11.2907197 L242.720644,11.2907197 L242.720644,13.40625 L246.864583,13.40625 C246.864583,16.2017045 246.600379,20.4933712 243.013258,20.4933712 C239.427083,20.4933712 238.956439,16.5530303 238.956439,11.7017045 C238.956439,6.85037879 239.42803,2.91098485 243.013258,2.91098485 C245.571023,2.91098485 246.392992,4.82291667 246.511364,7.02746212 L249.215909,7.02746212 L249.215909,7.02840909 Z" id="Shape" fill-rule="nonzero"></path>
                <path d="M9.48295455,38.3948864 C9.44223485,35.6912879 8.16193182,34.2850379 5.35227273,34.2850379 C1.61458333,34.2850379 1.03693182,36.9895833 1.03693182,38.3522727 C1.03693182,43.7642045 7.99621212,41.3484848 7.99621212,45.5179924 C7.99621212,47.0880682 6.88162879,48.124053 5.43655303,48.124053 C2.77367424,48.124053 2.67045455,46.344697 2.67045455,44.6941288 L0.852272727,44.6941288 C0.852272727,47.8333333 1.86458333,49.6089015 5.31344697,49.6089015 C7.39867424,49.6089015 9.8967803,48.6382576 9.8967803,45.2310606 C9.8967803,39.8409091 2.93939394,42.3210227 2.93939394,38.1685606 C2.93939394,36.5975379 3.84848485,35.7746212 5.37594697,35.7746212 C7.11079545,35.7746212 7.66950758,36.8484848 7.66950758,38.3948864 L9.48295455,38.3948864 L9.48295455,38.3948864 L9.48295455,38.3948864 Z M13.1382576,41.5975379 L13.1382576,41.4933712 C13.1382576,41.1003788 13.1382576,39.3257576 15.0388258,39.3257576 C16.1950758,39.3257576 16.813447,39.9270833 16.813447,40.9573864 C16.813447,41.8854167 16.813447,42.2395833 15.5530303,42.6316288 L13.2206439,43.3361742 C11.7954545,43.7670455 11.1325758,44.8418561 11.1325758,46.3910985 C11.1325758,48.3731061 12.0814394,49.6107955 14.1486742,49.6107955 C15.1818182,49.6107955 16.2566288,49.0123106 16.811553,48.0227273 L16.8541667,48.0227273 C16.936553,49.4460227 17.7632576,49.4460227 18.4232955,49.4460227 C18.8560606,49.4460227 19.3106061,49.3645833 19.4337121,49.342803 L19.4337121,48.1041667 C19.3522727,48.1657197 19.2471591,48.2054924 19.0189394,48.2054924 C18.4839015,48.2054924 18.4839015,47.7717803 18.4839015,47.3181818 L18.4839015,41.1448864 C18.4839015,39.9895833 18.4839015,37.9649621 15.1183712,37.9649621 C12.4744318,37.9649621 11.3996212,39.0795455 11.3996212,41.5994318 L13.1373106,41.5994318 L13.1373106,41.5975379 L13.1382576,41.5975379 Z M16.750947,46.1401515 C16.750947,47.2774621 15.657197,48.2462121 14.5208333,48.2462121 C13.34375,48.2462121 12.9517045,47.4611742 12.9517045,46.34375 C12.9517045,45.374053 13.2424242,44.9412879 13.7992424,44.5918561 C14.5842803,44.1155303 16.1126894,43.96875 16.7528409,43.2897727 L16.750947,46.1401515 L16.750947,46.1401515 Z M21.3579545,49.3200758 L23.0918561,49.3200758 L23.0918561,39.6145833 L24.9905303,39.6145833 L24.9905303,38.2518939 L23.0918561,38.2518939 L23.0918561,36.9526515 C23.0918561,36.186553 23.4630682,35.8977273 24.2054924,35.8977273 L25.0113636,35.8977273 L25.0113636,34.4081439 L23.7528409,34.4081439 C22.0785985,34.4081439 21.3570076,35.2765152 21.3570076,36.9526515 L21.3570076,38.250947 L19.7452652,38.250947 L19.7452652,39.6145833 L21.3570076,39.6145833 L21.3579545,49.3200758 L21.3579545,49.3200758 Z M27.6969697,42.6297348 L27.6969697,42.2159091 C27.6969697,41.5558712 27.905303,39.3248106 29.7206439,39.3248106 C31.2481061,39.3248106 31.6410985,40.7916667 31.6410985,42.0293561 L31.6410985,42.6287879 L27.6969697,42.6287879 L27.6969697,42.6297348 Z M33.4583333,43.9924242 L33.4583333,43.2897727 C33.4583333,40.9138258 33.1477273,37.9611742 29.7613636,37.9611742 C26.3532197,37.9611742 25.8181818,41.1628788 25.8181818,43.9289773 C25.8181818,47.7272727 26.9535985,49.6079545 29.6600379,49.6079545 C32.6751894,49.6079545 33.3768939,46.8607955 33.3768939,45.6837121 L31.6429924,45.6837121 C31.6429924,46.5104167 31.4166667,48.2452652 29.7642045,48.2452652 C27.6373106,48.2452652 27.6373106,45.6837121 27.6373106,43.9914773 L33.4583333,43.9924242 L33.4583333,43.9924242 Z M35.8731061,38.25 L34.2642045,38.25 L34.2642045,39.6136364 L35.8731061,39.6136364 L35.8731061,47.2528409 C35.8731061,48.7007576 36.3068182,49.4422348 38.1041667,49.4422348 C38.8257576,49.4422348 39.28125,49.3579545 39.5075758,49.3172348 L39.5075758,47.8920455 C39.3210227,47.9119318 39.1145833,47.9545455 38.7433712,47.9545455 C37.8333333,47.9545455 37.6060606,47.6013258 37.6060606,46.7130682 L37.6060606,39.6117424 L39.5265152,39.6117424 L39.5265152,38.25 L37.6060606,38.25 L37.6060606,35.0284091 L35.8721591,35.0284091 L35.8721591,38.25 L35.8731061,38.25 Z M43.0397727,49.5464015 L42.7092803,50.5151515 C42.5028409,51.1155303 42.1524621,51.5899621 41.3456439,51.5899621 C40.9128788,51.5899621 40.5814394,51.5700758 40.3342803,51.5284091 L40.3342803,52.8910985 C40.6231061,52.9109848 40.9119318,52.9517045 41.5918561,52.9517045 C43.6770833,52.9517045 44.1335227,51.5899621 44.5464015,50.0606061 L47.7481061,38.2481061 L45.8465909,38.2481061 L43.905303,47.1287879 L43.8636364,47.1287879 L41.6761364,38.2518939 L39.7765152,38.2518939 L43.0397727,49.5464015 Z M62.1837121,38.3948864 C62.1420455,35.6912879 60.8607955,34.2850379 58.0520833,34.2850379 C54.3153409,34.2850379 53.7357955,36.9895833 53.7357955,38.3522727 C53.7357955,43.7642045 60.6950758,41.3484848 60.6950758,45.5179924 C60.6950758,47.0880682 59.5804924,48.124053 58.1354167,48.124053 C55.4725379,48.124053 55.3683712,46.344697 55.3683712,44.6941288 L53.5511364,44.6941288 C53.5511364,47.8333333 54.561553,49.6089015 58.0123106,49.6089015 C60.0975379,49.6089015 62.59375,48.6382576 62.59375,45.2310606 C62.59375,39.8409091 55.6344697,42.3210227 55.6344697,38.1685606 C55.6344697,36.5975379 56.5435606,35.7746212 58.0719697,35.7746212 C59.8058712,35.7746212 60.3645833,36.8484848 60.3645833,38.3948864 L62.1808712,38.3948864 L62.1837121,38.3948864 L62.1837121,38.3948864 Z M64.4753788,49.3200758 L66.2102273,49.3200758 L66.2102273,38.25 L64.4753788,38.25 L64.4753788,49.3200758 Z M64.4753788,36.5596591 L66.2102273,36.5596591 L66.2102273,34.5767045 L64.4753788,34.5767045 L64.4753788,36.5596591 Z M72.0123106,39.4479167 C73.8712121,39.4479167 74.2443182,41.6373106 74.2443182,43.7859848 C74.2443182,46.0558712 73.8712121,47.8323864 71.9933712,47.8323864 C70.2594697,47.8323864 69.9895833,45.5795455 69.9895833,43.7859848 C69.9886364,41.1420455 70.4005682,39.4479167 72.0123106,39.4479167 L72.0123106,39.4479167 Z M75.874053,38.25 L74.2215909,38.25 L74.2215909,39.6543561 L74.1799242,39.6543561 C73.9535985,38.7869318 72.9820076,37.9602273 71.7859848,37.9602273 C68.9782197,37.9602273 68.1723485,40.7897727 68.1723485,43.7850379 C68.1723485,45.249053 68.3787879,49.3181818 71.6013258,49.3181818 C72.6941288,49.3181818 73.7291667,48.7613636 74.1013258,47.8314394 L74.1410985,47.8314394 L74.1410985,49.2784091 C74.1410985,50.0426136 74.2234848,51.7547348 71.9933712,51.7547348 C71.0842803,51.7547348 70.2982955,51.3598485 70.2168561,50.3494318 L68.4839015,50.3494318 C68.7717803,53.1193182 71.4375,53.1193182 72.1174242,53.1193182 C74.3484848,53.1193182 75.875947,51.9223485 75.875947,48.6155303 L75.875947,38.25 L75.874053,38.25 Z M78.1458333,49.3200758 L79.8797348,49.3200758 L79.8797348,41.6808712 C79.8797348,40.0710227 81.1401515,39.4488636 82.0681818,39.4488636 C83.6392045,39.4488636 83.6998106,40.8323864 83.6998106,41.6808712 L83.6998106,49.3200758 L85.4337121,49.3200758 L85.4337121,41.4725379 C85.4337121,40.1723485 85.4337121,37.9630682 82.5227273,37.9630682 C81.4488636,37.9630682 80.2907197,38.5397727 79.8380682,39.5530303 L79.7982955,39.5530303 L79.7982955,38.2537879 L78.1448864,38.2537879 L78.1448864,49.3210227 L78.1458333,49.3210227 L78.1458333,49.3200758 Z M94.1912879,41.4924242 C94.1704545,40.1912879 94.0464015,37.9621212 90.8238636,37.9621212 C88.9043561,37.9621212 87.2926136,38.9517045 87.2926136,41.0189394 C87.2926136,43.3087121 88.6780303,43.7026515 90.0189394,44.1581439 C91.3645833,44.6117424 92.7253788,44.9223485 92.7253788,46.407197 C92.7253788,47.9753788 91.4431818,48.2443182 90.8882576,48.2443182 C89.1941288,48.2443182 88.8210227,47.0265152 88.8210227,45.6846591 L87.0890152,45.6846591 C87.0890152,46.8219697 87.1297348,49.6089015 90.8873106,49.6089015 C92.9507576,49.6089015 94.4583333,48.4734848 94.4583333,46.1401515 C94.4583333,43.9479167 93.0965909,43.4772727 91.7556818,43.0198864 C90.3920455,42.5653409 89.030303,42.3191288 89.030303,41.0170455 C89.030303,39.46875 90.2670455,39.3238636 90.8257576,39.3238636 C92.0861742,39.3238636 92.4583333,40.0880682 92.4583333,41.4924242 L94.1912879,41.4924242 L94.1912879,41.4924242 Z M104.846591,39.9640152 L104.496212,39.46875 C104.043561,38.7888258 103.609848,38.0454545 103.609848,37.3825758 C103.609848,36.5369318 104.186553,35.936553 105.073864,35.936553 C105.942235,35.936553 106.563447,36.5378788 106.563447,37.3825758 C106.563447,38.375947 105.901515,38.9507576 105.239583,39.594697 L104.846591,39.9640152 Z M107.614583,46.6969697 C106.910985,47.5028409 106.126894,48.1231061 104.969697,48.1231061 C103.526515,48.1231061 102.267045,47.1714015 102.267045,45.374053 C102.267045,43.8257576 103.19697,42.7130682 104.374053,42.0085227 L107.614583,46.6969697 Z M105.610795,41.0577652 L106.144886,40.6041667 C107.157197,39.7575758 108.171402,38.8285985 108.171402,37.3844697 C108.171402,35.3806818 106.909091,34.5757576 105.052083,34.5757576 C103.378788,34.5757576 101.996212,35.7320076 101.996212,37.4649621 C101.996212,38.500947 102.53125,39.3248106 103.070076,40.1505682 L103.527462,40.8948864 L102.450758,41.6988636 C101.251894,42.6297348 100.447917,43.9933712 100.447917,45.5189394 C100.447917,46.8617424 101.231061,49.6098485 104.824811,49.6098485 C106.414773,49.6098485 107.322917,49.0094697 108.457386,47.9346591 L109.450758,49.3200758 L111.412879,49.3200758 L109.508523,46.657197 C110.071023,45.9327652 110.70928,43.4346591 110.70928,42.3607955 L109.097538,42.3607955 C108.996212,43.6609848 108.811553,44.4895833 108.522727,45.2320076 L105.610795,41.0577652 Z M125.642045,38.3948864 C125.600379,35.6912879 124.321023,34.2850379 121.513258,34.2850379 C117.774621,34.2850379 117.196023,36.9895833 117.196023,38.3522727 C117.196023,43.7642045 124.15625,41.3484848 124.15625,45.5179924 C124.15625,47.0880682 123.041667,48.124053 121.597538,48.124053 C118.931818,48.124053 118.827652,46.344697 118.827652,44.6941288 L117.012311,44.6941288 C117.012311,47.8333333 118.02178,49.6089015 121.471591,49.6089015 C123.560606,49.6089015 126.057765,48.6382576 126.057765,45.2310606 C126.057765,39.8409091 119.096591,42.3210227 119.096591,38.1685606 C119.096591,36.5975379 120.006629,35.7746212 121.535038,35.7746212 C123.268939,35.7746212 123.824811,36.8484848 123.824811,38.3948864 L125.642045,38.3948864 L125.642045,38.3948864 L125.642045,38.3948864 Z M129.339015,42.6297348 L129.339015,42.2159091 C129.339015,41.5558712 129.545455,39.3248106 131.362689,39.3248106 C132.890152,39.3248106 133.285985,40.7916667 133.285985,42.0293561 L133.285985,42.6287879 L129.339015,42.6287879 L129.339015,42.6297348 Z M135.099432,43.9924242 L135.099432,43.2897727 C135.099432,40.9138258 134.79072,37.9611742 131.403409,37.9611742 C127.995265,37.9611742 127.460227,41.1628788 127.460227,43.9289773 C127.460227,47.7272727 128.599432,49.6079545 131.302083,49.6079545 C134.317235,49.6079545 135.018939,46.8607955 135.018939,45.6837121 L133.286932,45.6837121 C133.286932,46.5104167 133.056818,48.2452652 131.404356,48.2452652 C129.278409,48.2452652 129.278409,45.6837121 129.278409,43.9914773 L135.099432,43.9924242 L135.099432,43.9924242 Z M144,41.6145833 C144,40.3361742 143.484848,37.9611742 140.46875,37.9611742 C137.059659,37.9611742 136.525568,41.1628788 136.525568,43.9289773 C136.525568,47.7272727 137.661932,49.6079545 140.367424,49.6079545 C143.13447,49.6079545 144.001894,47.2339015 144.001894,45.4772727 L142.266098,45.4772727 C142.266098,46.6761364 141.934659,48.2462121 140.450758,48.2462121 C138.36553,48.2462121 138.341856,45.3570076 138.341856,43.9100379 C138.341856,39.8626894 139.438447,39.3257576 140.512311,39.3257576 C141.833333,39.3257576 142.266098,40.5435606 142.266098,41.6174242 L144,41.6145833 L144,41.6145833 Z M153.086174,38.25 L151.351326,38.25 L151.351326,45.8901515 C151.351326,47.500947 150.092803,48.1221591 149.162879,48.1221591 C147.592803,48.1221591 147.529356,46.7376894 147.529356,45.8901515 L147.529356,38.25 L145.796402,38.25 L145.796402,46.0994318 C145.796402,47.3996212 145.796402,49.6079545 148.706439,49.6079545 C149.783144,49.6079545 150.936553,49.03125 151.392992,48.0189394 L151.433712,48.0189394 L151.433712,49.3191288 L153.087121,49.3191288 L153.087121,38.25 L153.086174,38.25 Z M155.356061,49.3200758 L157.090909,49.3200758 L157.090909,42.3191288 C157.090909,40.4801136 158.497159,39.6950758 159.364583,39.6950758 C159.920455,39.6950758 160.129735,39.7556818 160.292614,39.7774621 L160.292614,38.0852273 C160.127841,38.0018939 159.877841,37.9621212 159.526515,37.9621212 C158.288826,37.9621212 157.626894,38.8503788 157.131629,39.9024621 L157.089962,39.9024621 L157.089962,38.2528409 L155.355114,38.2528409 L155.355114,49.3200758 L155.356061,49.3200758 Z M161.573864,49.3200758 L163.306818,49.3200758 L163.306818,38.25 L161.573864,38.25 L161.573864,49.3200758 Z M161.573864,36.5596591 L163.306818,36.5596591 L163.306818,34.5767045 L161.573864,34.5767045 L161.573864,36.5596591 Z M166.199811,38.25 L164.589962,38.25 L164.589962,39.6136364 L166.199811,39.6136364 L166.199811,47.2528409 C166.199811,48.7007576 166.632576,49.4422348 168.428977,49.4422348 C169.152462,49.4422348 169.607008,49.3579545 169.833333,49.3172348 L169.833333,47.8920455 C169.647727,47.9119318 169.441288,47.9545455 169.069129,47.9545455 C168.160038,47.9545455 167.930871,47.6013258 167.930871,46.7130682 L167.930871,39.6117424 L169.85322,39.6117424 L169.85322,38.25 L167.930871,38.25 L167.930871,35.0284091 L166.198864,35.0284091 L166.199811,38.25 L166.199811,38.25 Z M173.36553,49.5464015 L173.032197,50.5151515 C172.826705,51.1155303 172.476326,51.5899621 171.670455,51.5899621 C171.237689,51.5899621 170.904356,51.5700758 170.658144,51.5284091 L170.658144,52.8910985 C170.948864,52.9109848 171.237689,52.9517045 171.918561,52.9517045 C174.005682,52.9517045 174.45928,51.5899621 174.871212,50.0606061 L178.072917,38.2481061 L176.172348,38.2481061 L174.231061,47.1287879 L174.190341,47.1287879 L172.000947,38.2481061 L170.100379,38.2481061 L173.36553,49.5464015 Z M184.434659,49.3200758 L186.25,49.3200758 L186.25,43.0833333 L188.501894,43.0833333 C191.000947,43.0833333 192.754735,41.5568182 192.754735,38.8096591 C192.754735,34.5748106 189.471591,34.5748106 188.192235,34.5748106 L184.433712,34.5748106 L184.434659,49.3200758 L184.434659,49.3200758 Z M186.25,36.0625 L188.295455,36.0625 C190.090909,36.0625 190.854167,37.1155303 190.854167,38.7253788 C190.854167,40.6875 189.739583,41.59375 188.416667,41.59375 L186.249053,41.59375 L186.25,36.0625 L186.25,36.0625 Z M194.304924,49.3200758 L196.037879,49.3200758 L196.037879,42.3191288 C196.037879,40.4801136 197.443182,39.6950758 198.310606,39.6950758 C198.867424,39.6950758 199.074811,39.7556818 199.239583,39.7774621 L199.239583,38.0852273 C199.072917,38.0018939 198.825758,37.9621212 198.472538,37.9621212 C197.232955,37.9621212 196.573864,38.8503788 196.079545,39.9024621 L196.035985,39.9024621 L196.035985,38.2528409 L194.30303,38.2528409 L194.304924,49.3200758 L194.304924,49.3200758 Z M199.878788,43.7840909 C199.878788,46.9024621 200.661932,49.6070076 203.86553,49.6070076 C207.046402,49.6070076 207.849432,46.9034091 207.849432,43.7840909 C207.849432,40.6666667 207.066288,37.9611742 203.86553,37.9611742 C200.684659,37.9630682 199.878788,40.6666667 199.878788,43.7840909 L199.878788,43.7840909 Z M203.82197,48.2452652 C202.048295,48.2452652 201.697917,46.1808712 201.697917,43.7840909 C201.697917,41.3901515 202.070076,39.3229167 203.82197,39.3229167 C205.682765,39.3229167 206.034091,41.3873106 206.034091,43.7840909 C206.034091,46.1808712 205.661932,48.2452652 203.82197,48.2452652 L203.82197,48.2452652 Z M210.99053,43.7840909 C210.99053,41.1420455 211.401515,39.4479167 213.014205,39.4479167 C214.871212,39.4479167 215.245265,41.6373106 215.245265,43.7840909 C215.245265,46.3030303 214.933712,48.124053 213.014205,48.124053 C211.400568,48.124053 210.99053,46.4299242 210.99053,43.7840909 L210.99053,43.7840909 Z M216.875947,34.5757576 L215.141098,34.5757576 L215.141098,39.5113636 L215.100379,39.5113636 C214.707386,38.5596591 213.654356,37.9611742 212.663826,37.9611742 C209.545455,37.9611742 209.172348,41.4725379 209.172348,43.7850379 C209.172348,47.2755682 210.167614,49.6070076 212.787879,49.6070076 C213.986742,49.6070076 214.955492,48.78125 215.183712,47.9573864 L215.225379,47.9573864 L215.225379,49.3172348 L216.875947,49.3172348 L216.875947,34.5757576 L216.875947,34.5757576 Z M226.435606,38.25 L224.700758,38.25 L224.700758,45.8901515 C224.700758,47.500947 223.441288,48.1221591 222.513258,48.1221591 C220.944129,48.1221591 220.881629,46.7376894 220.881629,45.8901515 L220.881629,38.25 L219.145833,38.25 L219.145833,46.0994318 C219.145833,47.3996212 219.145833,49.6079545 222.057765,49.6079545 C223.132576,49.6079545 224.287879,49.03125 224.742424,48.0189394 L224.785038,48.0189394 L224.785038,49.3191288 L226.436553,49.3191288 L226.436553,38.25 L226.435606,38.25 Z M235.707386,41.6145833 C235.707386,40.3361742 235.193182,37.9611742 232.17803,37.9611742 C228.768939,37.9611742 228.233902,41.1628788 228.233902,43.9289773 C228.233902,47.7272727 229.371212,49.6079545 232.074811,49.6079545 C234.842803,49.6079545 235.708333,47.2339015 235.708333,45.4772727 L233.975379,45.4772727 C233.975379,46.6761364 233.643939,48.2462121 232.158144,48.2462121 C230.070076,48.2462121 230.050189,45.3570076 230.050189,43.9100379 C230.050189,39.8626894 231.142992,39.3257576 232.216856,39.3257576 C233.538826,39.3257576 233.974432,40.5435606 233.974432,41.6174242 L235.707386,41.6145833 L235.707386,41.6145833 Z M238.02178,38.25 L236.412879,38.25 L236.412879,39.6136364 L238.02178,39.6136364 L238.02178,47.2528409 C238.02178,48.7007576 238.454545,49.4422348 240.252841,49.4422348 C240.977273,49.4422348 241.428977,49.3579545 241.655303,49.3172348 L241.655303,47.8920455 C241.470644,47.9119318 241.264205,47.9545455 240.890152,47.9545455 C239.982008,47.9545455 239.753788,47.6013258 239.753788,46.7130682 L239.753788,39.6117424 L241.674242,39.6117424 L241.674242,38.25 L239.753788,38.25 L239.753788,35.0284091 L238.018939,35.0284091 L238.02178,38.25 L238.02178,38.25 Z M249.337121,41.4924242 C249.318182,40.1912879 249.194129,37.9621212 245.971591,37.9621212 C244.051136,37.9621212 242.439394,38.9517045 242.439394,41.0189394 C242.439394,43.3087121 243.823864,43.7026515 245.168561,44.1581439 C246.508523,44.6117424 247.871212,44.9223485 247.871212,46.407197 C247.871212,47.9753788 246.590909,48.2443182 246.033144,48.2443182 C244.341856,48.2443182 243.969697,47.0265152 243.969697,45.6846591 L242.232955,45.6846591 C242.232955,46.8219697 242.276515,49.6089015 246.033144,49.6089015 C248.098485,49.6089015 249.605114,48.4734848 249.605114,46.1401515 C249.605114,43.9479167 248.243371,43.4772727 246.900568,43.0198864 C245.538826,42.5653409 244.172348,42.3191288 244.172348,41.0170455 C244.172348,39.46875 245.414773,39.3238636 245.971591,39.3238636 C247.230114,39.3238636 247.602273,40.0880682 247.602273,41.4924242 L249.337121,41.4924242 L249.337121,41.4924242 Z" id="Shape" fill-rule="nonzero"></path>
            </g>
        </g>
    </g>
</svg>